<ttFont>
    <TTGlyph name=".notdef" xMin="0" yMin="0" xMax="390" yMax="540">
      <contour>
        <pt x="390" y="26" on="1"/>
        <pt x="390" y="0" on="0"/>
        <pt x="364" y="0" on="1"/>
        <pt x="27" y="0" on="1"/>
        <pt x="0" y="0" on="0"/>
        <pt x="0" y="26" on="1"/>
        <pt x="0" y="514" on="1"/>
        <pt x="0" y="540" on="0"/>
        <pt x="27" y="540" on="1"/>
        <pt x="364" y="540" on="1"/>
        <pt x="390" y="540" on="0"/>
        <pt x="390" y="514" on="1"/>
      </contour>
      <contour>
        <pt x="209" y="246" on="1"/>
        <pt x="255" y="253" on="0"/>
        <pt x="316" y="318" on="0"/>
        <pt x="316" y="366" on="1"/>
        <pt x="316" y="389" on="0"/>
        <pt x="301" y="428" on="0"/>
        <pt x="270" y="457" on="0"/>
        <pt x="225" y="476" on="0"/>
        <pt x="196" y="476" on="1"/>
        <pt x="157" y="476" on="0"/>
        <pt x="100" y="456" on="0"/>
        <pt x="94" y="451" on="1"/>
        <pt x="85" y="444" on="0"/>
        <pt x="85" y="434" on="1"/>
        <pt x="85" y="424" on="0"/>
        <pt x="97" y="408" on="0"/>
        <pt x="106" y="408" on="1"/>
        <pt x="111" y="408" on="0"/>
        <pt x="116" y="410" on="1"/>
        <pt x="123" y="413" on="0"/>
        <pt x="157" y="426" on="0"/>
        <pt x="184" y="426" on="1"/>
        <pt x="225" y="426" on="0"/>
        <pt x="257" y="388" on="0"/>
        <pt x="257" y="361" on="1"/>
        <pt x="257" y="325" on="0"/>
        <pt x="218" y="290" on="0"/>
        <pt x="187" y="288" on="1"/>
        <pt x="172" y="287" on="0"/>
        <pt x="154" y="271" on="0"/>
        <pt x="154" y="257" on="1"/>
        <pt x="154" y="190" on="1"/>
        <pt x="154" y="176" on="0"/>
        <pt x="167" y="165" on="0"/>
        <pt x="179" y="165" on="1"/>
        <pt x="193" y="165" on="0"/>
        <pt x="209" y="176" on="0"/>
        <pt x="209" y="190" on="1"/>
      </contour>
      <contour>
        <pt x="143" y="94" on="1"/>
        <pt x="143" y="80" on="0"/>
        <pt x="164" y="58" on="0"/>
        <pt x="179" y="58" on="1"/>
        <pt x="197" y="58" on="0"/>
        <pt x="220" y="80" on="0"/>
        <pt x="220" y="94" on="1"/>
        <pt x="220" y="113" on="0"/>
        <pt x="197" y="135" on="0"/>
        <pt x="179" y="135" on="1"/>
        <pt x="164" y="135" on="0"/>
        <pt x="143" y="113" on="0"/>
      </contour>
    </TTGlyph>
    <TTGlyph name="A" xMin="0" yMin="0" xMax="480" yMax="545">
      <contour>
        <pt x="160" y="50" on="1"/>
        <pt x="160" y="0" on="1"/>
        <pt x="0" y="0" on="1"/>
        <pt x="0" y="50" on="1"/>
        <pt x="50" y="50" on="1"/>
        <pt x="211" y="545" on="1"/>
        <pt x="269" y="545" on="1"/>
        <pt x="433" y="50" on="1"/>
        <pt x="480" y="50" on="1"/>
        <pt x="480" y="0" on="1"/>
        <pt x="320" y="0" on="1"/>
        <pt x="320" y="50" on="1"/>
        <pt x="370" y="50" on="1"/>
        <pt x="321" y="200" on="1"/>
        <pt x="154" y="200" on="1"/>
        <pt x="107" y="50" on="1"/>
      </contour>
      <contour>
        <pt x="235" y="460" on="1"/>
        <pt x="169" y="250" on="1"/>
        <pt x="305" y="250" on="1"/>
        <pt x="237" y="460" on="1"/>
      </contour>
    </TTGlyph>
    <TTGlyph name="AE" xMin="-10" yMin="0" xMax="630" yMax="540">
      <contour>
        <pt x="577" y="50" on="1"/>
        <pt x="577" y="120" on="1"/>
        <pt x="630" y="120" on="1"/>
        <pt x="630" y="0" on="1"/>
        <pt x="270" y="0" on="1"/>
        <pt x="270" y="50" on="1"/>
        <pt x="330" y="50" on="1"/>
        <pt x="330" y="200" on="1"/>
        <pt x="175" y="200" on="1"/>
        <pt x="97" y="50" on="1"/>
        <pt x="140" y="50" on="1"/>
        <pt x="140" y="0" on="1"/>
        <pt x="-10" y="0" on="1"/>
        <pt x="-10" y="50" on="1"/>
        <pt x="36" y="50" on="1"/>
        <pt x="293" y="540" on="1"/>
        <pt x="620" y="540" on="1"/>
        <pt x="620" y="420" on="1"/>
        <pt x="567" y="420" on="1"/>
        <pt x="567" y="490" on="1"/>
        <pt x="390" y="490" on="1"/>
        <pt x="390" y="300" on="1"/>
        <pt x="490" y="300" on="1"/>
        <pt x="490" y="350" on="1"/>
        <pt x="540" y="350" on="1"/>
        <pt x="540" y="190" on="1"/>
        <pt x="490" y="190" on="1"/>
        <pt x="490" y="250" on="1"/>
        <pt x="390" y="250" on="1"/>
        <pt x="390" y="50" on="1"/>
      </contour>
      <contour>
        <pt x="202" y="250" on="1"/>
        <pt x="330" y="250" on="1"/>
        <pt x="330" y="490" on="1"/>
        <pt x="328" y="490" on="1"/>
      </contour>
    </TTGlyph>
    <TTGlyph name="Aacute" xMin="0" yMin="0" xMax="480" yMax="690">
      <component glyphName="A" x="0" y="0" flags="0x204"/>
      <component glyphName="uni0301.cap" x="435" y="0" flags="0x4"/>
    </TTGlyph>
    <TTGlyph name="Abreve" xMin="0" yMin="0" xMax="480" yMax="690">
      <component glyphName="A" x="0" y="0" flags="0x204"/>
      <component glyphName="uni0306.cap" x="435" y="0" flags="0x4"/>
    </TTGlyph>
    <TTGlyph name="Acircumflex" xMin="0" yMin="0" xMax="480" yMax="690">
      <component glyphName="A" x="0" y="0" flags="0x204"/>
      <component glyphName="uni0302.cap" x="435" y="0" flags="0x4"/>
    </TTGlyph>
    <TTGlyph name="Adieresis" xMin="0" yMin="0" xMax="480" yMax="663">
      <component glyphName="A" x="0" y="0" flags="0x204"/>
      <component glyphName="uni0308.cap" x="435" y="0" flags="0x4"/>
    </TTGlyph>
    <TTGlyph name="Agrave" xMin="0" yMin="0" xMax="480" yMax="690">
      <component glyphName="A" x="0" y="0" flags="0x204"/>
      <component glyphName="uni0300.cap" x="435" y="0" flags="0x4"/>
    </TTGlyph>
    <TTGlyph name="Amacron" xMin="0" yMin="0" xMax="480" yMax="637">
      <component glyphName="A" x="0" y="0" flags="0x204"/>
      <component glyphName="uni0304.cap" x="435" y="0" flags="0x4"/>
    </TTGlyph>
    <TTGlyph name="Aogonek" xMin="0" yMin="-185" xMax="480" yMax="545">
      <contour>
        <pt x="379" y="-135" on="1"/>
        <pt x="400" y="-135" on="0"/>
        <pt x="420" y="-125" on="1"/>
        <pt x="420" y="-173" on="1"/>
        <pt x="398" y="-185" on="0"/>
        <pt x="371" y="-185" on="1"/>
        <pt x="335" y="-185" on="0"/>
        <pt x="285" y="-144" on="0"/>
        <pt x="285" y="-106" on="1"/>
        <pt x="285" y="-32" on="0"/>
        <pt x="376" y="33" on="1"/>
        <pt x="321" y="200" on="1"/>
        <pt x="154" y="200" on="1"/>
        <pt x="107" y="50" on="1"/>
        <pt x="160" y="50" on="1"/>
        <pt x="160" y="0" on="1"/>
        <pt x="0" y="0" on="1"/>
        <pt x="0" y="50" on="1"/>
        <pt x="50" y="50" on="1"/>
        <pt x="211" y="545" on="1"/>
        <pt x="269" y="545" on="1"/>
        <pt x="433" y="50" on="1"/>
        <pt x="480" y="50" on="1"/>
        <pt x="480" y="0" on="1"/>
        <pt x="399" y="0" on="1"/>
        <pt x="340" y="-48" on="0"/>
        <pt x="340" y="-96" on="1"/>
        <pt x="340" y="-117" on="0"/>
        <pt x="363" y="-135" on="0"/>
      </contour>
      <contour>
        <pt x="235" y="460" on="1"/>
        <pt x="169" y="250" on="1"/>
        <pt x="305" y="250" on="1"/>
        <pt x="237" y="460" on="1"/>
      </contour>
    </TTGlyph>
    <TTGlyph name="Aring" xMin="0" yMin="0" xMax="480" yMax="700">
      <component glyphName="A" x="0" y="0" flags="0x204"/>
      <component glyphName="uni030A.cap" x="435" y="0" flags="0x4"/>
    </TTGlyph>
    <TTGlyph name="Atilde" xMin="0" yMin="0" xMax="480" yMax="655">
      <component glyphName="A" x="0" y="0" flags="0x204"/>
      <component glyphName="uni0303.cap" x="435" y="0" flags="0x4"/>
    </TTGlyph>
    <TTGlyph name="B" xMin="30" yMin="0" xMax="410" yMax="540">
      <contour>
        <pt x="307" y="292" on="1"/>
        <pt x="360" y="279" on="0"/>
        <pt x="410" y="207" on="0"/>
        <pt x="410" y="158" on="1"/>
        <pt x="410" y="84" on="0"/>
        <pt x="313" y="0" on="0"/>
        <pt x="212" y="0" on="1"/>
        <pt x="30" y="0" on="1"/>
        <pt x="30" y="50" on="1"/>
        <pt x="90" y="50" on="1"/>
        <pt x="90" y="490" on="1"/>
        <pt x="30" y="490" on="1"/>
        <pt x="30" y="540" on="1"/>
        <pt x="213" y="540" on="1"/>
        <pt x="303" y="540" on="0"/>
        <pt x="389" y="474" on="0"/>
        <pt x="389" y="412" on="1"/>
        <pt x="389" y="370" on="0"/>
        <pt x="350" y="309" on="0"/>
        <pt x="307" y="294" on="1"/>
      </contour>
      <contour>
        <pt x="214" y="50" on="1"/>
        <pt x="281" y="50" on="0"/>
        <pt x="346" y="99" on="0"/>
        <pt x="346" y="158" on="1"/>
        <pt x="346" y="210" on="0"/>
        <pt x="285" y="260" on="0"/>
        <pt x="219" y="260" on="1"/>
        <pt x="150" y="260" on="1"/>
        <pt x="150" y="50" on="1"/>
      </contour>
      <contour>
        <pt x="214" y="310" on="1"/>
        <pt x="326" y="310" on="0"/>
        <pt x="326" y="403" on="1"/>
        <pt x="326" y="450" on="0"/>
        <pt x="270" y="490" on="0"/>
        <pt x="209" y="490" on="1"/>
        <pt x="150" y="490" on="1"/>
        <pt x="150" y="310" on="1"/>
      </contour>
    </TTGlyph>
    <TTGlyph name="C" xMin="40" yMin="-10" xMax="420" yMax="550">
      <contour>
        <pt x="420" y="30" on="1"/>
        <pt x="346" y="-10" on="0"/>
        <pt x="270" y="-10" on="1"/>
        <pt x="163" y="-10" on="0"/>
        <pt x="40" y="139" on="0"/>
        <pt x="40" y="270" on="1"/>
        <pt x="40" y="400" on="0"/>
        <pt x="166" y="550" on="0"/>
        <pt x="271" y="550" on="1"/>
        <pt x="344" y="550" on="0"/>
        <pt x="420" y="518" on="1"/>
        <pt x="420" y="400" on="1"/>
        <pt x="365" y="400" on="1"/>
        <pt x="365" y="479" on="1"/>
        <pt x="325" y="495" on="0"/>
        <pt x="269" y="495" on="1"/>
        <pt x="189" y="495" on="0"/>
        <pt x="103" y="386" on="0"/>
        <pt x="103" y="274" on="1"/>
        <pt x="103" y="157" on="0"/>
        <pt x="193" y="45" on="0"/>
        <pt x="273" y="45" on="1"/>
        <pt x="340" y="45" on="0"/>
        <pt x="420" y="85" on="1"/>
      </contour>
    </TTGlyph>
    <TTGlyph name="Cacute" xMin="40" yMin="-10" xMax="420" yMax="690">
      <component glyphName="C" x="0" y="0" flags="0x204"/>
      <component glyphName="uni0301.cap" x="465" y="0" flags="0x4"/>
    </TTGlyph>
    <TTGlyph name="Ccaron" xMin="40" yMin="-10" xMax="420" yMax="690">
      <component glyphName="C" x="0" y="0" flags="0x204"/>
      <component glyphName="uni030C.cap" x="465" y="0" flags="0x4"/>
    </TTGlyph>
    <TTGlyph name="Ccedilla" xMin="40" yMin="-185" xMax="420" yMax="550">
      <component glyphName="C" x="0" y="0" flags="0x204"/>
      <component glyphName="uni0327" x="465" y="0" flags="0x4"/>
    </TTGlyph>
    <TTGlyph name="Ccircumflex" xMin="40" yMin="-10" xMax="420" yMax="690">
      <component glyphName="C" x="0" y="0" flags="0x204"/>
      <component glyphName="uni0302.cap" x="465" y="0" flags="0x4"/>
    </TTGlyph>
    <TTGlyph name="Cdotaccent" xMin="40" yMin="-10" xMax="420" yMax="665">
      <component glyphName="C" x="0" y="0" flags="0x204"/>
      <component glyphName="uni0307.cap" x="465" y="0" flags="0x4"/>
    </TTGlyph>
    <TTGlyph name="D" xMin="30" yMin="0" xMax="463" yMax="540">
      <contour>
        <pt x="30" y="50" on="1"/>
        <pt x="90" y="50" on="1"/>
        <pt x="90" y="490" on="1"/>
        <pt x="30" y="490" on="1"/>
        <pt x="30" y="540" on="1"/>
        <pt x="209" y="540" on="1"/>
        <pt x="339" y="540" on="0"/>
        <pt x="463" y="411" on="0"/>
        <pt x="463" y="284" on="1"/>
        <pt x="463" y="144" on="0"/>
        <pt x="322" y="0" on="0"/>
        <pt x="191" y="0" on="1"/>
        <pt x="30" y="0" on="1"/>
      </contour>
      <contour>
        <pt x="150" y="50" on="1"/>
        <pt x="198" y="50" on="1"/>
        <pt x="295" y="50" on="0"/>
        <pt x="400" y="160" on="0"/>
        <pt x="400" y="278" on="1"/>
        <pt x="400" y="388" on="0"/>
        <pt x="304" y="490" on="0"/>
        <pt x="198" y="490" on="1"/>
        <pt x="150" y="490" on="1"/>
      </contour>
    </TTGlyph>
    <TTGlyph name="Dcaron" xMin="30" yMin="0" xMax="463" yMax="690">
      <component glyphName="D" x="0" y="0" flags="0x204"/>
      <component glyphName="uni030C.cap" x="405" y="0" flags="0x4"/>
    </TTGlyph>
    <TTGlyph name="Dcroat" xMin="30" yMin="0" xMax="463" yMax="540">
      <contour>
        <pt x="30" y="300" on="1"/>
        <pt x="90" y="300" on="1"/>
        <pt x="90" y="490" on="1"/>
        <pt x="30" y="490" on="1"/>
        <pt x="30" y="540" on="1"/>
        <pt x="209" y="540" on="1"/>
        <pt x="339" y="540" on="0"/>
        <pt x="463" y="411" on="0"/>
        <pt x="463" y="284" on="1"/>
        <pt x="463" y="144" on="0"/>
        <pt x="322" y="0" on="0"/>
        <pt x="191" y="0" on="1"/>
        <pt x="30" y="0" on="1"/>
        <pt x="30" y="50" on="1"/>
        <pt x="90" y="50" on="1"/>
        <pt x="90" y="250" on="1"/>
        <pt x="30" y="250" on="1"/>
      </contour>
      <contour>
        <pt x="150" y="50" on="1"/>
        <pt x="198" y="50" on="1"/>
        <pt x="295" y="50" on="0"/>
        <pt x="400" y="160" on="0"/>
        <pt x="400" y="278" on="1"/>
        <pt x="400" y="388" on="0"/>
        <pt x="304" y="490" on="0"/>
        <pt x="198" y="490" on="1"/>
        <pt x="150" y="490" on="1"/>
        <pt x="150" y="300" on="1"/>
        <pt x="250" y="300" on="1"/>
        <pt x="250" y="250" on="1"/>
        <pt x="150" y="250" on="1"/>
      </contour>
    </TTGlyph>
    <TTGlyph name="E" xMin="30" yMin="0" xMax="390" yMax="540">
      <contour>
        <pt x="337" y="50" on="1"/>
        <pt x="337" y="120" on="1"/>
        <pt x="390" y="120" on="1"/>
        <pt x="390" y="0" on="1"/>
        <pt x="30" y="0" on="1"/>
        <pt x="30" y="50" on="1"/>
        <pt x="90" y="50" on="1"/>
        <pt x="90" y="490" on="1"/>
        <pt x="30" y="490" on="1"/>
        <pt x="30" y="540" on="1"/>
        <pt x="380" y="540" on="1"/>
        <pt x="380" y="420" on="1"/>
        <pt x="327" y="420" on="1"/>
        <pt x="327" y="490" on="1"/>
        <pt x="150" y="490" on="1"/>
        <pt x="150" y="300" on="1"/>
        <pt x="250" y="300" on="1"/>
        <pt x="250" y="350" on="1"/>
        <pt x="300" y="350" on="1"/>
        <pt x="300" y="190" on="1"/>
        <pt x="250" y="190" on="1"/>
        <pt x="250" y="250" on="1"/>
        <pt x="150" y="250" on="1"/>
        <pt x="150" y="50" on="1"/>
      </contour>
    </TTGlyph>
    <TTGlyph name="Eacute" xMin="30" yMin="0" xMax="390" yMax="690">
      <component glyphName="E" x="0" y="0" flags="0x204"/>
      <component glyphName="uni0301.cap" x="420" y="0" flags="0x4"/>
    </TTGlyph>
    <TTGlyph name="Ebreve" xMin="30" yMin="0" xMax="390" yMax="690">
      <component glyphName="E" x="0" y="0" flags="0x204"/>
      <component glyphName="uni0306.cap" x="420" y="0" flags="0x4"/>
    </TTGlyph>
    <TTGlyph name="Ecaron" xMin="30" yMin="0" xMax="390" yMax="690">
      <component glyphName="E" x="0" y="0" flags="0x204"/>
      <component glyphName="uni030C.cap" x="420" y="0" flags="0x4"/>
    </TTGlyph>
    <TTGlyph name="Ecircumflex" xMin="30" yMin="0" xMax="390" yMax="690">
      <component glyphName="E" x="0" y="0" flags="0x204"/>
      <component glyphName="uni0302.cap" x="420" y="0" flags="0x4"/>
    </TTGlyph>
    <TTGlyph name="Edieresis" xMin="30" yMin="0" xMax="390" yMax="663">
      <component glyphName="E" x="0" y="0" flags="0x204"/>
      <component glyphName="uni0308.cap" x="420" y="0" flags="0x4"/>
    </TTGlyph>
    <TTGlyph name="Edotaccent" xMin="30" yMin="0" xMax="390" yMax="665">
      <component glyphName="E" x="0" y="0" flags="0x204"/>
      <component glyphName="uni0307.cap" x="420" y="0" flags="0x4"/>
    </TTGlyph>
    <TTGlyph name="Egrave" xMin="30" yMin="0" xMax="390" yMax="690">
      <component glyphName="E" x="0" y="0" flags="0x204"/>
      <component glyphName="uni0300.cap" x="420" y="0" flags="0x4"/>
    </TTGlyph>
    <TTGlyph name="Emacron" xMin="30" yMin="0" xMax="390" yMax="637">
      <component glyphName="E" x="0" y="0" flags="0x204"/>
      <component glyphName="uni0304.cap" x="420" y="0" flags="0x4"/>
    </TTGlyph>
    <TTGlyph name="Eng" xMin="30" yMin="-150" xMax="510" yMax="540">
      <contour>
        <pt x="394" y="490" on="1"/>
        <pt x="334" y="490" on="1"/>
        <pt x="334" y="540" on="1"/>
        <pt x="510" y="540" on="1"/>
        <pt x="510" y="490" on="1"/>
        <pt x="450" y="490" on="1"/>
        <pt x="450" y="-17" on="1"/>
        <pt x="450" y="-80" on="0"/>
        <pt x="400" y="-150" on="0"/>
        <pt x="339" y="-150" on="1"/>
        <pt x="325" y="-150" on="0"/>
        <pt x="310" y="-147" on="1"/>
        <pt x="310" y="-95" on="1"/>
        <pt x="323" y="-96" on="0"/>
        <pt x="334" y="-96" on="1"/>
        <pt x="367" y="-96" on="0"/>
        <pt x="394" y="-66" on="0"/>
        <pt x="394" y="-20" on="1"/>
        <pt x="394" y="0" on="1"/>
        <pt x="148" y="421" on="1"/>
        <pt x="146" y="421" on="1"/>
        <pt x="146" y="50" on="1"/>
        <pt x="206" y="50" on="1"/>
        <pt x="206" y="0" on="1"/>
        <pt x="30" y="0" on="1"/>
        <pt x="30" y="50" on="1"/>
        <pt x="90" y="50" on="1"/>
        <pt x="90" y="490" on="1"/>
        <pt x="30" y="490" on="1"/>
        <pt x="30" y="540" on="1"/>
        <pt x="150" y="540" on="1"/>
        <pt x="392" y="125" on="1"/>
        <pt x="394" y="125" on="1"/>
      </contour>
    </TTGlyph>
    <TTGlyph name="Eogonek" xMin="30" yMin="-185" xMax="390" yMax="540">
      <component glyphName="E" x="0" y="0" flags="0x204"/>
      <component glyphName="uni0328" x="420" y="0" flags="0x4"/>
    </TTGlyph>
    <TTGlyph name="Eth" xMin="30" yMin="0" xMax="463" yMax="540">
      <component glyphName="Dcroat" x="0" y="0" flags="0x204"/>
    </TTGlyph>
    <TTGlyph name="Euro" xMin="19" yMin="-10" xMax="420" yMax="550">
      <contour>
        <pt x="28" y="240" on="1"/>
        <pt x="71" y="240" on="1"/>
        <pt x="70" y="254" on="0"/>
        <pt x="70" y="269" on="1"/>
        <pt x="70" y="283" on="0"/>
        <pt x="71" y="300" on="1"/>
        <pt x="22" y="300" on="1"/>
        <pt x="30" y="345" on="1"/>
        <pt x="76" y="345" on="1"/>
        <pt x="93" y="442" on="0"/>
        <pt x="209" y="550" on="0"/>
        <pt x="299" y="550" on="1"/>
        <pt x="364" y="550" on="0"/>
        <pt x="420" y="528" on="1"/>
        <pt x="420" y="435" on="1"/>
        <pt x="370" y="435" on="1"/>
        <pt x="370" y="490" on="1"/>
        <pt x="341" y="500" on="0"/>
        <pt x="298" y="500" on="1"/>
        <pt x="160" y="500" on="0"/>
        <pt x="137" y="345" on="1"/>
        <pt x="362" y="345" on="1"/>
        <pt x="352" y="300" on="1"/>
        <pt x="133" y="300" on="1"/>
        <pt x="132" y="288" on="0"/>
        <pt x="132" y="274" on="1"/>
        <pt x="132" y="257" on="0"/>
        <pt x="133" y="240" on="1"/>
        <pt x="340" y="240" on="1"/>
        <pt x="330" y="195" on="1"/>
        <pt x="138" y="195" on="1"/>
        <pt x="151" y="117" on="0"/>
        <pt x="234" y="40" on="0"/>
        <pt x="300" y="40" on="1"/>
        <pt x="353" y="40" on="0"/>
        <pt x="420" y="63" on="1"/>
        <pt x="420" y="13" on="1"/>
        <pt x="359" y="-10" on="0"/>
        <pt x="297" y="-10" on="1"/>
        <pt x="206" y="-10" on="0"/>
        <pt x="92" y="95" on="0"/>
        <pt x="75" y="195" on="1"/>
        <pt x="19" y="195" on="1"/>
      </contour>
    </TTGlyph>
    <TTGlyph name="F" xMin="30" yMin="0" xMax="380" yMax="540">
      <contour>
        <pt x="150" y="240" on="1"/>
        <pt x="150" y="50" on="1"/>
        <pt x="220" y="50" on="1"/>
        <pt x="220" y="0" on="1"/>
        <pt x="30" y="0" on="1"/>
        <pt x="30" y="50" on="1"/>
        <pt x="90" y="50" on="1"/>
        <pt x="90" y="490" on="1"/>
        <pt x="30" y="490" on="1"/>
        <pt x="30" y="540" on="1"/>
        <pt x="380" y="540" on="1"/>
        <pt x="380" y="420" on="1"/>
        <pt x="327" y="420" on="1"/>
        <pt x="327" y="490" on="1"/>
        <pt x="150" y="490" on="1"/>
        <pt x="150" y="290" on="1"/>
        <pt x="260" y="290" on="1"/>
        <pt x="260" y="340" on="1"/>
        <pt x="310" y="340" on="1"/>
        <pt x="310" y="180" on="1"/>
        <pt x="260" y="180" on="1"/>
        <pt x="260" y="240" on="1"/>
      </contour>
    </TTGlyph>
    <TTGlyph name="G" xMin="40" yMin="-10" xMax="480" yMax="550">
      <contour>
        <pt x="310" y="250" on="1"/>
        <pt x="480" y="250" on="1"/>
        <pt x="480" y="200" on="1"/>
        <pt x="440" y="200" on="1"/>
        <pt x="440" y="25" on="1"/>
        <pt x="365" y="-10" on="0"/>
        <pt x="284" y="-10" on="1"/>
        <pt x="168" y="-10" on="0"/>
        <pt x="40" y="139" on="0"/>
        <pt x="40" y="270" on="1"/>
        <pt x="40" y="400" on="0"/>
        <pt x="172" y="550" on="0"/>
        <pt x="283" y="550" on="1"/>
        <pt x="360" y="550" on="0"/>
        <pt x="440" y="518" on="1"/>
        <pt x="440" y="390" on="1"/>
        <pt x="385" y="390" on="1"/>
        <pt x="385" y="479" on="1"/>
        <pt x="341" y="495" on="0"/>
        <pt x="281" y="495" on="1"/>
        <pt x="195" y="495" on="0"/>
        <pt x="103" y="386" on="0"/>
        <pt x="103" y="274" on="1"/>
        <pt x="103" y="157" on="0"/>
        <pt x="199" y="45" on="0"/>
        <pt x="286" y="45" on="1"/>
        <pt x="332" y="45" on="0"/>
        <pt x="381" y="59" on="1"/>
        <pt x="381" y="200" on="1"/>
        <pt x="310" y="200" on="1"/>
      </contour>
    </TTGlyph>
    <TTGlyph name="Gbreve" xMin="40" yMin="-10" xMax="480" yMax="690">
      <component glyphName="G" x="0" y="0" flags="0x204"/>
      <component glyphName="uni0306.cap" x="480" y="0" flags="0x4"/>
    </TTGlyph>
    <TTGlyph name="Gcircumflex" xMin="40" yMin="-10" xMax="480" yMax="690">
      <component glyphName="G" x="0" y="0" flags="0x204"/>
      <component glyphName="uni0302.cap" x="480" y="0" flags="0x4"/>
    </TTGlyph>
    <TTGlyph name="Gcommaaccent" xMin="40" yMin="-160" xMax="480" yMax="550">
      <component glyphName="G" x="0" y="0" flags="0x204"/>
      <component glyphName="uni0326" x="480" y="0" flags="0x4"/>
    </TTGlyph>
    <TTGlyph name="Gdotaccent" xMin="40" yMin="-10" xMax="480" yMax="665">
      <component glyphName="G" x="0" y="0" flags="0x204"/>
      <component glyphName="uni0307.cap" x="480" y="0" flags="0x4"/>
    </TTGlyph>
    <TTGlyph name="H" xMin="30" yMin="0" xMax="540" yMax="540">
      <contour>
        <pt x="30" y="50" on="1"/>
        <pt x="90" y="50" on="1"/>
        <pt x="90" y="490" on="1"/>
        <pt x="30" y="490" on="1"/>
        <pt x="30" y="540" on="1"/>
        <pt x="210" y="540" on="1"/>
        <pt x="210" y="490" on="1"/>
        <pt x="150" y="490" on="1"/>
        <pt x="150" y="300" on="1"/>
        <pt x="420" y="300" on="1"/>
        <pt x="420" y="490" on="1"/>
        <pt x="360" y="490" on="1"/>
        <pt x="360" y="540" on="1"/>
        <pt x="540" y="540" on="1"/>
        <pt x="540" y="490" on="1"/>
        <pt x="480" y="490" on="1"/>
        <pt x="480" y="50" on="1"/>
        <pt x="540" y="50" on="1"/>
        <pt x="540" y="0" on="1"/>
        <pt x="360" y="0" on="1"/>
        <pt x="360" y="50" on="1"/>
        <pt x="420" y="50" on="1"/>
        <pt x="420" y="250" on="1"/>
        <pt x="150" y="250" on="1"/>
        <pt x="150" y="50" on="1"/>
        <pt x="210" y="50" on="1"/>
        <pt x="210" y="0" on="1"/>
        <pt x="30" y="0" on="1"/>
      </contour>
    </TTGlyph>
    <TTGlyph name="Hbar" xMin="30" yMin="0" xMax="540" yMax="540">
      <contour>
        <pt x="540" y="365" on="1"/>
        <pt x="480" y="365" on="1"/>
        <pt x="480" y="50" on="1"/>
        <pt x="540" y="50" on="1"/>
        <pt x="540" y="0" on="1"/>
        <pt x="360" y="0" on="1"/>
        <pt x="360" y="50" on="1"/>
        <pt x="420" y="50" on="1"/>
        <pt x="420" y="240" on="1"/>
        <pt x="150" y="240" on="1"/>
        <pt x="150" y="50" on="1"/>
        <pt x="210" y="50" on="1"/>
        <pt x="210" y="0" on="1"/>
        <pt x="30" y="0" on="1"/>
        <pt x="30" y="50" on="1"/>
        <pt x="90" y="50" on="1"/>
        <pt x="90" y="365" on="1"/>
        <pt x="30" y="365" on="1"/>
        <pt x="30" y="415" on="1"/>
        <pt x="90" y="415" on="1"/>
        <pt x="90" y="490" on="1"/>
        <pt x="30" y="490" on="1"/>
        <pt x="30" y="540" on="1"/>
        <pt x="210" y="540" on="1"/>
        <pt x="210" y="490" on="1"/>
        <pt x="150" y="490" on="1"/>
        <pt x="150" y="415" on="1"/>
        <pt x="420" y="415" on="1"/>
        <pt x="420" y="490" on="1"/>
        <pt x="360" y="490" on="1"/>
        <pt x="360" y="540" on="1"/>
        <pt x="540" y="540" on="1"/>
        <pt x="540" y="490" on="1"/>
        <pt x="480" y="490" on="1"/>
        <pt x="480" y="415" on="1"/>
        <pt x="540" y="415" on="1"/>
      </contour>
      <contour>
        <pt x="420" y="290" on="1"/>
        <pt x="420" y="365" on="1"/>
        <pt x="150" y="365" on="1"/>
        <pt x="150" y="290" on="1"/>
      </contour>
    </TTGlyph>
    <TTGlyph name="Hcircumflex" xMin="30" yMin="0" xMax="540" yMax="690">
      <component glyphName="H" x="0" y="0" flags="0x204"/>
      <component glyphName="uni0302.cap" x="480" y="0" flags="0x4"/>
    </TTGlyph>
    <TTGlyph name="I" xMin="30" yMin="0" xMax="210" yMax="540">
      <contour>
        <pt x="30" y="50" on="1"/>
        <pt x="90" y="50" on="1"/>
        <pt x="90" y="490" on="1"/>
        <pt x="30" y="490" on="1"/>
        <pt x="30" y="540" on="1"/>
        <pt x="210" y="540" on="1"/>
        <pt x="210" y="490" on="1"/>
        <pt x="150" y="490" on="1"/>
        <pt x="150" y="50" on="1"/>
        <pt x="210" y="50" on="1"/>
        <pt x="210" y="0" on="1"/>
        <pt x="30" y="0" on="1"/>
      </contour>
    </TTGlyph>
    <TTGlyph name="IJ" xMin="30" yMin="-150" xMax="450" yMax="540">
      <component glyphName="I" x="0" y="0" flags="0x4"/>
      <component glyphName="J" x="240" y="0" flags="0x4"/>
    </TTGlyph>
    <TTGlyph name="Iacute" xMin="30" yMin="0" xMax="225" yMax="690">
      <component glyphName="I" x="0" y="0" flags="0x204"/>
      <component glyphName="uni0301.cap" x="315" y="0" flags="0x4"/>
    </TTGlyph>
    <TTGlyph name="Ibreve" xMin="12" yMin="0" xMax="228" yMax="690">
      <component glyphName="I" x="0" y="0" flags="0x204"/>
      <component glyphName="uni0306.cap" x="315" y="0" flags="0x4"/>
    </TTGlyph>
    <TTGlyph name="Icircumflex" xMin="10" yMin="0" xMax="230" yMax="690">
      <component glyphName="I" x="0" y="0" flags="0x204"/>
      <component glyphName="uni0302.cap" x="315" y="0" flags="0x4"/>
    </TTGlyph>
    <TTGlyph name="Idieresis" xMin="5" yMin="0" xMax="235" yMax="663">
      <component glyphName="I" x="0" y="0" flags="0x204"/>
      <component glyphName="uni0308.cap" x="315" y="0" flags="0x4"/>
    </TTGlyph>
    <TTGlyph name="Idotaccent" xMin="30" yMin="0" xMax="210" yMax="665">
      <component glyphName="I" x="0" y="0" flags="0x204"/>
      <component glyphName="uni0307.cap" x="315" y="0" flags="0x4"/>
    </TTGlyph>
    <TTGlyph name="Igrave" xMin="15" yMin="0" xMax="210" yMax="690">
      <component glyphName="I" x="0" y="0" flags="0x204"/>
      <component glyphName="uni0300.cap" x="315" y="0" flags="0x4"/>
    </TTGlyph>
    <TTGlyph name="Imacron" xMin="25" yMin="0" xMax="215" yMax="637">
      <component glyphName="I" x="0" y="0" flags="0x204"/>
      <component glyphName="uni0304.cap" x="315" y="0" flags="0x4"/>
    </TTGlyph>
    <TTGlyph name="Iogonek" xMin="30" yMin="-185" xMax="210" yMax="540">
      <component glyphName="I" x="0" y="0" flags="0x204"/>
      <component glyphName="uni0328" x="240" y="0" flags="0x4"/>
    </TTGlyph>
    <TTGlyph name="Itilde" xMin="15" yMin="0" xMax="225" yMax="655">
      <component glyphName="I" x="0" y="0" flags="0x204"/>
      <component glyphName="uni0303.cap" x="315" y="0" flags="0x4"/>
    </TTGlyph>
    <TTGlyph name="J" xMin="6" yMin="-150" xMax="210" yMax="540">
      <contour>
        <pt x="6" y="-95" on="1"/>
        <pt x="19" y="-96" on="0"/>
        <pt x="30" y="-96" on="1"/>
        <pt x="63" y="-96" on="0"/>
        <pt x="90" y="-66" on="0"/>
        <pt x="90" y="-20" on="1"/>
        <pt x="90" y="490" on="1"/>
        <pt x="30" y="490" on="1"/>
        <pt x="30" y="540" on="1"/>
        <pt x="210" y="540" on="1"/>
        <pt x="210" y="490" on="1"/>
        <pt x="150" y="490" on="1"/>
        <pt x="150" y="-13" on="1"/>
        <pt x="150" y="-80" on="0"/>
        <pt x="99" y="-150" on="0"/>
        <pt x="36" y="-150" on="1"/>
        <pt x="21" y="-150" on="0"/>
        <pt x="6" y="-147" on="1"/>
      </contour>
    </TTGlyph>
    <TTGlyph name="Jcircumflex" xMin="6" yMin="-150" xMax="230" yMax="690">
      <component glyphName="J" x="0" y="0" flags="0x204"/>
      <component glyphName="uni0302.cap" x="315" y="0" flags="0x4"/>
    </TTGlyph>
    <TTGlyph name="K" xMin="30" yMin="0" xMax="480" yMax="540">
      <contour>
        <pt x="300" y="490" on="1"/>
        <pt x="300" y="540" on="1"/>
        <pt x="460" y="540" on="1"/>
        <pt x="460" y="490" on="1"/>
        <pt x="410" y="490" on="1"/>
        <pt x="226" y="286" on="1"/>
        <pt x="419" y="50" on="1"/>
        <pt x="480" y="50" on="1"/>
        <pt x="480" y="0" on="1"/>
        <pt x="300" y="0" on="1"/>
        <pt x="300" y="50" on="1"/>
        <pt x="341" y="50" on="1"/>
        <pt x="341" y="52" on="1"/>
        <pt x="155" y="281" on="1"/>
        <pt x="342" y="488" on="1"/>
        <pt x="342" y="490" on="1"/>
      </contour>
      <contour>
        <pt x="30" y="50" on="1"/>
        <pt x="90" y="50" on="1"/>
        <pt x="90" y="490" on="1"/>
        <pt x="30" y="490" on="1"/>
        <pt x="30" y="540" on="1"/>
        <pt x="210" y="540" on="1"/>
        <pt x="210" y="490" on="1"/>
        <pt x="150" y="490" on="1"/>
        <pt x="150" y="50" on="1"/>
        <pt x="210" y="50" on="1"/>
        <pt x="210" y="0" on="1"/>
        <pt x="30" y="0" on="1"/>
      </contour>
    </TTGlyph>
    <TTGlyph name="Kcommaaccent" xMin="30" yMin="-160" xMax="480" yMax="540">
      <component glyphName="K" x="0" y="0" flags="0x204"/>
      <component glyphName="uni0326" x="450" y="0" flags="0x4"/>
    </TTGlyph>
    <TTGlyph name="L" xMin="30" yMin="0" xMax="370" yMax="540">
      <contour>
        <pt x="210" y="490" on="1"/>
        <pt x="150" y="490" on="1"/>
        <pt x="150" y="50" on="1"/>
        <pt x="317" y="50" on="1"/>
        <pt x="317" y="120" on="1"/>
        <pt x="370" y="120" on="1"/>
        <pt x="370" y="0" on="1"/>
        <pt x="30" y="0" on="1"/>
        <pt x="30" y="50" on="1"/>
        <pt x="90" y="50" on="1"/>
        <pt x="90" y="490" on="1"/>
        <pt x="30" y="490" on="1"/>
        <pt x="30" y="540" on="1"/>
        <pt x="210" y="540" on="1"/>
      </contour>
    </TTGlyph>
    <TTGlyph name="Lacute" xMin="30" yMin="0" xMax="370" yMax="690">
      <component glyphName="L" x="0" y="0" flags="0x204"/>
      <component glyphName="uni0301.cap" x="315" y="0" flags="0x4"/>
    </TTGlyph>
    <TTGlyph name="Lcaron" xMin="30" yMin="0" xMax="370" yMax="550">
      <component glyphName="L" x="0" y="0" flags="0x204"/>
      <component glyphName="uni0315.cap" x="390" y="0" flags="0x4"/>
    </TTGlyph>
    <TTGlyph name="Lcommaaccent" xMin="30" yMin="-160" xMax="370" yMax="540">
      <component glyphName="L" x="0" y="0" flags="0x204"/>
      <component glyphName="uni0326" x="405" y="0" flags="0x4"/>
    </TTGlyph>
    <TTGlyph name="Ldot" xMin="30" yMin="0" xMax="370" yMax="540">
      <contour>
        <pt x="210" y="490" on="1"/>
        <pt x="150" y="490" on="1"/>
        <pt x="150" y="50" on="1"/>
        <pt x="317" y="50" on="1"/>
        <pt x="317" y="120" on="1"/>
        <pt x="370" y="120" on="1"/>
        <pt x="370" y="0" on="1"/>
        <pt x="30" y="0" on="1"/>
        <pt x="30" y="50" on="1"/>
        <pt x="90" y="50" on="1"/>
        <pt x="90" y="490" on="1"/>
        <pt x="30" y="490" on="1"/>
        <pt x="30" y="540" on="1"/>
        <pt x="210" y="540" on="1"/>
      </contour>
      <contour>
        <pt x="273" y="299" on="1"/>
        <pt x="273" y="320" on="0"/>
        <pt x="295" y="343" on="0"/>
        <pt x="315" y="343" on="1"/>
        <pt x="334" y="343" on="0"/>
        <pt x="357" y="320" on="0"/>
        <pt x="357" y="301" on="1"/>
        <pt x="357" y="281" on="0"/>
        <pt x="334" y="258" on="0"/>
        <pt x="314" y="258" on="1"/>
        <pt x="295" y="258" on="0"/>
        <pt x="273" y="281" on="0"/>
      </contour>
    </TTGlyph>
    <TTGlyph name="Lslash" xMin="30" yMin="0" xMax="370" yMax="540">
      <contour>
        <pt x="210" y="490" on="1"/>
        <pt x="150" y="490" on="1"/>
        <pt x="150" y="309" on="1"/>
        <pt x="270" y="370" on="1"/>
        <pt x="270" y="315" on="1"/>
        <pt x="150" y="254" on="1"/>
        <pt x="150" y="50" on="1"/>
        <pt x="317" y="50" on="1"/>
        <pt x="317" y="120" on="1"/>
        <pt x="370" y="120" on="1"/>
        <pt x="370" y="0" on="1"/>
        <pt x="30" y="0" on="1"/>
        <pt x="30" y="50" on="1"/>
        <pt x="90" y="50" on="1"/>
        <pt x="90" y="227" on="1"/>
        <pt x="30" y="197" on="1"/>
        <pt x="30" y="252" on="1"/>
        <pt x="90" y="282" on="1"/>
        <pt x="90" y="490" on="1"/>
        <pt x="30" y="490" on="1"/>
        <pt x="30" y="540" on="1"/>
        <pt x="210" y="540" on="1"/>
      </contour>
    </TTGlyph>
    <TTGlyph name="M" xMin="20" yMin="-5" xMax="670" yMax="540">
      <contour>
        <pt x="539" y="453" on="1"/>
        <pt x="364" y="-5" on="1"/>
        <pt x="318" y="-5" on="1"/>
        <pt x="144" y="444" on="1"/>
        <pt x="142" y="444" on="1"/>
        <pt x="132" y="50" on="1"/>
        <pt x="180" y="50" on="1"/>
        <pt x="180" y="0" on="1"/>
        <pt x="20" y="0" on="1"/>
        <pt x="20" y="50" on="1"/>
        <pt x="77" y="50" on="1"/>
        <pt x="90" y="490" on="1"/>
        <pt x="31" y="490" on="1"/>
        <pt x="31" y="540" on="1"/>
        <pt x="171" y="540" on="1"/>
        <pt x="344" y="93" on="1"/>
        <pt x="346" y="93" on="1"/>
        <pt x="516" y="540" on="1"/>
        <pt x="657" y="540" on="1"/>
        <pt x="657" y="490" on="1"/>
        <pt x="600" y="490" on="1"/>
        <pt x="611" y="50" on="1"/>
        <pt x="670" y="50" on="1"/>
        <pt x="670" y="0" on="1"/>
        <pt x="500" y="0" on="1"/>
        <pt x="500" y="50" on="1"/>
        <pt x="551" y="50" on="1"/>
        <pt x="541" y="453" on="1"/>
      </contour>
    </TTGlyph>
    <TTGlyph name="N" xMin="30" yMin="0" xMax="510" yMax="540">
      <contour>
        <pt x="394" y="490" on="1"/>
        <pt x="334" y="490" on="1"/>
        <pt x="334" y="540" on="1"/>
        <pt x="510" y="540" on="1"/>
        <pt x="510" y="490" on="1"/>
        <pt x="450" y="490" on="1"/>
        <pt x="450" y="0" on="1"/>
        <pt x="392" y="0" on="1"/>
        <pt x="148" y="421" on="1"/>
        <pt x="146" y="421" on="1"/>
        <pt x="146" y="50" on="1"/>
        <pt x="206" y="50" on="1"/>
        <pt x="206" y="0" on="1"/>
        <pt x="30" y="0" on="1"/>
        <pt x="30" y="50" on="1"/>
        <pt x="90" y="50" on="1"/>
        <pt x="90" y="490" on="1"/>
        <pt x="30" y="490" on="1"/>
        <pt x="30" y="540" on="1"/>
        <pt x="150" y="540" on="1"/>
        <pt x="392" y="124" on="1"/>
        <pt x="394" y="124" on="1"/>
      </contour>
    </TTGlyph>
    <TTGlyph name="Nacute" xMin="30" yMin="0" xMax="510" yMax="690">
      <component glyphName="N" x="0" y="0" flags="0x204"/>
      <component glyphName="uni0301.cap" x="465" y="0" flags="0x4"/>
    </TTGlyph>
    <TTGlyph name="Ncaron" xMin="30" yMin="0" xMax="510" yMax="690">
      <component glyphName="N" x="0" y="0" flags="0x204"/>
      <component glyphName="uni030C.cap" x="465" y="0" flags="0x4"/>
    </TTGlyph>
    <TTGlyph name="Ncommaaccent" xMin="30" yMin="-160" xMax="510" yMax="540">
      <component glyphName="N" x="0" y="0" flags="0x204"/>
      <component glyphName="uni0326" x="465" y="0" flags="0x4"/>
    </TTGlyph>
    <TTGlyph name="Ntilde" xMin="30" yMin="0" xMax="510" yMax="655">
      <component glyphName="N" x="0" y="0" flags="0x204"/>
      <component glyphName="uni0303.cap" x="465" y="0" flags="0x4"/>
    </TTGlyph>
    <TTGlyph name="O" xMin="47" yMin="-10" xMax="463" yMax="550">
      <contour>
        <pt x="47" y="271" on="1"/>
        <pt x="47" y="401" on="0"/>
        <pt x="162" y="550" on="0"/>
        <pt x="260" y="550" on="1"/>
        <pt x="356" y="550" on="0"/>
        <pt x="463" y="406" on="0"/>
        <pt x="463" y="278" on="1"/>
        <pt x="463" y="142" on="0"/>
        <pt x="348" y="-10" on="0"/>
        <pt x="252" y="-10" on="1"/>
        <pt x="159" y="-10" on="0"/>
        <pt x="47" y="139" on="0"/>
      </contour>
      <contour>
        <pt x="110" y="274" on="1"/>
        <pt x="110" y="162" on="0"/>
        <pt x="187" y="45" on="0"/>
        <pt x="255" y="45" on="1"/>
        <pt x="323" y="45" on="0"/>
        <pt x="400" y="162" on="0"/>
        <pt x="400" y="275" on="1"/>
        <pt x="400" y="384" on="0"/>
        <pt x="327" y="495" on="0"/>
        <pt x="257" y="495" on="1"/>
        <pt x="186" y="495" on="0"/>
        <pt x="110" y="387" on="0"/>
      </contour>
    </TTGlyph>
    <TTGlyph name="OE" xMin="47" yMin="-10" xMax="660" yMax="550">
      <contour>
        <pt x="607" y="50" on="1"/>
        <pt x="607" y="120" on="1"/>
        <pt x="660" y="120" on="1"/>
        <pt x="660" y="0" on="1"/>
        <pt x="360" y="0" on="1"/>
        <pt x="360" y="14" on="1"/>
        <pt x="319" y="-10" on="0"/>
        <pt x="263" y="-10" on="1"/>
        <pt x="162" y="-10" on="0"/>
        <pt x="47" y="137" on="0"/>
        <pt x="47" y="269" on="1"/>
        <pt x="47" y="402" on="0"/>
        <pt x="165" y="550" on="0"/>
        <pt x="269" y="550" on="1"/>
        <pt x="319" y="550" on="0"/>
        <pt x="360" y="532" on="1"/>
        <pt x="360" y="540" on="1"/>
        <pt x="650" y="540" on="1"/>
        <pt x="650" y="420" on="1"/>
        <pt x="597" y="420" on="1"/>
        <pt x="597" y="490" on="1"/>
        <pt x="420" y="490" on="1"/>
        <pt x="420" y="300" on="1"/>
        <pt x="520" y="300" on="1"/>
        <pt x="520" y="350" on="1"/>
        <pt x="570" y="350" on="1"/>
        <pt x="570" y="190" on="1"/>
        <pt x="520" y="190" on="1"/>
        <pt x="520" y="250" on="1"/>
        <pt x="420" y="250" on="1"/>
        <pt x="420" y="50" on="1"/>
      </contour>
      <contour>
        <pt x="267" y="495" on="1"/>
        <pt x="189" y="495" on="0"/>
        <pt x="110" y="388" on="0"/>
        <pt x="110" y="275" on="1"/>
        <pt x="110" y="163" on="0"/>
        <pt x="189" y="45" on="0"/>
        <pt x="265" y="45" on="1"/>
        <pt x="322" y="45" on="0"/>
        <pt x="360" y="74" on="1"/>
        <pt x="360" y="471" on="1"/>
        <pt x="322" y="495" on="0"/>
      </contour>
    </TTGlyph>
    <TTGlyph name="Oacute" xMin="47" yMin="-10" xMax="463" yMax="690">
      <component glyphName="O" x="0" y="0" flags="0x204"/>
      <component glyphName="uni0301.cap" x="450" y="0" flags="0x4"/>
    </TTGlyph>
    <TTGlyph name="Obreve" xMin="47" yMin="-10" xMax="463" yMax="690">
      <component glyphName="O" x="0" y="0" flags="0x204"/>
      <component glyphName="uni0306.cap" x="450" y="0" flags="0x4"/>
    </TTGlyph>
    <TTGlyph name="Ocircumflex" xMin="47" yMin="-10" xMax="463" yMax="690">
      <component glyphName="O" x="0" y="0" flags="0x204"/>
      <component glyphName="uni0302.cap" x="450" y="0" flags="0x4"/>
    </TTGlyph>
    <TTGlyph name="Odieresis" xMin="47" yMin="-10" xMax="463" yMax="663">
      <component glyphName="O" x="0" y="0" flags="0x204"/>
      <component glyphName="uni0308.cap" x="450" y="0" flags="0x4"/>
    </TTGlyph>
    <TTGlyph name="Ograve" xMin="47" yMin="-10" xMax="463" yMax="690">
      <component glyphName="O" x="0" y="0" flags="0x204"/>
      <component glyphName="uni0300.cap" x="450" y="0" flags="0x4"/>
    </TTGlyph>
    <TTGlyph name="Ohungarumlaut" xMin="47" yMin="-10" xMax="463" yMax="690">
      <component glyphName="O" x="0" y="0" flags="0x204"/>
      <component glyphName="uni030B.cap" x="450" y="0" flags="0x4"/>
    </TTGlyph>
    <TTGlyph name="Omacron" xMin="47" yMin="-10" xMax="463" yMax="637">
      <component glyphName="O" x="0" y="0" flags="0x204"/>
      <component glyphName="uni0304.cap" x="450" y="0" flags="0x4"/>
    </TTGlyph>
    <TTGlyph name="Oslash" xMin="47" yMin="-35" xMax="463" yMax="575">
      <contour>
        <pt x="47" y="271" on="1"/>
        <pt x="47" y="401" on="0"/>
        <pt x="162" y="550" on="0"/>
        <pt x="260" y="550" on="1"/>
        <pt x="327" y="550" on="0"/>
        <pt x="375" y="514" on="1"/>
        <pt x="412" y="575" on="1"/>
        <pt x="450" y="552" on="1"/>
        <pt x="407" y="481" on="1"/>
        <pt x="463" y="409" on="0"/>
        <pt x="463" y="278" on="1"/>
        <pt x="463" y="142" on="0"/>
        <pt x="348" y="-10" on="0"/>
        <pt x="252" y="-10" on="1"/>
        <pt x="183" y="-10" on="0"/>
        <pt x="137" y="30" on="1"/>
        <pt x="98" y="-35" on="1"/>
        <pt x="60" y="-12" on="1"/>
        <pt x="105" y="63" on="1"/>
        <pt x="47" y="136" on="0"/>
      </contour>
      <contour>
        <pt x="110" y="274" on="1"/>
        <pt x="110" y="176" on="0"/>
        <pt x="139" y="120" on="1"/>
        <pt x="344" y="463" on="1"/>
        <pt x="310" y="495" on="0"/>
        <pt x="257" y="495" on="1"/>
        <pt x="186" y="495" on="0"/>
        <pt x="110" y="387" on="0"/>
      </contour>
      <contour>
        <pt x="255" y="45" on="1"/>
        <pt x="323" y="45" on="0"/>
        <pt x="400" y="162" on="0"/>
        <pt x="400" y="275" on="1"/>
        <pt x="400" y="369" on="0"/>
        <pt x="373" y="423" on="1"/>
        <pt x="167" y="80" on="1"/>
        <pt x="203" y="45" on="0"/>
      </contour>
    </TTGlyph>
    <TTGlyph name="Otilde" xMin="47" yMin="-10" xMax="463" yMax="655">
      <component glyphName="O" x="0" y="0" flags="0x204"/>
      <component glyphName="uni0303.cap" x="450" y="0" flags="0x4"/>
    </TTGlyph>
    <TTGlyph name="P" xMin="30" yMin="0" xMax="383" yMax="540">
      <contour>
        <pt x="150" y="220" on="1"/>
        <pt x="150" y="50" on="1"/>
        <pt x="220" y="50" on="1"/>
        <pt x="220" y="0" on="1"/>
        <pt x="30" y="0" on="1"/>
        <pt x="30" y="50" on="1"/>
        <pt x="90" y="50" on="1"/>
        <pt x="90" y="490" on="1"/>
        <pt x="30" y="490" on="1"/>
        <pt x="30" y="540" on="1"/>
        <pt x="211" y="540" on="1"/>
        <pt x="299" y="540" on="0"/>
        <pt x="383" y="463" on="0"/>
        <pt x="383" y="390" on="1"/>
        <pt x="383" y="307" on="0"/>
        <pt x="288" y="220" on="0"/>
        <pt x="197" y="220" on="1"/>
      </contour>
      <contour>
        <pt x="200" y="270" on="1"/>
        <pt x="258" y="270" on="0"/>
        <pt x="320" y="323" on="0"/>
        <pt x="320" y="383" on="1"/>
        <pt x="320" y="444" on="0"/>
        <pt x="264" y="490" on="0"/>
        <pt x="205" y="490" on="1"/>
        <pt x="150" y="490" on="1"/>
        <pt x="150" y="270" on="1"/>
      </contour>
    </TTGlyph>
    <TTGlyph name="Q" xMin="47" yMin="-150" xMax="570" yMax="550">
      <contour>
        <pt x="47" y="271" on="1"/>
        <pt x="47" y="401" on="0"/>
        <pt x="163" y="550" on="0"/>
        <pt x="260" y="550" on="1"/>
        <pt x="355" y="550" on="0"/>
        <pt x="463" y="406" on="0"/>
        <pt x="463" y="278" on="1"/>
        <pt x="463" y="159" on="0"/>
        <pt x="379" y="19" on="0"/>
        <pt x="317" y="1" on="1"/>
        <pt x="317" y="-1" on="1"/>
        <pt x="343" y="-48" on="0"/>
        <pt x="427" y="-98" on="0"/>
        <pt x="477" y="-98" on="1"/>
        <pt x="525" y="-98" on="0"/>
        <pt x="570" y="-79" on="1"/>
        <pt x="570" y="-130" on="1"/>
        <pt x="523" y="-150" on="0"/>
        <pt x="470" y="-150" on="1"/>
        <pt x="401" y="-150" on="0"/>
        <pt x="284" y="-73" on="0"/>
        <pt x="248" y="-10" on="1"/>
        <pt x="157" y="-7" on="0"/>
        <pt x="47" y="140" on="0"/>
      </contour>
      <contour>
        <pt x="110" y="274" on="1"/>
        <pt x="110" y="162" on="0"/>
        <pt x="187" y="45" on="0"/>
        <pt x="255" y="45" on="1"/>
        <pt x="323" y="45" on="0"/>
        <pt x="400" y="162" on="0"/>
        <pt x="400" y="275" on="1"/>
        <pt x="400" y="384" on="0"/>
        <pt x="328" y="495" on="0"/>
        <pt x="257" y="495" on="1"/>
        <pt x="186" y="495" on="0"/>
        <pt x="110" y="387" on="0"/>
      </contour>
    </TTGlyph>
    <TTGlyph name="R" xMin="30" yMin="0" xMax="450" yMax="540">
      <contour>
        <pt x="150" y="50" on="1"/>
        <pt x="210" y="50" on="1"/>
        <pt x="210" y="0" on="1"/>
        <pt x="30" y="0" on="1"/>
        <pt x="30" y="50" on="1"/>
        <pt x="90" y="50" on="1"/>
        <pt x="90" y="490" on="1"/>
        <pt x="37" y="490" on="1"/>
        <pt x="37" y="540" on="1"/>
        <pt x="211" y="540" on="1"/>
        <pt x="304" y="540" on="0"/>
        <pt x="390" y="472" on="0"/>
        <pt x="390" y="405" on="1"/>
        <pt x="390" y="286" on="0"/>
        <pt x="264" y="259" on="1"/>
        <pt x="264" y="257" on="1"/>
        <pt x="278" y="249" on="0"/>
        <pt x="310" y="216" on="0"/>
        <pt x="334" y="171" on="1"/>
        <pt x="400" y="50" on="1"/>
        <pt x="450" y="50" on="1"/>
        <pt x="450" y="0" on="1"/>
        <pt x="354" y="0" on="1"/>
        <pt x="342" y="27" on="0"/>
        <pt x="320" y="69" on="0"/>
        <pt x="310" y="87" on="1"/>
        <pt x="273" y="156" on="1"/>
        <pt x="253" y="191" on="0"/>
        <pt x="229" y="227" on="0"/>
        <pt x="214" y="239" on="1"/>
        <pt x="199" y="250" on="0"/>
        <pt x="175" y="250" on="1"/>
        <pt x="150" y="250" on="1"/>
      </contour>
      <contour>
        <pt x="198" y="300" on="1"/>
        <pt x="262" y="300" on="0"/>
        <pt x="327" y="347" on="0"/>
        <pt x="327" y="399" on="1"/>
        <pt x="327" y="450" on="0"/>
        <pt x="268" y="490" on="0"/>
        <pt x="205" y="490" on="1"/>
        <pt x="150" y="490" on="1"/>
        <pt x="150" y="300" on="1"/>
      </contour>
    </TTGlyph>
    <TTGlyph name="Racute" xMin="30" yMin="0" xMax="450" yMax="690">
      <component glyphName="R" x="0" y="0" flags="0x204"/>
      <component glyphName="uni0301.cap" x="405" y="0" flags="0x4"/>
    </TTGlyph>
    <TTGlyph name="Rcaron" xMin="30" yMin="0" xMax="450" yMax="690">
      <component glyphName="R" x="0" y="0" flags="0x204"/>
      <component glyphName="uni030C.cap" x="405" y="0" flags="0x4"/>
    </TTGlyph>
    <TTGlyph name="Rcommaaccent" xMin="30" yMin="-160" xMax="450" yMax="540">
      <component glyphName="R" x="0" y="0" flags="0x204"/>
      <component glyphName="uni0326" x="435" y="0" flags="0x4"/>
    </TTGlyph>
    <TTGlyph name="S" xMin="30" yMin="-10" xMax="360" yMax="550">
      <contour>
        <pt x="177" y="-10" on="1"/>
        <pt x="101" y="-10" on="0"/>
        <pt x="36" y="18" on="1"/>
        <pt x="36" y="130" on="1"/>
        <pt x="90" y="130" on="1"/>
        <pt x="90" y="56" on="1"/>
        <pt x="125" y="43" on="0"/>
        <pt x="182" y="43" on="1"/>
        <pt x="237" y="43" on="0"/>
        <pt x="298" y="94" on="0"/>
        <pt x="298" y="138" on="1"/>
        <pt x="298" y="161" on="0"/>
        <pt x="281" y="194" on="0"/>
        <pt x="252" y="219" on="0"/>
        <pt x="208" y="240" on="0"/>
        <pt x="180" y="251" on="1"/>
        <pt x="153" y="261" on="0"/>
        <pt x="100" y="284" on="0"/>
        <pt x="57" y="318" on="0"/>
        <pt x="30" y="370" on="0"/>
        <pt x="30" y="406" on="1"/>
        <pt x="30" y="471" on="0"/>
        <pt x="126" y="550" on="0"/>
        <pt x="208" y="550" on="1"/>
        <pt x="280" y="550" on="0"/>
        <pt x="340" y="520" on="1"/>
        <pt x="340" y="410" on="1"/>
        <pt x="286" y="410" on="1"/>
        <pt x="286" y="482" on="1"/>
        <pt x="250" y="497" on="0"/>
        <pt x="203" y="497" on="1"/>
        <pt x="148" y="497" on="0"/>
        <pt x="92" y="445" on="0"/>
        <pt x="92" y="409" on="1"/>
        <pt x="92" y="387" on="0"/>
        <pt x="109" y="356" on="0"/>
        <pt x="140" y="332" on="0"/>
        <pt x="185" y="314" on="0"/>
        <pt x="213" y="303" on="1"/>
        <pt x="241" y="292" on="0"/>
        <pt x="294" y="267" on="0"/>
        <pt x="335" y="232" on="0"/>
        <pt x="360" y="181" on="0"/>
        <pt x="360" y="142" on="1"/>
        <pt x="360" y="73" on="0"/>
        <pt x="261" y="-10" on="0"/>
      </contour>
    </TTGlyph>
    <TTGlyph name="Sacute" xMin="30" yMin="-10" xMax="360" yMax="690">
      <component glyphName="S" x="0" y="0" flags="0x204"/>
      <component glyphName="uni0301.cap" x="390" y="0" flags="0x4"/>
    </TTGlyph>
    <TTGlyph name="Scaron" xMin="30" yMin="-10" xMax="360" yMax="690">
      <component glyphName="S" x="0" y="0" flags="0x204"/>
      <component glyphName="uni030C.cap" x="390" y="0" flags="0x4"/>
    </TTGlyph>
    <TTGlyph name="Scircumflex" xMin="30" yMin="-10" xMax="360" yMax="690">
      <component glyphName="S" x="0" y="0" flags="0x204"/>
      <component glyphName="uni0302.cap" x="390" y="0" flags="0x4"/>
    </TTGlyph>
    <TTGlyph name="T" xMin="17" yMin="0" xMax="403" yMax="540">
      <contour>
        <pt x="110" y="50" on="1"/>
        <pt x="180" y="50" on="1"/>
        <pt x="180" y="490" on="1"/>
        <pt x="70" y="490" on="1"/>
        <pt x="70" y="410" on="1"/>
        <pt x="17" y="410" on="1"/>
        <pt x="17" y="540" on="1"/>
        <pt x="403" y="540" on="1"/>
        <pt x="403" y="410" on="1"/>
        <pt x="350" y="410" on="1"/>
        <pt x="350" y="490" on="1"/>
        <pt x="240" y="490" on="1"/>
        <pt x="240" y="50" on="1"/>
        <pt x="310" y="50" on="1"/>
        <pt x="310" y="0" on="1"/>
        <pt x="110" y="0" on="1"/>
      </contour>
    </TTGlyph>
    <TTGlyph name="Tbar" xMin="17" yMin="0" xMax="403" yMax="540">
      <contour>
        <pt x="110" y="50" on="1"/>
        <pt x="180" y="50" on="1"/>
        <pt x="180" y="250" on="1"/>
        <pt x="90" y="250" on="1"/>
        <pt x="90" y="300" on="1"/>
        <pt x="180" y="300" on="1"/>
        <pt x="180" y="490" on="1"/>
        <pt x="70" y="490" on="1"/>
        <pt x="70" y="410" on="1"/>
        <pt x="17" y="410" on="1"/>
        <pt x="17" y="540" on="1"/>
        <pt x="403" y="540" on="1"/>
        <pt x="403" y="410" on="1"/>
        <pt x="350" y="410" on="1"/>
        <pt x="350" y="490" on="1"/>
        <pt x="240" y="490" on="1"/>
        <pt x="240" y="300" on="1"/>
        <pt x="330" y="300" on="1"/>
        <pt x="330" y="250" on="1"/>
        <pt x="240" y="250" on="1"/>
        <pt x="240" y="50" on="1"/>
        <pt x="310" y="50" on="1"/>
        <pt x="310" y="0" on="1"/>
        <pt x="110" y="0" on="1"/>
      </contour>
    </TTGlyph>
    <TTGlyph name="Tcaron" xMin="17" yMin="0" xMax="403" yMax="690">
      <component glyphName="T" x="0" y="0" flags="0x204"/>
      <component glyphName="uni030C.cap" x="405" y="0" flags="0x4"/>
    </TTGlyph>
    <TTGlyph name="Tcommaaccent" xMin="17" yMin="-160" xMax="403" yMax="540">
      <component glyphName="T" x="0" y="0" flags="0x204"/>
      <component glyphName="uni0326" x="405" y="0" flags="0x4"/>
    </TTGlyph>
    <TTGlyph name="Thorn" xMin="30" yMin="0" xMax="383" yMax="540">
      <contour>
        <pt x="30" y="50" on="1"/>
        <pt x="90" y="50" on="1"/>
        <pt x="90" y="490" on="1"/>
        <pt x="30" y="490" on="1"/>
        <pt x="30" y="540" on="1"/>
        <pt x="210" y="540" on="1"/>
        <pt x="210" y="490" on="1"/>
        <pt x="150" y="490" on="1"/>
        <pt x="150" y="440" on="1"/>
        <pt x="211" y="440" on="1"/>
        <pt x="299" y="440" on="0"/>
        <pt x="383" y="363" on="0"/>
        <pt x="383" y="290" on="1"/>
        <pt x="383" y="207" on="0"/>
        <pt x="288" y="120" on="0"/>
        <pt x="197" y="120" on="1"/>
        <pt x="150" y="120" on="1"/>
        <pt x="150" y="50" on="1"/>
        <pt x="210" y="50" on="1"/>
        <pt x="210" y="0" on="1"/>
        <pt x="30" y="0" on="1"/>
      </contour>
      <contour>
        <pt x="200" y="170" on="1"/>
        <pt x="258" y="170" on="0"/>
        <pt x="320" y="223" on="0"/>
        <pt x="320" y="283" on="1"/>
        <pt x="320" y="344" on="0"/>
        <pt x="264" y="390" on="0"/>
        <pt x="205" y="390" on="1"/>
        <pt x="150" y="390" on="1"/>
        <pt x="150" y="170" on="1"/>
      </contour>
    </TTGlyph>
    <TTGlyph name="U" xMin="20" yMin="-10" xMax="520" yMax="540">
      <contour>
        <pt x="140" y="173" on="1"/>
        <pt x="140" y="110" on="0"/>
        <pt x="210" y="45" on="0"/>
        <pt x="269" y="45" on="1"/>
        <pt x="333" y="45" on="0"/>
        <pt x="404" y="113" on="0"/>
        <pt x="404" y="176" on="1"/>
        <pt x="404" y="490" on="1"/>
        <pt x="343" y="490" on="1"/>
        <pt x="343" y="540" on="1"/>
        <pt x="520" y="540" on="1"/>
        <pt x="520" y="490" on="1"/>
        <pt x="460" y="490" on="1"/>
        <pt x="460" y="179" on="1"/>
        <pt x="460" y="95" on="0"/>
        <pt x="357" y="-10" on="0"/>
        <pt x="268" y="-10" on="1"/>
        <pt x="182" y="-10" on="0"/>
        <pt x="80" y="89" on="0"/>
        <pt x="80" y="172" on="1"/>
        <pt x="80" y="490" on="1"/>
        <pt x="20" y="490" on="1"/>
        <pt x="20" y="540" on="1"/>
        <pt x="200" y="540" on="1"/>
        <pt x="200" y="490" on="1"/>
        <pt x="140" y="490" on="1"/>
      </contour>
    </TTGlyph>
    <TTGlyph name="Uacute" xMin="20" yMin="-10" xMax="520" yMax="690">
      <component glyphName="U" x="0" y="0" flags="0x204"/>
      <component glyphName="uni0301.cap" x="465" y="0" flags="0x4"/>
    </TTGlyph>
    <TTGlyph name="Ubreve" xMin="20" yMin="-10" xMax="520" yMax="690">
      <component glyphName="U" x="0" y="0" flags="0x204"/>
      <component glyphName="uni0306.cap" x="465" y="0" flags="0x4"/>
    </TTGlyph>
    <TTGlyph name="Ucircumflex" xMin="20" yMin="-10" xMax="520" yMax="690">
      <component glyphName="U" x="0" y="0" flags="0x204"/>
      <component glyphName="uni0302.cap" x="465" y="0" flags="0x4"/>
    </TTGlyph>
    <TTGlyph name="Udieresis" xMin="20" yMin="-10" xMax="520" yMax="663">
      <component glyphName="U" x="0" y="0" flags="0x204"/>
      <component glyphName="uni0308.cap" x="465" y="0" flags="0x4"/>
    </TTGlyph>
    <TTGlyph name="Ugrave" xMin="20" yMin="-10" xMax="520" yMax="690">
      <component glyphName="U" x="0" y="0" flags="0x204"/>
      <component glyphName="uni0300.cap" x="465" y="0" flags="0x4"/>
    </TTGlyph>
    <TTGlyph name="Uhungarumlaut" xMin="20" yMin="-10" xMax="520" yMax="690">
      <component glyphName="U" x="0" y="0" flags="0x204"/>
      <component glyphName="uni030B.cap" x="465" y="0" flags="0x4"/>
    </TTGlyph>
    <TTGlyph name="Umacron" xMin="20" yMin="-10" xMax="520" yMax="637">
      <component glyphName="U" x="0" y="0" flags="0x204"/>
      <component glyphName="uni0304.cap" x="465" y="0" flags="0x4"/>
    </TTGlyph>
    <TTGlyph name="Uogonek" xMin="20" yMin="-185" xMax="520" yMax="540">
      <component glyphName="U" x="0" y="0" flags="0x204"/>
      <component glyphName="uni0328" x="390" y="0" flags="0x4"/>
    </TTGlyph>
    <TTGlyph name="Uring" xMin="20" yMin="-10" xMax="520" yMax="700">
      <component glyphName="U" x="0" y="0" flags="0x204"/>
      <component glyphName="uni030A.cap" x="465" y="0" flags="0x4"/>
    </TTGlyph>
    <TTGlyph name="Utilde" xMin="20" yMin="-10" xMax="520" yMax="655">
      <component glyphName="U" x="0" y="0" flags="0x204"/>
      <component glyphName="uni0303.cap" x="465" y="0" flags="0x4"/>
    </TTGlyph>
    <TTGlyph name="V" xMin="0" yMin="-5" xMax="480" yMax="540">
      <contour>
        <pt x="245" y="80" on="1"/>
        <pt x="371" y="490" on="1"/>
        <pt x="320" y="490" on="1"/>
        <pt x="320" y="540" on="1"/>
        <pt x="480" y="540" on="1"/>
        <pt x="480" y="490" on="1"/>
        <pt x="428" y="490" on="1"/>
        <pt x="269" y="-5" on="1"/>
        <pt x="211" y="-5" on="1"/>
        <pt x="49" y="490" on="1"/>
        <pt x="0" y="490" on="1"/>
        <pt x="0" y="540" on="1"/>
        <pt x="160" y="540" on="1"/>
        <pt x="160" y="490" on="1"/>
        <pt x="112" y="490" on="1"/>
        <pt x="243" y="80" on="1"/>
      </contour>
    </TTGlyph>
    <TTGlyph name="W" xMin="0" yMin="-5" xMax="720" yMax="540">
      <contour>
        <pt x="490" y="80" on="1"/>
        <pt x="611" y="490" on="1"/>
        <pt x="560" y="490" on="1"/>
        <pt x="560" y="540" on="1"/>
        <pt x="720" y="540" on="1"/>
        <pt x="720" y="490" on="1"/>
        <pt x="668" y="490" on="1"/>
        <pt x="514" y="-5" on="1"/>
        <pt x="456" y="-5" on="1"/>
        <pt x="360" y="288" on="1"/>
        <pt x="358" y="288" on="1"/>
        <pt x="264" y="-5" on="1"/>
        <pt x="206" y="-5" on="1"/>
        <pt x="49" y="490" on="1"/>
        <pt x="0" y="490" on="1"/>
        <pt x="0" y="540" on="1"/>
        <pt x="160" y="540" on="1"/>
        <pt x="160" y="490" on="1"/>
        <pt x="112" y="490" on="1"/>
        <pt x="238" y="80" on="1"/>
        <pt x="240" y="80" on="1"/>
        <pt x="333" y="369" on="1"/>
        <pt x="293" y="490" on="1"/>
        <pt x="240" y="490" on="1"/>
        <pt x="240" y="540" on="1"/>
        <pt x="410" y="540" on="1"/>
        <pt x="410" y="490" on="1"/>
        <pt x="353" y="490" on="1"/>
        <pt x="488" y="80" on="1"/>
      </contour>
    </TTGlyph>
    <TTGlyph name="Wacute" xMin="0" yMin="-5" xMax="720" yMax="690">
      <component glyphName="W" x="0" y="0" flags="0x204"/>
      <component glyphName="uni0301.cap" x="555" y="0" flags="0x4"/>
    </TTGlyph>
    <TTGlyph name="Wcircumflex" xMin="0" yMin="-5" xMax="720" yMax="690">
      <component glyphName="W" x="0" y="0" flags="0x204"/>
      <component glyphName="uni0302.cap" x="555" y="0" flags="0x4"/>
    </TTGlyph>
    <TTGlyph name="Wdieresis" xMin="0" yMin="-5" xMax="720" yMax="663">
      <component glyphName="W" x="0" y="0" flags="0x204"/>
      <component glyphName="uni0308.cap" x="555" y="0" flags="0x4"/>
    </TTGlyph>
    <TTGlyph name="Wgrave" xMin="0" yMin="-5" xMax="720" yMax="690">
      <component glyphName="W" x="0" y="0" flags="0x204"/>
      <component glyphName="uni0300.cap" x="555" y="0" flags="0x4"/>
    </TTGlyph>
    <TTGlyph name="X" xMin="0" yMin="0" xMax="450" yMax="540">
      <contour>
        <pt x="64" y="490" on="1"/>
        <pt x="10" y="490" on="1"/>
        <pt x="10" y="540" on="1"/>
        <pt x="180" y="540" on="1"/>
        <pt x="180" y="490" on="1"/>
        <pt x="132" y="490" on="1"/>
        <pt x="230" y="328" on="1"/>
        <pt x="330" y="490" on="1"/>
        <pt x="280" y="490" on="1"/>
        <pt x="280" y="540" on="1"/>
        <pt x="440" y="540" on="1"/>
        <pt x="440" y="490" on="1"/>
        <pt x="391" y="490" on="1"/>
        <pt x="258" y="282" on="1"/>
        <pt x="400" y="50" on="1"/>
        <pt x="450" y="50" on="1"/>
        <pt x="450" y="0" on="1"/>
        <pt x="280" y="0" on="1"/>
        <pt x="280" y="50" on="1"/>
        <pt x="331" y="50" on="1"/>
        <pt x="218" y="235" on="1"/>
        <pt x="109" y="50" on="1"/>
        <pt x="160" y="50" on="1"/>
        <pt x="160" y="0" on="1"/>
        <pt x="0" y="0" on="1"/>
        <pt x="0" y="50" on="1"/>
        <pt x="48" y="50" on="1"/>
        <pt x="191" y="280" on="1"/>
      </contour>
    </TTGlyph>
    <TTGlyph name="Y" xMin="0" yMin="0" xMax="480" yMax="540">
      <contour>
        <pt x="210" y="240" on="1"/>
        <pt x="46" y="490" on="1"/>
        <pt x="0" y="490" on="1"/>
        <pt x="0" y="540" on="1"/>
        <pt x="160" y="540" on="1"/>
        <pt x="160" y="490" on="1"/>
        <pt x="114" y="490" on="1"/>
        <pt x="244" y="292" on="1"/>
        <pt x="370" y="490" on="1"/>
        <pt x="320" y="490" on="1"/>
        <pt x="320" y="540" on="1"/>
        <pt x="480" y="540" on="1"/>
        <pt x="480" y="490" on="1"/>
        <pt x="433" y="490" on="1"/>
        <pt x="270" y="240" on="1"/>
        <pt x="270" y="50" on="1"/>
        <pt x="340" y="50" on="1"/>
        <pt x="340" y="0" on="1"/>
        <pt x="140" y="0" on="1"/>
        <pt x="140" y="50" on="1"/>
        <pt x="210" y="50" on="1"/>
      </contour>
    </TTGlyph>
    <TTGlyph name="Yacute" xMin="0" yMin="0" xMax="480" yMax="690">
      <component glyphName="Y" x="0" y="0" flags="0x204"/>
      <component glyphName="uni0301.cap" x="435" y="0" flags="0x4"/>
    </TTGlyph>
    <TTGlyph name="Ycircumflex" xMin="0" yMin="0" xMax="480" yMax="690">
      <component glyphName="Y" x="0" y="0" flags="0x204"/>
      <component glyphName="uni0302.cap" x="435" y="0" flags="0x4"/>
    </TTGlyph>
    <TTGlyph name="Ydieresis" xMin="0" yMin="0" xMax="480" yMax="663">
      <component glyphName="Y" x="0" y="0" flags="0x204"/>
      <component glyphName="uni0308.cap" x="435" y="0" flags="0x4"/>
    </TTGlyph>
    <TTGlyph name="Ygrave" xMin="0" yMin="0" xMax="480" yMax="690">
      <component glyphName="Y" x="0" y="0" flags="0x204"/>
      <component glyphName="uni0300.cap" x="435" y="0" flags="0x4"/>
    </TTGlyph>
    <TTGlyph name="Z" xMin="30" yMin="0" xMax="410" yMax="540">
      <contour>
        <pt x="30" y="45" on="1"/>
        <pt x="323" y="490" on="1"/>
        <pt x="93" y="490" on="1"/>
        <pt x="93" y="420" on="1"/>
        <pt x="40" y="420" on="1"/>
        <pt x="40" y="540" on="1"/>
        <pt x="400" y="540" on="1"/>
        <pt x="400" y="495" on="1"/>
        <pt x="107" y="50" on="1"/>
        <pt x="357" y="50" on="1"/>
        <pt x="357" y="120" on="1"/>
        <pt x="410" y="120" on="1"/>
        <pt x="410" y="0" on="1"/>
        <pt x="30" y="0" on="1"/>
      </contour>
    </TTGlyph>
    <TTGlyph name="Zacute" xMin="30" yMin="0" xMax="410" yMax="690">
      <component glyphName="Z" x="0" y="0" flags="0x204"/>
      <component glyphName="uni0301.cap" x="420" y="0" flags="0x4"/>
    </TTGlyph>
    <TTGlyph name="Zcaron" xMin="30" yMin="0" xMax="410" yMax="690">
      <component glyphName="Z" x="0" y="0" flags="0x204"/>
      <component glyphName="uni030C.cap" x="420" y="0" flags="0x4"/>
    </TTGlyph>
    <TTGlyph name="Zdotaccent" xMin="30" yMin="0" xMax="410" yMax="665">
      <component glyphName="Z" x="0" y="0" flags="0x204"/>
      <component glyphName="uni0307.cap" x="420" y="0" flags="0x4"/>
    </TTGlyph>
    <TTGlyph name="a" xMin="40" yMin="-10" xMax="380" yMax="400">
      <contour>
        <pt x="60" y="361" on="1"/>
        <pt x="129" y="400" on="0"/>
        <pt x="201" y="400" on="1"/>
        <pt x="263" y="400" on="0"/>
        <pt x="330" y="343" on="0"/>
        <pt x="330" y="281" on="1"/>
        <pt x="330" y="50" on="1"/>
        <pt x="380" y="50" on="1"/>
        <pt x="380" y="0" on="1"/>
        <pt x="276" y="0" on="1"/>
        <pt x="273" y="45" on="1"/>
        <pt x="271" y="46" on="1"/>
        <pt x="223" y="-10" on="0"/>
        <pt x="153" y="-10" on="1"/>
        <pt x="101" y="-10" on="0"/>
        <pt x="40" y="51" on="0"/>
        <pt x="40" y="98" on="1"/>
        <pt x="40" y="161" on="0"/>
        <pt x="149" y="223" on="0"/>
        <pt x="253" y="223" on="1"/>
        <pt x="270" y="223" on="1"/>
        <pt x="270" y="282" on="1"/>
        <pt x="270" y="319" on="0"/>
        <pt x="235" y="350" on="0"/>
        <pt x="194" y="350" on="1"/>
        <pt x="145" y="350" on="0"/>
        <pt x="112" y="334" on="1"/>
        <pt x="112" y="280" on="1"/>
        <pt x="60" y="280" on="1"/>
      </contour>
      <contour>
        <pt x="246" y="180" on="1"/>
        <pt x="177" y="180" on="0"/>
        <pt x="103" y="145" on="0"/>
        <pt x="103" y="101" on="1"/>
        <pt x="103" y="69" on="0"/>
        <pt x="139" y="40" on="0"/>
        <pt x="167" y="40" on="1"/>
        <pt x="227" y="40" on="0"/>
        <pt x="270" y="89" on="1"/>
        <pt x="270" y="180" on="1"/>
      </contour>
    </TTGlyph>
    <TTGlyph name="aacute" xMin="40" yMin="-10" xMax="380" yMax="550">
      <component glyphName="a" x="0" y="0" flags="0x204"/>
      <component glyphName="uni0301" x="390" y="0" flags="0x4"/>
    </TTGlyph>
    <TTGlyph name="abreve" xMin="40" yMin="-10" xMax="380" yMax="550">
      <component glyphName="a" x="0" y="0" flags="0x204"/>
      <component glyphName="uni0306" x="390" y="0" flags="0x4"/>
    </TTGlyph>
    <TTGlyph name="acircumflex" xMin="40" yMin="-10" xMax="380" yMax="550">
      <component glyphName="a" x="0" y="0" flags="0x204"/>
      <component glyphName="uni0302" x="390" y="0" flags="0x4"/>
    </TTGlyph>
    <TTGlyph name="acute" xMin="30" yMin="430" xMax="156" yMax="550">
      <component glyphName="uni0301" x="256" y="0" flags="0x4"/>
    </TTGlyph>
    <TTGlyph name="adieresis" xMin="40" yMin="-10" xMax="380" yMax="540">
      <component glyphName="a" x="0" y="0" flags="0x204"/>
      <component glyphName="uni0308" x="390" y="0" flags="0x4"/>
    </TTGlyph>
    <TTGlyph name="ae" xMin="40" yMin="-10" xMax="540" yMax="400">
      <contour>
        <pt x="530" y="75" on="1"/>
        <pt x="530" y="21" on="1"/>
        <pt x="482" y="-10" on="0"/>
        <pt x="418" y="-10" on="1"/>
        <pt x="332" y="-10" on="0"/>
        <pt x="289" y="59" on="1"/>
        <pt x="287" y="59" on="1"/>
        <pt x="230" y="-10" on="0"/>
        <pt x="149" y="-10" on="1"/>
        <pt x="99" y="-10" on="0"/>
        <pt x="40" y="50" on="0"/>
        <pt x="40" y="98" on="1"/>
        <pt x="40" y="161" on="0"/>
        <pt x="144" y="223" on="0"/>
        <pt x="244" y="223" on="1"/>
        <pt x="260" y="223" on="1"/>
        <pt x="260" y="282" on="1"/>
        <pt x="260" y="319" on="0"/>
        <pt x="227" y="350" on="0"/>
        <pt x="189" y="350" on="1"/>
        <pt x="143" y="350" on="0"/>
        <pt x="112" y="334" on="1"/>
        <pt x="112" y="280" on="1"/>
        <pt x="60" y="280" on="1"/>
        <pt x="60" y="361" on="1"/>
        <pt x="126" y="400" on="0"/>
        <pt x="196" y="400" on="1"/>
        <pt x="279" y="400" on="0"/>
        <pt x="304" y="347" on="1"/>
        <pt x="306" y="347" on="1"/>
        <pt x="349" y="400" on="0"/>
        <pt x="416" y="400" on="1"/>
        <pt x="471" y="400" on="0"/>
        <pt x="540" y="308" on="0"/>
        <pt x="540" y="223" on="1"/>
        <pt x="540" y="192" on="1"/>
        <pt x="320" y="192" on="1"/>
        <pt x="322" y="122" on="0"/>
        <pt x="370" y="44" on="0"/>
        <pt x="423" y="42" on="1"/>
        <pt x="481" y="42" on="0"/>
      </contour>
      <contour>
        <pt x="237" y="180" on="1"/>
        <pt x="174" y="180" on="0"/>
        <pt x="105" y="145" on="0"/>
        <pt x="105" y="101" on="1"/>
        <pt x="105" y="70" on="0"/>
        <pt x="137" y="40" on="0"/>
        <pt x="160" y="40" on="1"/>
        <pt x="222" y="39" on="0"/>
        <pt x="271" y="100" on="1"/>
        <pt x="260" y="133" on="0"/>
        <pt x="258" y="180" on="1"/>
      </contour>
      <contour>
        <pt x="480" y="240" on="1"/>
        <pt x="480" y="297" on="0"/>
        <pt x="441" y="350" on="0"/>
        <pt x="406" y="350" on="1"/>
        <pt x="372" y="350" on="0"/>
        <pt x="326" y="295" on="0"/>
        <pt x="321" y="240" on="1"/>
      </contour>
    </TTGlyph>
    <TTGlyph name="agrave" xMin="40" yMin="-10" xMax="380" yMax="550">
      <component glyphName="a" x="0" y="0" flags="0x204"/>
      <component glyphName="uni0300" x="390" y="0" flags="0x4"/>
    </TTGlyph>
    <TTGlyph name="amacron" xMin="40" yMin="-10" xMax="380" yMax="510">
      <component glyphName="a" x="0" y="0" flags="0x204"/>
      <component glyphName="uni0304" x="390" y="0" flags="0x4"/>
    </TTGlyph>
    <TTGlyph name="ampersand" xMin="47" yMin="-10" xMax="540" yMax="550">
      <contour>
        <pt x="410" y="280" on="1"/>
        <pt x="360" y="280" on="1"/>
        <pt x="360" y="330" on="1"/>
        <pt x="520" y="330" on="1"/>
        <pt x="520" y="280" on="1"/>
        <pt x="462" y="280" on="1"/>
        <pt x="457" y="184" on="0"/>
        <pt x="416" y="109" on="1"/>
        <pt x="448" y="76" on="0"/>
        <pt x="492" y="45" on="0"/>
        <pt x="514" y="45" on="1"/>
        <pt x="528" y="45" on="0"/>
        <pt x="540" y="47" on="1"/>
        <pt x="540" y="0" on="1"/>
        <pt x="522" y="-5" on="0"/>
        <pt x="503" y="-5" on="1"/>
        <pt x="474" y="-5" on="0"/>
        <pt x="423" y="23" on="0"/>
        <pt x="381" y="63" on="1"/>
        <pt x="314" y="-10" on="0"/>
        <pt x="220" y="-10" on="1"/>
        <pt x="143" y="-10" on="0"/>
        <pt x="47" y="79" on="0"/>
        <pt x="47" y="143" on="1"/>
        <pt x="47" y="239" on="0"/>
        <pt x="150" y="299" on="1"/>
        <pt x="90" y="367" on="0"/>
        <pt x="90" y="423" on="1"/>
        <pt x="90" y="479" on="0"/>
        <pt x="163" y="550" on="0"/>
        <pt x="222" y="550" on="1"/>
        <pt x="278" y="550" on="0"/>
        <pt x="350" y="489" on="0"/>
        <pt x="350" y="439" on="1"/>
        <pt x="350" y="397" on="0"/>
        <pt x="295" y="328" on="0"/>
        <pt x="235" y="292" on="1"/>
        <pt x="251" y="274" on="0"/>
        <pt x="291" y="233" on="0"/>
        <pt x="310" y="213" on="1"/>
        <pt x="378" y="146" on="1"/>
        <pt x="408" y="207" on="0"/>
      </contour>
      <contour>
        <pt x="110" y="155" on="1"/>
        <pt x="110" y="104" on="0"/>
        <pt x="175" y="40" on="0"/>
        <pt x="228" y="40" on="1"/>
        <pt x="294" y="40" on="0"/>
        <pt x="345" y="96" on="1"/>
        <pt x="313" y="127" on="0"/>
        <pt x="229" y="210" on="0"/>
        <pt x="180" y="265" on="1"/>
        <pt x="110" y="225" on="0"/>
      </contour>
      <contour>
        <pt x="292" y="435" on="1"/>
        <pt x="292" y="466" on="0"/>
        <pt x="252" y="500" on="0"/>
        <pt x="220" y="500" on="1"/>
        <pt x="188" y="500" on="0"/>
        <pt x="149" y="464" on="0"/>
        <pt x="149" y="429" on="1"/>
        <pt x="149" y="382" on="0"/>
        <pt x="205" y="325" on="1"/>
        <pt x="249" y="349" on="0"/>
        <pt x="292" y="403" on="0"/>
      </contour>
    </TTGlyph>
    <TTGlyph name="aogonek" xMin="40" yMin="-185" xMax="380" yMax="400">
      <component glyphName="a" x="0" y="0" flags="0x204"/>
      <component glyphName="uni0328" x="410" y="0" flags="0x4"/>
    </TTGlyph>
    <TTGlyph name="aring" xMin="40" yMin="-10" xMax="380" yMax="560">
      <component glyphName="a" x="0" y="0" flags="0x204"/>
      <component glyphName="uni030A" x="390" y="0" flags="0x4"/>
    </TTGlyph>
    <TTGlyph name="asciicircum" xMin="27" yMin="270" xMax="334" yMax="545">
      <contour>
        <pt x="179" y="480" on="1"/>
        <pt x="85" y="270" on="1"/>
        <pt x="27" y="270" on="1"/>
        <pt x="158" y="545" on="1"/>
        <pt x="203" y="545" on="1"/>
        <pt x="334" y="270" on="1"/>
        <pt x="276" y="270" on="1"/>
        <pt x="181" y="480" on="1"/>
      </contour>
    </TTGlyph>
    <TTGlyph name="asciitilde" xMin="30" yMin="160" xMax="390" yMax="251">
      <contour>
        <pt x="30" y="215" on="1"/>
        <pt x="81" y="251" on="0"/>
        <pt x="134" y="251" on="1"/>
        <pt x="162" y="251" on="0"/>
        <pt x="202" y="236" on="0"/>
        <pt x="219" y="228" on="1"/>
        <pt x="235" y="220" on="0"/>
        <pt x="266" y="209" on="0"/>
        <pt x="285" y="209" on="1"/>
        <pt x="338" y="209" on="0"/>
        <pt x="390" y="249" on="1"/>
        <pt x="390" y="196" on="1"/>
        <pt x="337" y="160" on="0"/>
        <pt x="284" y="160" on="1"/>
        <pt x="257" y="160" on="0"/>
        <pt x="218" y="175" on="0"/>
        <pt x="201" y="183" on="1"/>
        <pt x="185" y="191" on="0"/>
        <pt x="153" y="203" on="0"/>
        <pt x="133" y="203" on="1"/>
        <pt x="83" y="203" on="0"/>
        <pt x="30" y="162" on="1"/>
      </contour>
    </TTGlyph>
    <TTGlyph name="asterisk" xMin="39" yMin="290" xMax="330" yMax="570">
      <contour>
        <pt x="216" y="570" on="1"/>
        <pt x="207" y="458" on="1"/>
        <pt x="313" y="500" on="1"/>
        <pt x="330" y="440" on="1"/>
        <pt x="221" y="417" on="1"/>
        <pt x="295" y="328" on="1"/>
        <pt x="245" y="290" on="1"/>
        <pt x="185" y="389" on="1"/>
        <pt x="125" y="291" on="1"/>
        <pt x="76" y="329" on="1"/>
        <pt x="148" y="417" on="1"/>
        <pt x="39" y="441" on="1"/>
        <pt x="58" y="500" on="1"/>
        <pt x="162" y="459" on="1"/>
        <pt x="154" y="570" on="1"/>
      </contour>
    </TTGlyph>
    <TTGlyph name="at" xMin="50" yMin="-150" xMax="620" yMax="480">
      <contour>
        <pt x="480" y="-124" on="1"/>
        <pt x="407" y="-150" on="0"/>
        <pt x="330" y="-150" on="1"/>
        <pt x="202" y="-150" on="0"/>
        <pt x="50" y="13" on="0"/>
        <pt x="50" y="147" on="1"/>
        <pt x="50" y="289" on="0"/>
        <pt x="219" y="480" on="0"/>
        <pt x="352" y="480" on="1"/>
        <pt x="473" y="480" on="0"/>
        <pt x="620" y="321" on="0"/>
        <pt x="620" y="203" on="1"/>
        <pt x="620" y="113" on="0"/>
        <pt x="536" y="-10" on="0"/>
        <pt x="474" y="-10" on="1"/>
        <pt x="437" y="-10" on="0"/>
        <pt x="390" y="35" on="0"/>
        <pt x="390" y="78" on="1"/>
        <pt x="389" y="78" on="1"/>
        <pt x="352" y="-10" on="0"/>
        <pt x="286" y="-10" on="1"/>
        <pt x="244" y="-10" on="0"/>
        <pt x="195" y="66" on="0"/>
        <pt x="195" y="125" on="1"/>
        <pt x="195" y="212" on="0"/>
        <pt x="282" y="330" on="0"/>
        <pt x="357" y="330" on="1"/>
        <pt x="402" y="330" on="0"/>
        <pt x="457" y="312" on="1"/>
        <pt x="447" y="175" on="1"/>
        <pt x="441" y="116" on="0"/>
        <pt x="441" y="85" on="1"/>
        <pt x="441" y="41" on="0"/>
        <pt x="474" y="41" on="1"/>
        <pt x="512" y="41" on="0"/>
        <pt x="562" y="134" on="0"/>
        <pt x="562" y="203" on="1"/>
        <pt x="562" y="303" on="0"/>
        <pt x="443" y="427" on="0"/>
        <pt x="351" y="427" on="1"/>
        <pt x="247" y="427" on="0"/>
        <pt x="110" y="272" on="0"/>
        <pt x="110" y="153" on="1"/>
        <pt x="110" y="38" on="0"/>
        <pt x="232" y="-95" on="0"/>
        <pt x="334" y="-95" on="1"/>
        <pt x="403" y="-95" on="0"/>
        <pt x="480" y="-69" on="1"/>
      </contour>
      <contour>
        <pt x="397" y="278" on="1"/>
        <pt x="377" y="284" on="0"/>
        <pt x="354" y="284" on="1"/>
        <pt x="311" y="284" on="0"/>
        <pt x="260" y="195" on="0"/>
        <pt x="260" y="129" on="1"/>
        <pt x="260" y="88" on="0"/>
        <pt x="279" y="43" on="0"/>
        <pt x="301" y="43" on="1"/>
        <pt x="336" y="43" on="0"/>
        <pt x="385" y="152" on="0"/>
        <pt x="391" y="211" on="1"/>
      </contour>
    </TTGlyph>
    <TTGlyph name="atilde" xMin="40" yMin="-10" xMax="380" yMax="536">
      <component glyphName="a" x="0" y="0" flags="0x204"/>
      <component glyphName="uni0303" x="390" y="0" flags="0x4"/>
    </TTGlyph>
    <TTGlyph name="b" xMin="25" yMin="-10" xMax="380" yMax="600">
      <contour>
        <pt x="135" y="46" on="1"/>
        <pt x="165" y="40" on="0"/>
        <pt x="194" y="40" on="1"/>
        <pt x="254" y="40" on="0"/>
        <pt x="317" y="114" on="0"/>
        <pt x="317" y="195" on="1"/>
        <pt x="317" y="267" on="0"/>
        <pt x="268" y="350" on="0"/>
        <pt x="218" y="350" on="1"/>
        <pt x="174" y="350" on="0"/>
        <pt x="135" y="317" on="1"/>
      </contour>
      <contour>
        <pt x="135" y="365" on="1"/>
        <pt x="137" y="364" on="1"/>
        <pt x="179" y="400" on="0"/>
        <pt x="236" y="400" on="1"/>
        <pt x="301" y="400" on="0"/>
        <pt x="380" y="290" on="0"/>
        <pt x="380" y="204" on="1"/>
        <pt x="380" y="104" on="0"/>
        <pt x="279" y="-10" on="0"/>
        <pt x="191" y="-10" on="1"/>
        <pt x="134" y="-10" on="0"/>
        <pt x="75" y="9" on="1"/>
        <pt x="75" y="550" on="1"/>
        <pt x="25" y="550" on="1"/>
        <pt x="25" y="600" on="1"/>
        <pt x="135" y="600" on="1"/>
      </contour>
    </TTGlyph>
    <TTGlyph name="backslash" xMin="-12" yMin="-120" xMax="252" yMax="540">
      <contour>
        <pt x="252" y="-120" on="1"/>
        <pt x="200" y="-120" on="1"/>
        <pt x="-12" y="540" on="1"/>
        <pt x="40" y="540" on="1"/>
      </contour>
    </TTGlyph>
    <TTGlyph name="bar" xMin="95" yMin="-190" xMax="145" yMax="610">
      <contour>
        <pt x="95" y="610" on="1"/>
        <pt x="145" y="610" on="1"/>
        <pt x="145" y="-190" on="1"/>
        <pt x="95" y="-190" on="1"/>
      </contour>
    </TTGlyph>
    <TTGlyph name="braceleft" xMin="25" yMin="-120" xMax="230" yMax="600">
      <contour>
        <pt x="80" y="239" on="1"/>
        <pt x="116" y="229" on="0"/>
        <pt x="150" y="179" on="0"/>
        <pt x="150" y="136" on="1"/>
        <pt x="150" y="-22" on="1"/>
        <pt x="150" y="-50" on="0"/>
        <pt x="176" y="-70" on="0"/>
        <pt x="195" y="-70" on="1"/>
        <pt x="230" y="-70" on="1"/>
        <pt x="230" y="-120" on="1"/>
        <pt x="195" y="-120" on="1"/>
        <pt x="145" y="-120" on="0"/>
        <pt x="95" y="-72" on="0"/>
        <pt x="95" y="-19" on="1"/>
        <pt x="95" y="137" on="1"/>
        <pt x="95" y="180" on="0"/>
        <pt x="59" y="216" on="0"/>
        <pt x="25" y="216" on="1"/>
        <pt x="25" y="264" on="1"/>
        <pt x="59" y="264" on="0"/>
        <pt x="95" y="299" on="0"/>
        <pt x="95" y="341" on="1"/>
        <pt x="95" y="499" on="1"/>
        <pt x="95" y="552" on="0"/>
        <pt x="148" y="600" on="0"/>
        <pt x="197" y="600" on="1"/>
        <pt x="230" y="600" on="1"/>
        <pt x="230" y="550" on="1"/>
        <pt x="193" y="550" on="1"/>
        <pt x="175" y="550" on="0"/>
        <pt x="150" y="531" on="0"/>
        <pt x="150" y="502" on="1"/>
        <pt x="150" y="344" on="1"/>
        <pt x="150" y="300" on="0"/>
        <pt x="116" y="250" on="0"/>
        <pt x="80" y="241" on="1"/>
      </contour>
    </TTGlyph>
    <TTGlyph name="braceleft.case" xMin="25" yMin="-90" xMax="230" yMax="630">
      <component glyphName="braceleft" x="0" y="30" flags="0x204"/>
    </TTGlyph>
    <TTGlyph name="braceright" xMin="40" yMin="-120" xMax="245" yMax="600">
      <contour>
        <pt x="190" y="241" on="1"/>
        <pt x="154" y="250" on="0"/>
        <pt x="120" y="300" on="0"/>
        <pt x="120" y="344" on="1"/>
        <pt x="120" y="502" on="1"/>
        <pt x="120" y="531" on="0"/>
        <pt x="95" y="550" on="0"/>
        <pt x="77" y="550" on="1"/>
        <pt x="40" y="550" on="1"/>
        <pt x="40" y="600" on="1"/>
        <pt x="73" y="600" on="1"/>
        <pt x="122" y="600" on="0"/>
        <pt x="175" y="552" on="0"/>
        <pt x="175" y="499" on="1"/>
        <pt x="175" y="341" on="1"/>
        <pt x="175" y="299" on="0"/>
        <pt x="211" y="264" on="0"/>
        <pt x="245" y="264" on="1"/>
        <pt x="245" y="216" on="1"/>
        <pt x="211" y="216" on="0"/>
        <pt x="175" y="180" on="0"/>
        <pt x="175" y="137" on="1"/>
        <pt x="175" y="-19" on="1"/>
        <pt x="175" y="-72" on="0"/>
        <pt x="125" y="-120" on="0"/>
        <pt x="75" y="-120" on="1"/>
        <pt x="40" y="-120" on="1"/>
        <pt x="40" y="-70" on="1"/>
        <pt x="75" y="-70" on="1"/>
        <pt x="94" y="-70" on="0"/>
        <pt x="120" y="-50" on="0"/>
        <pt x="120" y="-22" on="1"/>
        <pt x="120" y="136" on="1"/>
        <pt x="120" y="179" on="0"/>
        <pt x="154" y="229" on="0"/>
        <pt x="190" y="239" on="1"/>
      </contour>
    </TTGlyph>
    <TTGlyph name="braceright.case" xMin="40" yMin="-90" xMax="245" yMax="630">
      <component glyphName="braceright" x="0" y="30" flags="0x204"/>
    </TTGlyph>
    <TTGlyph name="bracketleft" xMin="60" yMin="-120" xMax="200" yMax="600">
      <contour>
        <pt x="60" y="600" on="1"/>
        <pt x="200" y="600" on="1"/>
        <pt x="200" y="550" on="1"/>
        <pt x="115" y="550" on="1"/>
        <pt x="115" y="-70" on="1"/>
        <pt x="200" y="-70" on="1"/>
        <pt x="200" y="-120" on="1"/>
        <pt x="60" y="-120" on="1"/>
      </contour>
    </TTGlyph>
    <TTGlyph name="bracketleft.case" xMin="60" yMin="-90" xMax="200" yMax="630">
      <component glyphName="bracketleft" x="0" y="30" flags="0x204"/>
    </TTGlyph>
    <TTGlyph name="bracketright" xMin="40" yMin="-120" xMax="180" yMax="600">
      <contour>
        <pt x="180" y="-120" on="1"/>
        <pt x="40" y="-120" on="1"/>
        <pt x="40" y="-70" on="1"/>
        <pt x="125" y="-70" on="1"/>
        <pt x="125" y="550" on="1"/>
        <pt x="40" y="550" on="1"/>
        <pt x="40" y="600" on="1"/>
        <pt x="180" y="600" on="1"/>
      </contour>
    </TTGlyph>
    <TTGlyph name="bracketright.case" xMin="40" yMin="-90" xMax="180" yMax="630">
      <component glyphName="bracketright" x="0" y="30" flags="0x204"/>
    </TTGlyph>
    <TTGlyph name="breve" xMin="42" yMin="430" xMax="258" yMax="550">
      <component glyphName="uni0306" x="345" y="0" flags="0x4"/>
    </TTGlyph>
    <TTGlyph name="brokenbar" xMin="90" yMin="-10" xMax="150" yMax="550">
      <contour>
        <pt x="90" y="210" on="1"/>
        <pt x="150" y="210" on="1"/>
        <pt x="150" y="-10" on="1"/>
        <pt x="90" y="-10" on="1"/>
      </contour>
      <contour>
        <pt x="90" y="550" on="1"/>
        <pt x="150" y="550" on="1"/>
        <pt x="150" y="330" on="1"/>
        <pt x="90" y="330" on="1"/>
      </contour>
    </TTGlyph>
    <TTGlyph name="bullet" xMin="55" yMin="210" xMax="185" yMax="340">
      <contour>
        <pt x="55" y="274" on="1"/>
        <pt x="55" y="304" on="0"/>
        <pt x="90" y="340" on="0"/>
        <pt x="120" y="340" on="1"/>
        <pt x="149" y="340" on="0"/>
        <pt x="185" y="305" on="0"/>
        <pt x="185" y="276" on="1"/>
        <pt x="185" y="245" on="0"/>
        <pt x="149" y="210" on="0"/>
        <pt x="118" y="210" on="1"/>
        <pt x="90" y="210" on="0"/>
        <pt x="55" y="245" on="0"/>
      </contour>
    </TTGlyph>
    <TTGlyph name="c" xMin="40" yMin="-10" xMax="320" yMax="400">
      <contour>
        <pt x="320" y="15" on="1"/>
        <pt x="272" y="-10" on="0"/>
        <pt x="215" y="-10" on="1"/>
        <pt x="134" y="-10" on="0"/>
        <pt x="40" y="94" on="0"/>
        <pt x="40" y="191" on="1"/>
        <pt x="40" y="289" on="0"/>
        <pt x="139" y="400" on="0"/>
        <pt x="218" y="400" on="1"/>
        <pt x="273" y="400" on="0"/>
        <pt x="320" y="377" on="1"/>
        <pt x="320" y="280" on="1"/>
        <pt x="267" y="280" on="1"/>
        <pt x="267" y="341" on="1"/>
        <pt x="245" y="350" on="0"/>
        <pt x="213" y="350" on="1"/>
        <pt x="157" y="350" on="0"/>
        <pt x="103" y="279" on="0"/>
        <pt x="103" y="202" on="1"/>
        <pt x="103" y="120" on="0"/>
        <pt x="161" y="42" on="0"/>
        <pt x="216" y="42" on="1"/>
        <pt x="270" y="42" on="0"/>
        <pt x="320" y="69" on="1"/>
      </contour>
    </TTGlyph>
    <TTGlyph name="cacute" xMin="40" yMin="-10" xMax="320" yMax="550">
      <component glyphName="c" x="0" y="0" flags="0x204"/>
      <component glyphName="uni0301" x="405" y="0" flags="0x4"/>
    </TTGlyph>
    <TTGlyph name="caron" xMin="32" yMin="430" xMax="268" yMax="550">
      <component glyphName="uni030C" x="345" y="0" flags="0x4"/>
    </TTGlyph>
    <TTGlyph name="ccaron" xMin="40" yMin="-10" xMax="328" yMax="550">
      <component glyphName="c" x="0" y="0" flags="0x204"/>
      <component glyphName="uni030C" x="405" y="0" flags="0x4"/>
    </TTGlyph>
    <TTGlyph name="ccedilla" xMin="40" yMin="-185" xMax="320" yMax="400">
      <component glyphName="c" x="0" y="0" flags="0x204"/>
      <component glyphName="uni0327" x="405" y="0" flags="0x4"/>
    </TTGlyph>
    <TTGlyph name="ccircumflex" xMin="40" yMin="-10" xMax="328" yMax="550">
      <component glyphName="c" x="0" y="0" flags="0x204"/>
      <component glyphName="uni0302" x="405" y="0" flags="0x4"/>
    </TTGlyph>
    <TTGlyph name="cdotaccent" xMin="40" yMin="-10" xMax="320" yMax="540">
      <component glyphName="c" x="0" y="0" flags="0x204"/>
      <component glyphName="uni0307" x="405" y="0" flags="0x4"/>
    </TTGlyph>
    <TTGlyph name="cedilla" xMin="30" yMin="-185" xMax="165" yMax="8">
      <component glyphName="uni0327" x="300" y="0" flags="0x4"/>
    </TTGlyph>
    <TTGlyph name="cent" xMin="40" yMin="-70" xMax="330" yMax="460">
      <contour>
        <pt x="180" y="-70" on="1"/>
        <pt x="180" y="0" on="1"/>
        <pt x="114" y="8" on="0"/>
        <pt x="40" y="104" on="0"/>
        <pt x="40" y="192" on="1"/>
        <pt x="40" y="283" on="0"/>
        <pt x="117" y="381" on="0"/>
        <pt x="180" y="389" on="1"/>
        <pt x="180" y="460" on="1"/>
        <pt x="226" y="460" on="1"/>
        <pt x="226" y="391" on="1"/>
        <pt x="256" y="389" on="0"/>
        <pt x="308" y="376" on="0"/>
        <pt x="330" y="366" on="1"/>
        <pt x="330" y="277" on="1"/>
        <pt x="280" y="277" on="1"/>
        <pt x="280" y="333" on="1"/>
        <pt x="268" y="337" on="0"/>
        <pt x="241" y="342" on="0"/>
        <pt x="226" y="343" on="1"/>
        <pt x="226" y="48" on="1"/>
        <pt x="273" y="51" on="0"/>
        <pt x="330" y="83" on="1"/>
        <pt x="330" y="30" on="1"/>
        <pt x="281" y="2" on="0"/>
        <pt x="226" y="-1" on="1"/>
        <pt x="226" y="-70" on="1"/>
      </contour>
      <contour>
        <pt x="180" y="341" on="1"/>
        <pt x="139" y="332" on="0"/>
        <pt x="102" y="266" on="0"/>
        <pt x="102" y="199" on="1"/>
        <pt x="102" y="130" on="0"/>
        <pt x="141" y="60" on="0"/>
        <pt x="180" y="51" on="1"/>
      </contour>
    </TTGlyph>
    <TTGlyph name="circumflex" xMin="32" yMin="430" xMax="268" yMax="550">
      <component glyphName="uni0302" x="345" y="0" flags="0x4"/>
    </TTGlyph>
    <TTGlyph name="colon" xMin="60" yMin="-10" xMax="160" yMax="390">
      <contour>
        <pt x="60" y="39" on="1"/>
        <pt x="60" y="63" on="0"/>
        <pt x="87" y="92" on="0"/>
        <pt x="110" y="92" on="1"/>
        <pt x="133" y="92" on="0"/>
        <pt x="160" y="63" on="0"/>
        <pt x="160" y="43" on="1"/>
        <pt x="160" y="18" on="0"/>
        <pt x="132" y="-10" on="0"/>
        <pt x="108" y="-10" on="1"/>
        <pt x="86" y="-10" on="0"/>
        <pt x="60" y="18" on="0"/>
      </contour>
      <contour>
        <pt x="60" y="337" on="1"/>
        <pt x="60" y="361" on="0"/>
        <pt x="87" y="390" on="0"/>
        <pt x="110" y="390" on="1"/>
        <pt x="133" y="390" on="0"/>
        <pt x="160" y="361" on="0"/>
        <pt x="160" y="341" on="1"/>
        <pt x="160" y="316" on="0"/>
        <pt x="132" y="288" on="0"/>
        <pt x="108" y="288" on="1"/>
        <pt x="86" y="288" on="0"/>
        <pt x="60" y="316" on="0"/>
      </contour>
    </TTGlyph>
    <TTGlyph name="comma" xMin="48" yMin="-104" xMax="155" yMax="118">
      <contour>
        <pt x="109" y="118" on="1"/>
        <pt x="155" y="75" on="0"/>
        <pt x="155" y="28" on="1"/>
        <pt x="155" y="-37" on="0"/>
        <pt x="79" y="-104" on="1"/>
        <pt x="48" y="-75" on="1"/>
        <pt x="91" y="-34" on="0"/>
        <pt x="90" y="4" on="1"/>
        <pt x="90" y="34" on="0"/>
        <pt x="52" y="69" on="1"/>
      </contour>
    </TTGlyph>
    <TTGlyph name="copyright" xMin="40" yMin="-10" xMax="590" yMax="550">
      <contour>
        <pt x="430" y="135" on="1"/>
        <pt x="377" y="103" on="0"/>
        <pt x="316" y="103" on="1"/>
        <pt x="239" y="103" on="0"/>
        <pt x="150" y="194" on="0"/>
        <pt x="150" y="269" on="1"/>
        <pt x="150" y="345" on="0"/>
        <pt x="239" y="437" on="0"/>
        <pt x="316" y="437" on="1"/>
        <pt x="374" y="437" on="0"/>
        <pt x="430" y="410" on="1"/>
        <pt x="430" y="317" on="1"/>
        <pt x="380" y="317" on="1"/>
        <pt x="380" y="376" on="1"/>
        <pt x="354" y="390" on="0"/>
        <pt x="315" y="390" on="1"/>
        <pt x="262" y="390" on="0"/>
        <pt x="210" y="329" on="0"/>
        <pt x="210" y="274" on="1"/>
        <pt x="210" y="217" on="0"/>
        <pt x="266" y="150" on="0"/>
        <pt x="320" y="150" on="1"/>
        <pt x="371" y="150" on="0"/>
        <pt x="430" y="184" on="1"/>
      </contour>
      <contour>
        <pt x="40" y="270" on="1"/>
        <pt x="40" y="396" on="0"/>
        <pt x="192" y="550" on="0"/>
        <pt x="314" y="550" on="1"/>
        <pt x="436" y="550" on="0"/>
        <pt x="590" y="395" on="0"/>
        <pt x="590" y="270" on="1"/>
        <pt x="590" y="144" on="0"/>
        <pt x="436" y="-10" on="0"/>
        <pt x="314" y="-10" on="1"/>
        <pt x="192" y="-10" on="0"/>
        <pt x="40" y="144" on="0"/>
      </contour>
      <contour>
        <pt x="90" y="270" on="1"/>
        <pt x="90" y="161" on="0"/>
        <pt x="209" y="35" on="0"/>
        <pt x="314" y="35" on="1"/>
        <pt x="419" y="35" on="0"/>
        <pt x="540" y="161" on="0"/>
        <pt x="540" y="270" on="1"/>
        <pt x="540" y="381" on="0"/>
        <pt x="419" y="505" on="0"/>
        <pt x="314" y="505" on="1"/>
        <pt x="209" y="505" on="0"/>
        <pt x="90" y="381" on="0"/>
      </contour>
    </TTGlyph>
    <TTGlyph name="currency" xMin="12" yMin="9" xMax="438" yMax="440">
      <contour>
        <pt x="56" y="10" on="1"/>
        <pt x="12" y="53" on="1"/>
        <pt x="89" y="128" on="1"/>
        <pt x="60" y="172" on="0"/>
        <pt x="60" y="224" on="1"/>
        <pt x="60" y="280" on="0"/>
        <pt x="89" y="321" on="1"/>
        <pt x="12" y="396" on="1"/>
        <pt x="54" y="438" on="1"/>
        <pt x="127" y="360" on="1"/>
        <pt x="171" y="390" on="0"/>
        <pt x="225" y="390" on="1"/>
        <pt x="279" y="390" on="0"/>
        <pt x="321" y="362" on="1"/>
        <pt x="396" y="440" on="1"/>
        <pt x="438" y="396" on="1"/>
        <pt x="360" y="322" on="1"/>
        <pt x="390" y="280" on="0"/>
        <pt x="390" y="224" on="1"/>
        <pt x="390" y="172" on="0"/>
        <pt x="360" y="127" on="1"/>
        <pt x="437" y="52" on="1"/>
        <pt x="395" y="9" on="1"/>
        <pt x="320" y="87" on="1"/>
        <pt x="279" y="60" on="0"/>
        <pt x="225" y="60" on="1"/>
        <pt x="171" y="60" on="0"/>
        <pt x="130" y="87" on="1"/>
      </contour>
      <contour>
        <pt x="115" y="224" on="1"/>
        <pt x="115" y="170" on="0"/>
        <pt x="175" y="110" on="0"/>
        <pt x="224" y="110" on="1"/>
        <pt x="275" y="110" on="0"/>
        <pt x="335" y="170" on="0"/>
        <pt x="335" y="224" on="1"/>
        <pt x="335" y="278" on="0"/>
        <pt x="275" y="340" on="0"/>
        <pt x="224" y="340" on="1"/>
        <pt x="175" y="340" on="0"/>
        <pt x="115" y="278" on="0"/>
      </contour>
    </TTGlyph>
    <TTGlyph name="d" xMin="40" yMin="-10" xMax="400" yMax="600">
      <contour>
        <pt x="230" y="550" on="1"/>
        <pt x="230" y="600" on="1"/>
        <pt x="350" y="600" on="1"/>
        <pt x="350" y="50" on="1"/>
        <pt x="400" y="50" on="1"/>
        <pt x="400" y="0" on="1"/>
        <pt x="293" y="0" on="1"/>
        <pt x="290" y="34" on="1"/>
        <pt x="288" y="35" on="1"/>
        <pt x="246" y="-10" on="0"/>
        <pt x="188" y="-10" on="1"/>
        <pt x="120" y="-10" on="0"/>
        <pt x="40" y="100" on="0"/>
        <pt x="40" y="189" on="1"/>
        <pt x="40" y="283" on="0"/>
        <pt x="136" y="400" on="0"/>
        <pt x="212" y="400" on="1"/>
        <pt x="250" y="400" on="0"/>
        <pt x="288" y="382" on="1"/>
        <pt x="290" y="383" on="1"/>
        <pt x="290" y="550" on="1"/>
      </contour>
      <contour>
        <pt x="290" y="336" on="1"/>
        <pt x="253" y="350" on="0"/>
        <pt x="215" y="350" on="1"/>
        <pt x="158" y="350" on="0"/>
        <pt x="103" y="275" on="0"/>
        <pt x="103" y="196" on="1"/>
        <pt x="103" y="120" on="0"/>
        <pt x="152" y="40" on="0"/>
        <pt x="203" y="40" on="1"/>
        <pt x="253" y="40" on="0"/>
        <pt x="290" y="80" on="1"/>
      </contour>
    </TTGlyph>
    <TTGlyph name="dagger" xMin="30" yMin="-150" xMax="330" yMax="540">
      <contour>
        <pt x="205" y="390" on="1"/>
        <pt x="330" y="390" on="1"/>
        <pt x="330" y="345" on="1"/>
        <pt x="205" y="345" on="1"/>
        <pt x="205" y="-150" on="1"/>
        <pt x="155" y="-150" on="1"/>
        <pt x="155" y="345" on="1"/>
        <pt x="30" y="345" on="1"/>
        <pt x="30" y="390" on="1"/>
        <pt x="155" y="390" on="1"/>
        <pt x="155" y="540" on="1"/>
        <pt x="205" y="540" on="1"/>
      </contour>
    </TTGlyph>
    <TTGlyph name="daggerdbl" xMin="30" yMin="-150" xMax="330" yMax="540">
      <contour>
        <pt x="155" y="0" on="1"/>
        <pt x="30" y="0" on="1"/>
        <pt x="30" y="45" on="1"/>
        <pt x="155" y="45" on="1"/>
        <pt x="155" y="345" on="1"/>
        <pt x="30" y="345" on="1"/>
        <pt x="30" y="390" on="1"/>
        <pt x="155" y="390" on="1"/>
        <pt x="155" y="540" on="1"/>
        <pt x="205" y="540" on="1"/>
        <pt x="205" y="390" on="1"/>
        <pt x="330" y="390" on="1"/>
        <pt x="330" y="345" on="1"/>
        <pt x="205" y="345" on="1"/>
        <pt x="205" y="45" on="1"/>
        <pt x="330" y="45" on="1"/>
        <pt x="330" y="0" on="1"/>
        <pt x="205" y="0" on="1"/>
        <pt x="205" y="-150" on="1"/>
        <pt x="155" y="-150" on="1"/>
      </contour>
    </TTGlyph>
    <TTGlyph name="dcaron" xMin="40" yMin="-10" xMax="480" yMax="600">
      <component glyphName="d" x="0" y="0" flags="0x4"/>
      <component glyphName="uni0315" x="420" y="0" flags="0x4"/>
    </TTGlyph>
    <TTGlyph name="dcroat" xMin="40" yMin="-10" xMax="400" yMax="600">
      <contour>
        <pt x="230" y="550" on="1"/>
        <pt x="230" y="600" on="1"/>
        <pt x="350" y="600" on="1"/>
        <pt x="350" y="496" on="1"/>
        <pt x="400" y="496" on="1"/>
        <pt x="400" y="450" on="1"/>
        <pt x="350" y="450" on="1"/>
        <pt x="350" y="50" on="1"/>
        <pt x="400" y="50" on="1"/>
        <pt x="400" y="0" on="1"/>
        <pt x="293" y="0" on="1"/>
        <pt x="290" y="34" on="1"/>
        <pt x="288" y="35" on="1"/>
        <pt x="246" y="-10" on="0"/>
        <pt x="188" y="-10" on="1"/>
        <pt x="120" y="-10" on="0"/>
        <pt x="40" y="100" on="0"/>
        <pt x="40" y="189" on="1"/>
        <pt x="40" y="283" on="0"/>
        <pt x="136" y="400" on="0"/>
        <pt x="212" y="400" on="1"/>
        <pt x="250" y="400" on="0"/>
        <pt x="288" y="382" on="1"/>
        <pt x="290" y="383" on="1"/>
        <pt x="290" y="450" on="1"/>
        <pt x="180" y="450" on="1"/>
        <pt x="180" y="496" on="1"/>
        <pt x="290" y="496" on="1"/>
        <pt x="290" y="550" on="1"/>
      </contour>
      <contour>
        <pt x="290" y="336" on="1"/>
        <pt x="253" y="350" on="0"/>
        <pt x="215" y="350" on="1"/>
        <pt x="158" y="350" on="0"/>
        <pt x="103" y="275" on="0"/>
        <pt x="103" y="196" on="1"/>
        <pt x="103" y="120" on="0"/>
        <pt x="152" y="40" on="0"/>
        <pt x="203" y="40" on="1"/>
        <pt x="253" y="40" on="0"/>
        <pt x="290" y="80" on="1"/>
      </contour>
    </TTGlyph>
    <TTGlyph name="degree" xMin="30" yMin="300" xMax="280" yMax="550">
      <contour>
        <pt x="30" y="425" on="1"/>
        <pt x="30" y="479" on="0"/>
        <pt x="99" y="550" on="0"/>
        <pt x="155" y="550" on="1"/>
        <pt x="210" y="550" on="0"/>
        <pt x="280" y="479" on="0"/>
        <pt x="280" y="425" on="1"/>
        <pt x="280" y="371" on="0"/>
        <pt x="210" y="300" on="0"/>
        <pt x="155" y="300" on="1"/>
        <pt x="99" y="300" on="0"/>
        <pt x="30" y="371" on="0"/>
      </contour>
      <contour>
        <pt x="84" y="425" on="1"/>
        <pt x="84" y="392" on="0"/>
        <pt x="124" y="350" on="0"/>
        <pt x="155" y="350" on="1"/>
        <pt x="188" y="350" on="0"/>
        <pt x="227" y="392" on="0"/>
        <pt x="227" y="425" on="1"/>
        <pt x="227" y="458" on="0"/>
        <pt x="188" y="499" on="0"/>
        <pt x="155" y="499" on="1"/>
        <pt x="124" y="499" on="0"/>
        <pt x="84" y="458" on="0"/>
      </contour>
    </TTGlyph>
    <TTGlyph name="dieresis" xMin="35" yMin="455" xMax="265" yMax="540">
      <component glyphName="uni0308" x="345" y="0" flags="0x4"/>
    </TTGlyph>
    <TTGlyph name="divide" xMin="30" yMin="44" xMax="360" yMax="376">
      <contour>
        <pt x="152" y="85" on="1"/>
        <pt x="152" y="106" on="0"/>
        <pt x="175" y="130" on="0"/>
        <pt x="196" y="130" on="1"/>
        <pt x="215" y="130" on="0"/>
        <pt x="237" y="107" on="0"/>
        <pt x="237" y="87" on="1"/>
        <pt x="237" y="67" on="0"/>
        <pt x="215" y="44" on="0"/>
        <pt x="195" y="44" on="1"/>
        <pt x="175" y="44" on="0"/>
        <pt x="152" y="67" on="0"/>
      </contour>
      <contour>
        <pt x="152" y="331" on="1"/>
        <pt x="152" y="352" on="0"/>
        <pt x="175" y="376" on="0"/>
        <pt x="196" y="376" on="1"/>
        <pt x="215" y="376" on="0"/>
        <pt x="237" y="353" on="0"/>
        <pt x="237" y="333" on="1"/>
        <pt x="237" y="313" on="0"/>
        <pt x="215" y="290" on="0"/>
        <pt x="195" y="290" on="1"/>
        <pt x="175" y="290" on="0"/>
        <pt x="152" y="313" on="0"/>
      </contour>
      <contour>
        <pt x="30" y="183" on="1"/>
        <pt x="30" y="237" on="1"/>
        <pt x="360" y="237" on="1"/>
        <pt x="360" y="183" on="1"/>
      </contour>
    </TTGlyph>
    <TTGlyph name="dollar" xMin="38" yMin="-70" xMax="370" yMax="610">
      <contour>
        <pt x="180" y="-70" on="1"/>
        <pt x="180" y="-2" on="1"/>
        <pt x="109" y="-1" on="0"/>
        <pt x="40" y="23" on="1"/>
        <pt x="40" y="130" on="1"/>
        <pt x="92" y="130" on="1"/>
        <pt x="92" y="61" on="1"/>
        <pt x="126" y="50" on="0"/>
        <pt x="180" y="49" on="1"/>
        <pt x="180" y="249" on="1"/>
        <pt x="102" y="281" on="0"/>
        <pt x="38" y="348" on="0"/>
        <pt x="38" y="401" on="1"/>
        <pt x="38" y="458" on="0"/>
        <pt x="113" y="532" on="0"/>
        <pt x="180" y="540" on="1"/>
        <pt x="180" y="610" on="1"/>
        <pt x="226" y="610" on="1"/>
        <pt x="226" y="541" on="1"/>
        <pt x="299" y="537" on="0"/>
        <pt x="352" y="515" on="1"/>
        <pt x="352" y="420" on="1"/>
        <pt x="300" y="420" on="1"/>
        <pt x="300" y="479" on="1"/>
        <pt x="266" y="490" on="0"/>
        <pt x="226" y="491" on="1"/>
        <pt x="226" y="295" on="1"/>
        <pt x="302" y="263" on="0"/>
        <pt x="370" y="194" on="0"/>
        <pt x="370" y="142" on="1"/>
        <pt x="370" y="86" on="0"/>
        <pt x="297" y="10" on="0"/>
        <pt x="226" y="1" on="1"/>
        <pt x="226" y="-70" on="1"/>
      </contour>
      <contour>
        <pt x="308" y="132" on="1"/>
        <pt x="308" y="170" on="0"/>
        <pt x="264" y="214" on="0"/>
        <pt x="226" y="231" on="1"/>
        <pt x="226" y="51" on="1"/>
        <pt x="268" y="58" on="0"/>
        <pt x="308" y="102" on="0"/>
      </contour>
      <contour>
        <pt x="100" y="409" on="1"/>
        <pt x="100" y="372" on="0"/>
        <pt x="142" y="330" on="0"/>
        <pt x="180" y="314" on="1"/>
        <pt x="180" y="490" on="1"/>
        <pt x="139" y="485" on="0"/>
        <pt x="100" y="440" on="0"/>
      </contour>
    </TTGlyph>
    <TTGlyph name="dotaccent" xMin="62" yMin="455" xMax="148" yMax="540">
      <component glyphName="uni0307" x="300" y="0" flags="0x4"/>
    </TTGlyph>
    <TTGlyph name="dotlessi" xMin="30" yMin="0" xMax="190" yMax="390">
      <contour>
        <pt x="30" y="50" on="1"/>
        <pt x="80" y="50" on="1"/>
        <pt x="80" y="340" on="1"/>
        <pt x="30" y="340" on="1"/>
        <pt x="30" y="390" on="1"/>
        <pt x="140" y="390" on="1"/>
        <pt x="140" y="50" on="1"/>
        <pt x="190" y="50" on="1"/>
        <pt x="190" y="0" on="1"/>
        <pt x="30" y="0" on="1"/>
      </contour>
    </TTGlyph>
    <TTGlyph name="e" xMin="35" yMin="-10" xMax="330" yMax="400">
      <contour>
        <pt x="320" y="75" on="1"/>
        <pt x="320" y="21" on="1"/>
        <pt x="270" y="-10" on="0"/>
        <pt x="203" y="-10" on="1"/>
        <pt x="124" y="-10" on="0"/>
        <pt x="35" y="96" on="0"/>
        <pt x="35" y="191" on="1"/>
        <pt x="35" y="289" on="0"/>
        <pt x="129" y="400" on="0"/>
        <pt x="200" y="400" on="1"/>
        <pt x="258" y="400" on="0"/>
        <pt x="330" y="308" on="0"/>
        <pt x="330" y="223" on="1"/>
        <pt x="330" y="192" on="1"/>
        <pt x="97" y="192" on="1"/>
        <pt x="99" y="122" on="0"/>
        <pt x="150" y="44" on="0"/>
        <pt x="206" y="42" on="1"/>
        <pt x="268" y="42" on="0"/>
      </contour>
      <contour>
        <pt x="270" y="240" on="1"/>
        <pt x="270" y="297" on="0"/>
        <pt x="228" y="350" on="0"/>
        <pt x="190" y="350" on="1"/>
        <pt x="153" y="350" on="0"/>
        <pt x="103" y="295" on="0"/>
        <pt x="98" y="240" on="1"/>
      </contour>
    </TTGlyph>
    <TTGlyph name="eacute" xMin="35" yMin="-10" xMax="330" yMax="550">
      <component glyphName="e" x="0" y="0" flags="0x204"/>
      <component glyphName="uni0301" x="390" y="0" flags="0x4"/>
    </TTGlyph>
    <TTGlyph name="ebreve" xMin="35" yMin="-10" xMax="330" yMax="550">
      <component glyphName="e" x="0" y="0" flags="0x204"/>
      <component glyphName="uni0306" x="390" y="0" flags="0x4"/>
    </TTGlyph>
    <TTGlyph name="ecaron" xMin="35" yMin="-10" xMax="330" yMax="550">
      <component glyphName="e" x="0" y="0" flags="0x204"/>
      <component glyphName="uni030C" x="390" y="0" flags="0x4"/>
    </TTGlyph>
    <TTGlyph name="ecircumflex" xMin="35" yMin="-10" xMax="330" yMax="550">
      <component glyphName="e" x="0" y="0" flags="0x204"/>
      <component glyphName="uni0302" x="390" y="0" flags="0x4"/>
    </TTGlyph>
    <TTGlyph name="edieresis" xMin="35" yMin="-10" xMax="330" yMax="540">
      <component glyphName="e" x="0" y="0" flags="0x204"/>
      <component glyphName="uni0308" x="390" y="0" flags="0x4"/>
    </TTGlyph>
    <TTGlyph name="edotaccent" xMin="35" yMin="-10" xMax="330" yMax="540">
      <component glyphName="e" x="0" y="0" flags="0x204"/>
      <component glyphName="uni0307" x="390" y="0" flags="0x4"/>
    </TTGlyph>
    <TTGlyph name="egrave" xMin="35" yMin="-10" xMax="330" yMax="550">
      <component glyphName="e" x="0" y="0" flags="0x204"/>
      <component glyphName="uni0300" x="390" y="0" flags="0x4"/>
    </TTGlyph>
    <TTGlyph name="eight" xMin="37" yMin="0" xMax="383" yMax="550">
      <contour>
        <pt x="145" y="285" on="1"/>
        <pt x="145" y="287" on="1"/>
        <pt x="47" y="336" on="0"/>
        <pt x="47" y="412" on="1"/>
        <pt x="47" y="474" on="0"/>
        <pt x="142" y="550" on="0"/>
        <pt x="216" y="550" on="1"/>
        <pt x="289" y="550" on="0"/>
        <pt x="373" y="480" on="0"/>
        <pt x="373" y="422" on="1"/>
        <pt x="373" y="344" on="0"/>
        <pt x="269" y="291" on="1"/>
        <pt x="269" y="289" on="1"/>
        <pt x="327" y="259" on="0"/>
        <pt x="383" y="189" on="0"/>
        <pt x="383" y="145" on="1"/>
        <pt x="383" y="83" on="0"/>
        <pt x="285" y="0" on="0"/>
        <pt x="206" y="0" on="1"/>
        <pt x="129" y="0" on="0"/>
        <pt x="37" y="76" on="0"/>
        <pt x="37" y="137" on="1"/>
        <pt x="37" y="229" on="0"/>
      </contour>
      <contour>
        <pt x="189" y="263" on="1"/>
        <pt x="100" y="218" on="0"/>
        <pt x="100" y="140" on="1"/>
        <pt x="100" y="95" on="0"/>
        <pt x="160" y="50" on="0"/>
        <pt x="208" y="50" on="1"/>
        <pt x="259" y="50" on="0"/>
        <pt x="320" y="98" on="0"/>
        <pt x="320" y="136" on="1"/>
        <pt x="320" y="174" on="0"/>
        <pt x="257" y="231" on="0"/>
      </contour>
      <contour>
        <pt x="227" y="312" on="1"/>
        <pt x="313" y="359" on="0"/>
        <pt x="313" y="420" on="1"/>
        <pt x="313" y="460" on="0"/>
        <pt x="256" y="500" on="0"/>
        <pt x="211" y="500" on="1"/>
        <pt x="166" y="500" on="0"/>
        <pt x="107" y="460" on="0"/>
        <pt x="107" y="425" on="1"/>
        <pt x="107" y="405" on="0"/>
        <pt x="126" y="374" on="0"/>
        <pt x="158" y="348" on="0"/>
        <pt x="202" y="325" on="0"/>
      </contour>
    </TTGlyph>
    <TTGlyph name="ellipsis" xMin="50" yMin="-10" xMax="510" yMax="92">
      <contour>
        <pt x="50" y="39" on="1"/>
        <pt x="50" y="63" on="0"/>
        <pt x="77" y="92" on="0"/>
        <pt x="100" y="92" on="1"/>
        <pt x="123" y="92" on="0"/>
        <pt x="150" y="63" on="0"/>
        <pt x="150" y="43" on="1"/>
        <pt x="150" y="18" on="0"/>
        <pt x="122" y="-10" on="0"/>
        <pt x="98" y="-10" on="1"/>
        <pt x="76" y="-10" on="0"/>
        <pt x="50" y="18" on="0"/>
      </contour>
      <contour>
        <pt x="230" y="39" on="1"/>
        <pt x="230" y="63" on="0"/>
        <pt x="257" y="92" on="0"/>
        <pt x="280" y="92" on="1"/>
        <pt x="303" y="92" on="0"/>
        <pt x="330" y="63" on="0"/>
        <pt x="330" y="43" on="1"/>
        <pt x="330" y="18" on="0"/>
        <pt x="302" y="-10" on="0"/>
        <pt x="278" y="-10" on="1"/>
        <pt x="256" y="-10" on="0"/>
        <pt x="230" y="18" on="0"/>
      </contour>
      <contour>
        <pt x="410" y="39" on="1"/>
        <pt x="410" y="63" on="0"/>
        <pt x="437" y="92" on="0"/>
        <pt x="460" y="92" on="1"/>
        <pt x="483" y="92" on="0"/>
        <pt x="510" y="63" on="0"/>
        <pt x="510" y="43" on="1"/>
        <pt x="510" y="18" on="0"/>
        <pt x="482" y="-10" on="0"/>
        <pt x="458" y="-10" on="1"/>
        <pt x="436" y="-10" on="0"/>
        <pt x="410" y="18" on="0"/>
      </contour>
    </TTGlyph>
    <TTGlyph name="emacron" xMin="35" yMin="-10" xMax="330" yMax="510">
      <component glyphName="e" x="0" y="0" flags="0x204"/>
      <component glyphName="uni0304" x="390" y="0" flags="0x4"/>
    </TTGlyph>
    <TTGlyph name="emdash" xMin="30" yMin="180" xMax="780" yMax="230">
      <contour>
        <pt x="30" y="230" on="1"/>
        <pt x="780" y="230" on="1"/>
        <pt x="780" y="180" on="1"/>
        <pt x="30" y="180" on="1"/>
      </contour>
    </TTGlyph>
    <TTGlyph name="emdash.case" xMin="30" yMin="250" xMax="780" yMax="300">
      <component glyphName="emdash" x="0" y="70" flags="0x204"/>
    </TTGlyph>
    <TTGlyph name="endash" xMin="30" yMin="180" xMax="390" yMax="230">
      <contour>
        <pt x="30" y="230" on="1"/>
        <pt x="390" y="230" on="1"/>
        <pt x="390" y="180" on="1"/>
        <pt x="30" y="180" on="1"/>
      </contour>
    </TTGlyph>
    <TTGlyph name="endash.case" xMin="30" yMin="250" xMax="390" yMax="300">
      <component glyphName="endash" x="0" y="70" flags="0x204"/>
    </TTGlyph>
    <TTGlyph name="eng" xMin="30" yMin="-182" xMax="360" yMax="400">
      <contour>
        <pt x="300" y="-58" on="1"/>
        <pt x="300" y="283" on="1"/>
        <pt x="300" y="323" on="0"/>
        <pt x="272" y="350" on="0"/>
        <pt x="247" y="350" on="1"/>
        <pt x="189" y="350" on="0"/>
        <pt x="140" y="288" on="1"/>
        <pt x="140" y="50" on="1"/>
        <pt x="180" y="50" on="1"/>
        <pt x="180" y="0" on="1"/>
        <pt x="30" y="0" on="1"/>
        <pt x="30" y="50" on="1"/>
        <pt x="80" y="50" on="1"/>
        <pt x="80" y="340" on="1"/>
        <pt x="30" y="340" on="1"/>
        <pt x="30" y="390" on="1"/>
        <pt x="136" y="390" on="1"/>
        <pt x="139" y="338" on="1"/>
        <pt x="140" y="338" on="1"/>
        <pt x="194" y="400" on="0"/>
        <pt x="264" y="400" on="1"/>
        <pt x="314" y="400" on="0"/>
        <pt x="360" y="343" on="0"/>
        <pt x="360" y="291" on="1"/>
        <pt x="360" y="-49" on="1"/>
        <pt x="360" y="-117" on="0"/>
        <pt x="335" y="-149" on="1"/>
        <pt x="311" y="-182" on="0"/>
        <pt x="258" y="-182" on="1"/>
        <pt x="244" y="-182" on="0"/>
        <pt x="230" y="-180" on="1"/>
        <pt x="230" y="-130" on="1"/>
        <pt x="238" y="-131" on="0"/>
        <pt x="247" y="-131" on="1"/>
        <pt x="278" y="-131" on="0"/>
        <pt x="300" y="-99" on="0"/>
      </contour>
    </TTGlyph>
    <TTGlyph name="eogonek" xMin="35" yMin="-185" xMax="330" yMax="400">
      <contour>
        <pt x="320" y="75" on="1"/>
        <pt x="320" y="21" on="1"/>
        <pt x="240" y="-38" on="0"/>
        <pt x="240" y="-96" on="1"/>
        <pt x="240" y="-117" on="0"/>
        <pt x="263" y="-135" on="0"/>
        <pt x="279" y="-135" on="1"/>
        <pt x="300" y="-135" on="0"/>
        <pt x="320" y="-125" on="1"/>
        <pt x="320" y="-173" on="1"/>
        <pt x="298" y="-185" on="0"/>
        <pt x="271" y="-185" on="1"/>
        <pt x="235" y="-185" on="0"/>
        <pt x="185" y="-144" on="0"/>
        <pt x="185" y="-108" on="1"/>
        <pt x="185" y="-55" on="0"/>
        <pt x="235" y="-9" on="1"/>
        <pt x="235" y="-7" on="1"/>
        <pt x="218" y="-10" on="0"/>
        <pt x="203" y="-10" on="1"/>
        <pt x="124" y="-10" on="0"/>
        <pt x="35" y="96" on="0"/>
        <pt x="35" y="191" on="1"/>
        <pt x="35" y="289" on="0"/>
        <pt x="129" y="400" on="0"/>
        <pt x="200" y="400" on="1"/>
        <pt x="258" y="400" on="0"/>
        <pt x="330" y="308" on="0"/>
        <pt x="330" y="223" on="1"/>
        <pt x="330" y="192" on="1"/>
        <pt x="97" y="192" on="1"/>
        <pt x="99" y="122" on="0"/>
        <pt x="150" y="44" on="0"/>
        <pt x="206" y="42" on="1"/>
        <pt x="268" y="42" on="0"/>
      </contour>
      <contour>
        <pt x="270" y="240" on="1"/>
        <pt x="270" y="297" on="0"/>
        <pt x="228" y="350" on="0"/>
        <pt x="190" y="350" on="1"/>
        <pt x="153" y="350" on="0"/>
        <pt x="103" y="295" on="0"/>
        <pt x="98" y="240" on="1"/>
      </contour>
    </TTGlyph>
    <TTGlyph name="equal" xMin="30" yMin="120" xMax="360" yMax="300">
      <contour>
        <pt x="30" y="246" on="1"/>
        <pt x="30" y="300" on="1"/>
        <pt x="360" y="300" on="1"/>
        <pt x="360" y="246" on="1"/>
      </contour>
      <contour>
        <pt x="30" y="120" on="1"/>
        <pt x="30" y="174" on="1"/>
        <pt x="360" y="174" on="1"/>
        <pt x="360" y="120" on="1"/>
      </contour>
    </TTGlyph>
    <TTGlyph name="eth" xMin="35" yMin="-10" xMax="369" yMax="604">
      <contour>
        <pt x="126" y="472" on="1"/>
        <pt x="193" y="522" on="1"/>
        <pt x="152" y="546" on="0"/>
        <pt x="88" y="550" on="1"/>
        <pt x="88" y="600" on="1"/>
        <pt x="173" y="597" on="0"/>
        <pt x="235" y="554" on="1"/>
        <pt x="302" y="604" on="1"/>
        <pt x="330" y="568" on="1"/>
        <pt x="271" y="524" on="1"/>
        <pt x="369" y="423" on="0"/>
        <pt x="369" y="242" on="1"/>
        <pt x="369" y="122" on="0"/>
        <pt x="278" y="-10" on="0"/>
        <pt x="199" y="-10" on="1"/>
        <pt x="124" y="-10" on="0"/>
        <pt x="35" y="101" on="0"/>
        <pt x="35" y="191" on="1"/>
        <pt x="35" y="281" on="0"/>
        <pt x="129" y="390" on="0"/>
        <pt x="206" y="390" on="1"/>
        <pt x="250" y="390" on="0"/>
        <pt x="290" y="369" on="1"/>
        <pt x="292" y="370" on="1"/>
        <pt x="275" y="443" on="0"/>
        <pt x="230" y="493" on="1"/>
        <pt x="154" y="436" on="1"/>
      </contour>
      <contour>
        <pt x="208" y="340" on="1"/>
        <pt x="152" y="340" on="0"/>
        <pt x="98" y="272" on="0"/>
        <pt x="98" y="198" on="1"/>
        <pt x="98" y="122" on="0"/>
        <pt x="151" y="40" on="0"/>
        <pt x="203" y="40" on="1"/>
        <pt x="256" y="40" on="0"/>
        <pt x="306" y="136" on="0"/>
        <pt x="306" y="237" on="1"/>
        <pt x="306" y="280" on="0"/>
        <pt x="301" y="317" on="1"/>
        <pt x="256" y="340" on="0"/>
      </contour>
    </TTGlyph>
    <TTGlyph name="exclam" xMin="80" yMin="-10" xMax="180" yMax="540">
      <contour>
        <pt x="92" y="540" on="1"/>
        <pt x="166" y="540" on="1"/>
        <pt x="150" y="150" on="1"/>
        <pt x="109" y="150" on="1"/>
      </contour>
      <contour>
        <pt x="80" y="39" on="1"/>
        <pt x="80" y="63" on="0"/>
        <pt x="107" y="92" on="0"/>
        <pt x="130" y="92" on="1"/>
        <pt x="153" y="92" on="0"/>
        <pt x="180" y="63" on="0"/>
        <pt x="180" y="43" on="1"/>
        <pt x="180" y="18" on="0"/>
        <pt x="152" y="-10" on="0"/>
        <pt x="128" y="-10" on="1"/>
        <pt x="106" y="-10" on="0"/>
        <pt x="80" y="18" on="0"/>
      </contour>
    </TTGlyph>
    <TTGlyph name="exclamdown" xMin="60" yMin="-150" xMax="160" yMax="400">
      <contour>
        <pt x="148" y="-150" on="1"/>
        <pt x="74" y="-150" on="1"/>
        <pt x="90" y="240" on="1"/>
        <pt x="131" y="240" on="1"/>
      </contour>
      <contour>
        <pt x="60" y="347" on="1"/>
        <pt x="60" y="371" on="0"/>
        <pt x="87" y="400" on="0"/>
        <pt x="110" y="400" on="1"/>
        <pt x="133" y="400" on="0"/>
        <pt x="160" y="371" on="0"/>
        <pt x="160" y="351" on="1"/>
        <pt x="160" y="326" on="0"/>
        <pt x="132" y="298" on="0"/>
        <pt x="108" y="298" on="1"/>
        <pt x="86" y="298" on="0"/>
        <pt x="60" y="326" on="0"/>
      </contour>
    </TTGlyph>
    <TTGlyph name="exclamdown.case" xMin="60" yMin="0" xMax="160" yMax="550">
      <component glyphName="exclamdown" x="0" y="150" flags="0x204"/>
    </TTGlyph>
    <TTGlyph name="f" xMin="30" yMin="0" xMax="292" yMax="605">
      <contour>
        <pt x="292" y="500" on="1"/>
        <pt x="240" y="500" on="1"/>
        <pt x="240" y="554" on="1"/>
        <pt x="225" y="557" on="0"/>
        <pt x="210" y="557" on="1"/>
        <pt x="173" y="557" on="0"/>
        <pt x="140" y="517" on="0"/>
        <pt x="140" y="472" on="1"/>
        <pt x="140" y="390" on="1"/>
        <pt x="230" y="390" on="1"/>
        <pt x="230" y="340" on="1"/>
        <pt x="140" y="340" on="1"/>
        <pt x="140" y="50" on="1"/>
        <pt x="190" y="50" on="1"/>
        <pt x="190" y="0" on="1"/>
        <pt x="30" y="0" on="1"/>
        <pt x="30" y="50" on="1"/>
        <pt x="80" y="50" on="1"/>
        <pt x="80" y="340" on="1"/>
        <pt x="30" y="340" on="1"/>
        <pt x="30" y="390" on="1"/>
        <pt x="80" y="390" on="1"/>
        <pt x="80" y="463" on="1"/>
        <pt x="80" y="535" on="0"/>
        <pt x="149" y="605" on="0"/>
        <pt x="209" y="605" on="1"/>
        <pt x="248" y="605" on="0"/>
        <pt x="292" y="590" on="1"/>
      </contour>
    </TTGlyph>
    <TTGlyph name="f.alt" xMin="30" yMin="0" xMax="270" yMax="605">
      <contour>
        <pt x="270" y="500" on="1"/>
        <pt x="220" y="500" on="1"/>
        <pt x="220" y="555" on="1"/>
        <pt x="211" y="557" on="0"/>
        <pt x="199" y="557" on="1"/>
        <pt x="167" y="557" on="0"/>
        <pt x="140" y="518" on="0"/>
        <pt x="140" y="476" on="1"/>
        <pt x="140" y="390" on="1"/>
        <pt x="220" y="390" on="1"/>
        <pt x="220" y="340" on="1"/>
        <pt x="140" y="340" on="1"/>
        <pt x="140" y="50" on="1"/>
        <pt x="190" y="50" on="1"/>
        <pt x="190" y="0" on="1"/>
        <pt x="30" y="0" on="1"/>
        <pt x="30" y="50" on="1"/>
        <pt x="80" y="50" on="1"/>
        <pt x="80" y="340" on="1"/>
        <pt x="30" y="340" on="1"/>
        <pt x="30" y="390" on="1"/>
        <pt x="80" y="390" on="1"/>
        <pt x="80" y="467" on="1"/>
        <pt x="80" y="536" on="0"/>
        <pt x="144" y="605" on="0"/>
        <pt x="200" y="605" on="1"/>
        <pt x="237" y="605" on="0"/>
        <pt x="270" y="592" on="1"/>
      </contour>
    </TTGlyph>
    <TTGlyph name="f_b" xMin="30" yMin="-10" xMax="590" yMax="605">
      <contour>
        <pt x="345" y="365" on="1"/>
        <pt x="347" y="364" on="1"/>
        <pt x="389" y="400" on="0"/>
        <pt x="446" y="400" on="1"/>
        <pt x="511" y="400" on="0"/>
        <pt x="590" y="290" on="0"/>
        <pt x="590" y="204" on="1"/>
        <pt x="590" y="104" on="0"/>
        <pt x="489" y="-10" on="0"/>
        <pt x="401" y="-10" on="1"/>
        <pt x="344" y="-10" on="0"/>
        <pt x="285" y="9" on="1"/>
        <pt x="285" y="550" on="1"/>
        <pt x="262" y="557" on="0"/>
        <pt x="234" y="557" on="1"/>
        <pt x="184" y="557" on="0"/>
        <pt x="140" y="516" on="0"/>
        <pt x="140" y="472" on="1"/>
        <pt x="140" y="390" on="1"/>
        <pt x="230" y="390" on="1"/>
        <pt x="230" y="340" on="1"/>
        <pt x="140" y="340" on="1"/>
        <pt x="140" y="50" on="1"/>
        <pt x="190" y="50" on="1"/>
        <pt x="190" y="0" on="1"/>
        <pt x="30" y="0" on="1"/>
        <pt x="30" y="50" on="1"/>
        <pt x="80" y="50" on="1"/>
        <pt x="80" y="340" on="1"/>
        <pt x="30" y="340" on="1"/>
        <pt x="30" y="390" on="1"/>
        <pt x="80" y="390" on="1"/>
        <pt x="80" y="463" on="1"/>
        <pt x="80" y="535" on="0"/>
        <pt x="162" y="605" on="0"/>
        <pt x="233" y="605" on="1"/>
        <pt x="266" y="605" on="0"/>
        <pt x="299" y="597" on="1"/>
        <pt x="341" y="602" on="1"/>
        <pt x="345" y="602" on="1"/>
      </contour>
      <contour>
        <pt x="345" y="46" on="1"/>
        <pt x="375" y="40" on="0"/>
        <pt x="404" y="40" on="1"/>
        <pt x="464" y="40" on="0"/>
        <pt x="527" y="114" on="0"/>
        <pt x="527" y="195" on="1"/>
        <pt x="527" y="267" on="0"/>
        <pt x="478" y="350" on="0"/>
        <pt x="428" y="350" on="1"/>
        <pt x="384" y="350" on="0"/>
        <pt x="345" y="317" on="1"/>
      </contour>
    </TTGlyph>
    <TTGlyph name="f_f" xMin="30" yMin="0" xMax="502" yMax="605">
      <contour>
        <pt x="502" y="500" on="1"/>
        <pt x="450" y="500" on="1"/>
        <pt x="450" y="554" on="1"/>
        <pt x="435" y="557" on="0"/>
        <pt x="420" y="557" on="1"/>
        <pt x="383" y="557" on="0"/>
        <pt x="350" y="517" on="0"/>
        <pt x="350" y="472" on="1"/>
        <pt x="350" y="390" on="1"/>
        <pt x="440" y="390" on="1"/>
        <pt x="440" y="340" on="1"/>
        <pt x="350" y="340" on="1"/>
        <pt x="350" y="50" on="1"/>
        <pt x="400" y="50" on="1"/>
        <pt x="400" y="0" on="1"/>
        <pt x="240" y="0" on="1"/>
        <pt x="240" y="50" on="1"/>
        <pt x="290" y="50" on="1"/>
        <pt x="290" y="340" on="1"/>
        <pt x="140" y="340" on="1"/>
        <pt x="140" y="50" on="1"/>
        <pt x="190" y="50" on="1"/>
        <pt x="190" y="0" on="1"/>
        <pt x="30" y="0" on="1"/>
        <pt x="30" y="50" on="1"/>
        <pt x="80" y="50" on="1"/>
        <pt x="80" y="340" on="1"/>
        <pt x="30" y="340" on="1"/>
        <pt x="30" y="390" on="1"/>
        <pt x="80" y="390" on="1"/>
        <pt x="80" y="460" on="1"/>
        <pt x="80" y="500" on="0"/>
        <pt x="101" y="553" on="0"/>
        <pt x="137" y="586" on="0"/>
        <pt x="184" y="600" on="0"/>
        <pt x="210" y="600" on="1"/>
        <pt x="251" y="600" on="0"/>
        <pt x="290" y="582" on="1"/>
        <pt x="290" y="530" on="1"/>
        <pt x="253" y="552" on="0"/>
        <pt x="214" y="552" on="1"/>
        <pt x="172" y="552" on="0"/>
        <pt x="140" y="512" on="0"/>
        <pt x="140" y="469" on="1"/>
        <pt x="140" y="390" on="1"/>
        <pt x="290" y="390" on="1"/>
        <pt x="290" y="463" on="1"/>
        <pt x="290" y="535" on="0"/>
        <pt x="359" y="605" on="0"/>
        <pt x="419" y="605" on="1"/>
        <pt x="459" y="605" on="0"/>
        <pt x="502" y="590" on="1"/>
      </contour>
    </TTGlyph>
    <TTGlyph name="f_f_b" xMin="30" yMin="-10" xMax="800" yMax="605">
      <contour>
        <pt x="290" y="541" on="1"/>
        <pt x="262" y="552" on="0"/>
        <pt x="229" y="552" on="1"/>
        <pt x="179" y="552" on="0"/>
        <pt x="140" y="511" on="0"/>
        <pt x="140" y="467" on="1"/>
        <pt x="140" y="390" on="1"/>
        <pt x="290" y="390" on="1"/>
        <pt x="290" y="463" on="1"/>
        <pt x="290" y="535" on="0"/>
        <pt x="372" y="605" on="0"/>
        <pt x="443" y="605" on="1"/>
        <pt x="476" y="605" on="0"/>
        <pt x="509" y="597" on="1"/>
        <pt x="551" y="602" on="1"/>
        <pt x="555" y="602" on="1"/>
        <pt x="555" y="365" on="1"/>
        <pt x="557" y="364" on="1"/>
        <pt x="599" y="400" on="0"/>
        <pt x="656" y="400" on="1"/>
        <pt x="721" y="400" on="0"/>
        <pt x="800" y="290" on="0"/>
        <pt x="800" y="204" on="1"/>
        <pt x="800" y="104" on="0"/>
        <pt x="699" y="-10" on="0"/>
        <pt x="611" y="-10" on="1"/>
        <pt x="554" y="-10" on="0"/>
        <pt x="495" y="9" on="1"/>
        <pt x="495" y="550" on="1"/>
        <pt x="472" y="557" on="0"/>
        <pt x="444" y="557" on="1"/>
        <pt x="394" y="557" on="0"/>
        <pt x="350" y="516" on="0"/>
        <pt x="350" y="472" on="1"/>
        <pt x="350" y="390" on="1"/>
        <pt x="440" y="390" on="1"/>
        <pt x="440" y="340" on="1"/>
        <pt x="350" y="340" on="1"/>
        <pt x="350" y="50" on="1"/>
        <pt x="400" y="50" on="1"/>
        <pt x="400" y="0" on="1"/>
        <pt x="240" y="0" on="1"/>
        <pt x="240" y="50" on="1"/>
        <pt x="290" y="50" on="1"/>
        <pt x="290" y="340" on="1"/>
        <pt x="140" y="340" on="1"/>
        <pt x="140" y="50" on="1"/>
        <pt x="190" y="50" on="1"/>
        <pt x="190" y="0" on="1"/>
        <pt x="30" y="0" on="1"/>
        <pt x="30" y="50" on="1"/>
        <pt x="80" y="50" on="1"/>
        <pt x="80" y="340" on="1"/>
        <pt x="30" y="340" on="1"/>
        <pt x="30" y="390" on="1"/>
        <pt x="80" y="390" on="1"/>
        <pt x="80" y="458" on="1"/>
        <pt x="80" y="530" on="0"/>
        <pt x="157" y="600" on="0"/>
        <pt x="228" y="600" on="1"/>
        <pt x="258" y="600" on="0"/>
        <pt x="290" y="593" on="1"/>
      </contour>
      <contour>
        <pt x="555" y="46" on="1"/>
        <pt x="585" y="40" on="0"/>
        <pt x="614" y="40" on="1"/>
        <pt x="674" y="40" on="0"/>
        <pt x="737" y="114" on="0"/>
        <pt x="737" y="195" on="1"/>
        <pt x="737" y="267" on="0"/>
        <pt x="688" y="350" on="0"/>
        <pt x="638" y="350" on="1"/>
        <pt x="594" y="350" on="0"/>
        <pt x="555" y="317" on="1"/>
      </contour>
    </TTGlyph>
    <TTGlyph name="f_f_h" xMin="30" yMin="0" xMax="820" yMax="605">
      <contour>
        <pt x="290" y="541" on="1"/>
        <pt x="262" y="552" on="0"/>
        <pt x="229" y="552" on="1"/>
        <pt x="179" y="552" on="0"/>
        <pt x="140" y="511" on="0"/>
        <pt x="140" y="467" on="1"/>
        <pt x="140" y="390" on="1"/>
        <pt x="290" y="390" on="1"/>
        <pt x="290" y="463" on="1"/>
        <pt x="290" y="535" on="0"/>
        <pt x="372" y="605" on="0"/>
        <pt x="443" y="605" on="1"/>
        <pt x="475" y="605" on="0"/>
        <pt x="507" y="597" on="1"/>
        <pt x="546" y="602" on="1"/>
        <pt x="550" y="602" on="1"/>
        <pt x="550" y="344" on="1"/>
        <pt x="551" y="344" on="1"/>
        <pt x="605" y="400" on="0"/>
        <pt x="674" y="400" on="1"/>
        <pt x="724" y="400" on="0"/>
        <pt x="770" y="343" on="0"/>
        <pt x="770" y="291" on="1"/>
        <pt x="770" y="50" on="1"/>
        <pt x="820" y="50" on="1"/>
        <pt x="820" y="0" on="1"/>
        <pt x="670" y="0" on="1"/>
        <pt x="670" y="50" on="1"/>
        <pt x="710" y="50" on="1"/>
        <pt x="710" y="283" on="1"/>
        <pt x="710" y="323" on="0"/>
        <pt x="682" y="350" on="0"/>
        <pt x="657" y="350" on="1"/>
        <pt x="599" y="350" on="0"/>
        <pt x="550" y="293" on="1"/>
        <pt x="550" y="50" on="1"/>
        <pt x="590" y="50" on="1"/>
        <pt x="590" y="0" on="1"/>
        <pt x="450" y="0" on="1"/>
        <pt x="450" y="50" on="1"/>
        <pt x="490" y="50" on="1"/>
        <pt x="490" y="551" on="1"/>
        <pt x="469" y="557" on="0"/>
        <pt x="444" y="557" on="1"/>
        <pt x="394" y="557" on="0"/>
        <pt x="350" y="516" on="0"/>
        <pt x="350" y="472" on="1"/>
        <pt x="350" y="390" on="1"/>
        <pt x="440" y="390" on="1"/>
        <pt x="440" y="340" on="1"/>
        <pt x="350" y="340" on="1"/>
        <pt x="350" y="50" on="1"/>
        <pt x="390" y="50" on="1"/>
        <pt x="390" y="0" on="1"/>
        <pt x="240" y="0" on="1"/>
        <pt x="240" y="50" on="1"/>
        <pt x="290" y="50" on="1"/>
        <pt x="290" y="340" on="1"/>
        <pt x="140" y="340" on="1"/>
        <pt x="140" y="50" on="1"/>
        <pt x="190" y="50" on="1"/>
        <pt x="190" y="0" on="1"/>
        <pt x="30" y="0" on="1"/>
        <pt x="30" y="50" on="1"/>
        <pt x="80" y="50" on="1"/>
        <pt x="80" y="340" on="1"/>
        <pt x="30" y="340" on="1"/>
        <pt x="30" y="390" on="1"/>
        <pt x="80" y="390" on="1"/>
        <pt x="80" y="458" on="1"/>
        <pt x="80" y="530" on="0"/>
        <pt x="157" y="600" on="0"/>
        <pt x="228" y="600" on="1"/>
        <pt x="258" y="600" on="0"/>
        <pt x="290" y="593" on="1"/>
      </contour>
    </TTGlyph>
    <TTGlyph name="f_f_i" xMin="30" yMin="0" xMax="610" yMax="605">
      <contour>
        <pt x="290" y="541" on="1"/>
        <pt x="262" y="552" on="0"/>
        <pt x="229" y="552" on="1"/>
        <pt x="179" y="552" on="0"/>
        <pt x="140" y="511" on="0"/>
        <pt x="140" y="467" on="1"/>
        <pt x="140" y="390" on="1"/>
        <pt x="290" y="390" on="1"/>
        <pt x="290" y="463" on="1"/>
        <pt x="290" y="533" on="0"/>
        <pt x="368" y="605" on="0"/>
        <pt x="448" y="605" on="1"/>
        <pt x="506" y="605" on="0"/>
        <pt x="560" y="588" on="1"/>
        <pt x="560" y="480" on="1"/>
        <pt x="500" y="480" on="1"/>
        <pt x="500" y="551" on="1"/>
        <pt x="474" y="557" on="0"/>
        <pt x="446" y="557" on="1"/>
        <pt x="395" y="557" on="0"/>
        <pt x="350" y="516" on="0"/>
        <pt x="350" y="470" on="1"/>
        <pt x="350" y="390" on="1"/>
        <pt x="560" y="390" on="1"/>
        <pt x="560" y="50" on="1"/>
        <pt x="610" y="50" on="1"/>
        <pt x="610" y="0" on="1"/>
        <pt x="450" y="0" on="1"/>
        <pt x="450" y="50" on="1"/>
        <pt x="500" y="50" on="1"/>
        <pt x="500" y="340" on="1"/>
        <pt x="350" y="340" on="1"/>
        <pt x="350" y="50" on="1"/>
        <pt x="400" y="50" on="1"/>
        <pt x="400" y="0" on="1"/>
        <pt x="240" y="0" on="1"/>
        <pt x="240" y="50" on="1"/>
        <pt x="290" y="50" on="1"/>
        <pt x="290" y="340" on="1"/>
        <pt x="140" y="340" on="1"/>
        <pt x="140" y="50" on="1"/>
        <pt x="190" y="50" on="1"/>
        <pt x="190" y="0" on="1"/>
        <pt x="30" y="0" on="1"/>
        <pt x="30" y="50" on="1"/>
        <pt x="80" y="50" on="1"/>
        <pt x="80" y="340" on="1"/>
        <pt x="30" y="340" on="1"/>
        <pt x="30" y="390" on="1"/>
        <pt x="80" y="390" on="1"/>
        <pt x="80" y="458" on="1"/>
        <pt x="80" y="530" on="0"/>
        <pt x="157" y="600" on="0"/>
        <pt x="228" y="600" on="1"/>
        <pt x="258" y="600" on="0"/>
        <pt x="290" y="593" on="1"/>
      </contour>
    </TTGlyph>
    <TTGlyph name="f_f_ij" xMin="30" yMin="-182" xMax="769" yMax="605">
      <component glyphName="f_f_i" x="0" y="0" flags="0x4"/>
      <component glyphName="j" x="630" y="0" flags="0x4"/>
    </TTGlyph>
    <TTGlyph name="f_f_iogonek" xMin="30" yMin="-185" xMax="610" yMax="605">
      <component glyphName="f_f_i" x="0" y="0" flags="0x204"/>
      <component glyphName="uni0328" x="640" y="0" flags="0x4"/>
    </TTGlyph>
    <TTGlyph name="f_f_j" xMin="30" yMin="-182" xMax="550" yMax="605">
      <contour>
        <pt x="290" y="541" on="1"/>
        <pt x="262" y="552" on="0"/>
        <pt x="229" y="552" on="1"/>
        <pt x="179" y="552" on="0"/>
        <pt x="140" y="511" on="0"/>
        <pt x="140" y="467" on="1"/>
        <pt x="140" y="390" on="1"/>
        <pt x="290" y="390" on="1"/>
        <pt x="290" y="463" on="1"/>
        <pt x="290" y="533" on="0"/>
        <pt x="365" y="605" on="0"/>
        <pt x="442" y="605" on="1"/>
        <pt x="498" y="605" on="0"/>
        <pt x="550" y="588" on="1"/>
        <pt x="550" y="480" on="1"/>
        <pt x="490" y="480" on="1"/>
        <pt x="490" y="551" on="1"/>
        <pt x="466" y="557" on="0"/>
        <pt x="440" y="557" on="1"/>
        <pt x="392" y="557" on="0"/>
        <pt x="350" y="516" on="0"/>
        <pt x="350" y="470" on="1"/>
        <pt x="350" y="390" on="1"/>
        <pt x="550" y="390" on="1"/>
        <pt x="550" y="-49" on="1"/>
        <pt x="550" y="-117" on="0"/>
        <pt x="525" y="-149" on="1"/>
        <pt x="501" y="-182" on="0"/>
        <pt x="448" y="-182" on="1"/>
        <pt x="434" y="-182" on="0"/>
        <pt x="420" y="-180" on="1"/>
        <pt x="420" y="-130" on="1"/>
        <pt x="428" y="-131" on="0"/>
        <pt x="437" y="-131" on="1"/>
        <pt x="468" y="-131" on="0"/>
        <pt x="490" y="-99" on="0"/>
        <pt x="490" y="-58" on="1"/>
        <pt x="490" y="340" on="1"/>
        <pt x="350" y="340" on="1"/>
        <pt x="350" y="50" on="1"/>
        <pt x="400" y="50" on="1"/>
        <pt x="400" y="0" on="1"/>
        <pt x="240" y="0" on="1"/>
        <pt x="240" y="50" on="1"/>
        <pt x="290" y="50" on="1"/>
        <pt x="290" y="340" on="1"/>
        <pt x="140" y="340" on="1"/>
        <pt x="140" y="50" on="1"/>
        <pt x="190" y="50" on="1"/>
        <pt x="190" y="0" on="1"/>
        <pt x="30" y="0" on="1"/>
        <pt x="30" y="50" on="1"/>
        <pt x="80" y="50" on="1"/>
        <pt x="80" y="340" on="1"/>
        <pt x="30" y="340" on="1"/>
        <pt x="30" y="390" on="1"/>
        <pt x="80" y="390" on="1"/>
        <pt x="80" y="458" on="1"/>
        <pt x="80" y="530" on="0"/>
        <pt x="157" y="600" on="0"/>
        <pt x="228" y="600" on="1"/>
        <pt x="258" y="600" on="0"/>
        <pt x="290" y="593" on="1"/>
      </contour>
    </TTGlyph>
    <TTGlyph name="f_f_k" xMin="30" yMin="0" xMax="810" yMax="605">
      <contour>
        <pt x="290" y="541" on="1"/>
        <pt x="262" y="552" on="0"/>
        <pt x="229" y="552" on="1"/>
        <pt x="179" y="552" on="0"/>
        <pt x="140" y="511" on="0"/>
        <pt x="140" y="467" on="1"/>
        <pt x="140" y="390" on="1"/>
        <pt x="290" y="390" on="1"/>
        <pt x="290" y="463" on="1"/>
        <pt x="290" y="535" on="0"/>
        <pt x="372" y="605" on="0"/>
        <pt x="443" y="605" on="1"/>
        <pt x="477" y="605" on="0"/>
        <pt x="512" y="596" on="1"/>
        <pt x="556" y="602" on="1"/>
        <pt x="560" y="602" on="1"/>
        <pt x="560" y="50" on="1"/>
        <pt x="600" y="50" on="1"/>
        <pt x="600" y="0" on="1"/>
        <pt x="460" y="0" on="1"/>
        <pt x="460" y="50" on="1"/>
        <pt x="500" y="50" on="1"/>
        <pt x="500" y="549" on="1"/>
        <pt x="475" y="557" on="0"/>
        <pt x="444" y="557" on="1"/>
        <pt x="394" y="557" on="0"/>
        <pt x="350" y="516" on="0"/>
        <pt x="350" y="472" on="1"/>
        <pt x="350" y="390" on="1"/>
        <pt x="440" y="390" on="1"/>
        <pt x="440" y="340" on="1"/>
        <pt x="350" y="340" on="1"/>
        <pt x="350" y="50" on="1"/>
        <pt x="390" y="50" on="1"/>
        <pt x="390" y="0" on="1"/>
        <pt x="240" y="0" on="1"/>
        <pt x="240" y="50" on="1"/>
        <pt x="290" y="50" on="1"/>
        <pt x="290" y="340" on="1"/>
        <pt x="140" y="340" on="1"/>
        <pt x="140" y="50" on="1"/>
        <pt x="190" y="50" on="1"/>
        <pt x="190" y="0" on="1"/>
        <pt x="30" y="0" on="1"/>
        <pt x="30" y="50" on="1"/>
        <pt x="80" y="50" on="1"/>
        <pt x="80" y="340" on="1"/>
        <pt x="30" y="340" on="1"/>
        <pt x="30" y="390" on="1"/>
        <pt x="80" y="390" on="1"/>
        <pt x="80" y="458" on="1"/>
        <pt x="80" y="530" on="0"/>
        <pt x="157" y="600" on="0"/>
        <pt x="228" y="600" on="1"/>
        <pt x="258" y="600" on="0"/>
        <pt x="290" y="593" on="1"/>
      </contour>
      <contour>
        <pt x="650" y="390" on="1"/>
        <pt x="800" y="390" on="1"/>
        <pt x="800" y="340" on="1"/>
        <pt x="747" y="340" on="1"/>
        <pt x="633" y="219" on="1"/>
        <pt x="764" y="50" on="1"/>
        <pt x="810" y="50" on="1"/>
        <pt x="810" y="0" on="1"/>
        <pt x="655" y="0" on="1"/>
        <pt x="655" y="50" on="1"/>
        <pt x="692" y="50" on="1"/>
        <pt x="693" y="52" on="1"/>
        <pt x="570" y="213" on="1"/>
        <pt x="687" y="340" on="1"/>
        <pt x="650" y="340" on="1"/>
      </contour>
    </TTGlyph>
    <TTGlyph name="f_f_l" xMin="30" yMin="0" xMax="610" yMax="605">
      <contour>
        <pt x="560" y="602" on="1"/>
        <pt x="560" y="50" on="1"/>
        <pt x="610" y="50" on="1"/>
        <pt x="610" y="0" on="1"/>
        <pt x="460" y="0" on="1"/>
        <pt x="460" y="50" on="1"/>
        <pt x="500" y="50" on="1"/>
        <pt x="500" y="549" on="1"/>
        <pt x="475" y="557" on="0"/>
        <pt x="444" y="557" on="1"/>
        <pt x="394" y="557" on="0"/>
        <pt x="350" y="516" on="0"/>
        <pt x="350" y="472" on="1"/>
        <pt x="350" y="390" on="1"/>
        <pt x="440" y="390" on="1"/>
        <pt x="440" y="340" on="1"/>
        <pt x="350" y="340" on="1"/>
        <pt x="350" y="50" on="1"/>
        <pt x="390" y="50" on="1"/>
        <pt x="390" y="0" on="1"/>
        <pt x="240" y="0" on="1"/>
        <pt x="240" y="50" on="1"/>
        <pt x="290" y="50" on="1"/>
        <pt x="290" y="340" on="1"/>
        <pt x="140" y="340" on="1"/>
        <pt x="140" y="50" on="1"/>
        <pt x="190" y="50" on="1"/>
        <pt x="190" y="0" on="1"/>
        <pt x="30" y="0" on="1"/>
        <pt x="30" y="50" on="1"/>
        <pt x="80" y="50" on="1"/>
        <pt x="80" y="340" on="1"/>
        <pt x="30" y="340" on="1"/>
        <pt x="30" y="390" on="1"/>
        <pt x="80" y="390" on="1"/>
        <pt x="80" y="458" on="1"/>
        <pt x="80" y="530" on="0"/>
        <pt x="157" y="600" on="0"/>
        <pt x="228" y="600" on="1"/>
        <pt x="258" y="600" on="0"/>
        <pt x="290" y="593" on="1"/>
        <pt x="290" y="541" on="1"/>
        <pt x="262" y="552" on="0"/>
        <pt x="229" y="552" on="1"/>
        <pt x="179" y="552" on="0"/>
        <pt x="140" y="511" on="0"/>
        <pt x="140" y="467" on="1"/>
        <pt x="140" y="390" on="1"/>
        <pt x="290" y="390" on="1"/>
        <pt x="290" y="463" on="1"/>
        <pt x="290" y="535" on="0"/>
        <pt x="372" y="605" on="0"/>
        <pt x="443" y="605" on="1"/>
        <pt x="477" y="605" on="0"/>
        <pt x="512" y="596" on="1"/>
        <pt x="556" y="602" on="1"/>
      </contour>
    </TTGlyph>
    <TTGlyph name="f_h" xMin="30" yMin="0" xMax="610" yMax="605">
      <contour>
        <pt x="340" y="602" on="1"/>
        <pt x="340" y="344" on="1"/>
        <pt x="341" y="344" on="1"/>
        <pt x="395" y="400" on="0"/>
        <pt x="464" y="400" on="1"/>
        <pt x="514" y="400" on="0"/>
        <pt x="560" y="343" on="0"/>
        <pt x="560" y="291" on="1"/>
        <pt x="560" y="50" on="1"/>
        <pt x="610" y="50" on="1"/>
        <pt x="610" y="0" on="1"/>
        <pt x="460" y="0" on="1"/>
        <pt x="460" y="50" on="1"/>
        <pt x="500" y="50" on="1"/>
        <pt x="500" y="283" on="1"/>
        <pt x="500" y="323" on="0"/>
        <pt x="472" y="350" on="0"/>
        <pt x="447" y="350" on="1"/>
        <pt x="389" y="350" on="0"/>
        <pt x="340" y="293" on="1"/>
        <pt x="340" y="50" on="1"/>
        <pt x="380" y="50" on="1"/>
        <pt x="380" y="0" on="1"/>
        <pt x="240" y="0" on="1"/>
        <pt x="240" y="50" on="1"/>
        <pt x="280" y="50" on="1"/>
        <pt x="280" y="551" on="1"/>
        <pt x="259" y="557" on="0"/>
        <pt x="234" y="557" on="1"/>
        <pt x="184" y="557" on="0"/>
        <pt x="140" y="516" on="0"/>
        <pt x="140" y="472" on="1"/>
        <pt x="140" y="390" on="1"/>
        <pt x="230" y="390" on="1"/>
        <pt x="230" y="340" on="1"/>
        <pt x="140" y="340" on="1"/>
        <pt x="140" y="50" on="1"/>
        <pt x="180" y="50" on="1"/>
        <pt x="180" y="0" on="1"/>
        <pt x="30" y="0" on="1"/>
        <pt x="30" y="50" on="1"/>
        <pt x="80" y="50" on="1"/>
        <pt x="80" y="340" on="1"/>
        <pt x="30" y="340" on="1"/>
        <pt x="30" y="390" on="1"/>
        <pt x="80" y="390" on="1"/>
        <pt x="80" y="463" on="1"/>
        <pt x="80" y="535" on="0"/>
        <pt x="162" y="605" on="0"/>
        <pt x="233" y="605" on="1"/>
        <pt x="265" y="605" on="0"/>
        <pt x="297" y="597" on="1"/>
        <pt x="336" y="602" on="1"/>
      </contour>
    </TTGlyph>
    <TTGlyph name="f_i" xMin="30" yMin="0" xMax="400" yMax="605">
      <contour>
        <pt x="350" y="480" on="1"/>
        <pt x="290" y="480" on="1"/>
        <pt x="290" y="551" on="1"/>
        <pt x="264" y="557" on="0"/>
        <pt x="236" y="557" on="1"/>
        <pt x="185" y="557" on="0"/>
        <pt x="140" y="516" on="0"/>
        <pt x="140" y="470" on="1"/>
        <pt x="140" y="390" on="1"/>
        <pt x="350" y="390" on="1"/>
        <pt x="350" y="50" on="1"/>
        <pt x="400" y="50" on="1"/>
        <pt x="400" y="0" on="1"/>
        <pt x="240" y="0" on="1"/>
        <pt x="240" y="50" on="1"/>
        <pt x="290" y="50" on="1"/>
        <pt x="290" y="340" on="1"/>
        <pt x="140" y="340" on="1"/>
        <pt x="140" y="50" on="1"/>
        <pt x="190" y="50" on="1"/>
        <pt x="190" y="0" on="1"/>
        <pt x="30" y="0" on="1"/>
        <pt x="30" y="50" on="1"/>
        <pt x="80" y="50" on="1"/>
        <pt x="80" y="340" on="1"/>
        <pt x="30" y="340" on="1"/>
        <pt x="30" y="390" on="1"/>
        <pt x="80" y="390" on="1"/>
        <pt x="80" y="463" on="1"/>
        <pt x="80" y="533" on="0"/>
        <pt x="158" y="605" on="0"/>
        <pt x="238" y="605" on="1"/>
        <pt x="296" y="605" on="0"/>
        <pt x="350" y="588" on="1"/>
      </contour>
    </TTGlyph>
    <TTGlyph name="f_ij" xMin="30" yMin="-182" xMax="559" yMax="605">
      <component glyphName="f_i" x="0" y="0" flags="0x4"/>
      <component glyphName="j" x="420" y="0" flags="0x4"/>
    </TTGlyph>
    <TTGlyph name="f_iogonek" xMin="30" yMin="-185" xMax="400" yMax="605">
      <component glyphName="f_i" x="0" y="0" flags="0x204"/>
      <component glyphName="uni0328" x="430" y="0" flags="0x4"/>
    </TTGlyph>
    <TTGlyph name="f_j" xMin="30" yMin="-182" xMax="340" yMax="605">
      <contour>
        <pt x="280" y="-58" on="1"/>
        <pt x="280" y="340" on="1"/>
        <pt x="140" y="340" on="1"/>
        <pt x="140" y="50" on="1"/>
        <pt x="190" y="50" on="1"/>
        <pt x="190" y="0" on="1"/>
        <pt x="30" y="0" on="1"/>
        <pt x="30" y="50" on="1"/>
        <pt x="80" y="50" on="1"/>
        <pt x="80" y="340" on="1"/>
        <pt x="30" y="340" on="1"/>
        <pt x="30" y="390" on="1"/>
        <pt x="80" y="390" on="1"/>
        <pt x="80" y="463" on="1"/>
        <pt x="80" y="533" on="0"/>
        <pt x="155" y="605" on="0"/>
        <pt x="232" y="605" on="1"/>
        <pt x="288" y="605" on="0"/>
        <pt x="340" y="588" on="1"/>
        <pt x="340" y="480" on="1"/>
        <pt x="280" y="480" on="1"/>
        <pt x="280" y="551" on="1"/>
        <pt x="256" y="557" on="0"/>
        <pt x="230" y="557" on="1"/>
        <pt x="182" y="557" on="0"/>
        <pt x="140" y="516" on="0"/>
        <pt x="140" y="470" on="1"/>
        <pt x="140" y="390" on="1"/>
        <pt x="340" y="390" on="1"/>
        <pt x="340" y="-49" on="1"/>
        <pt x="340" y="-117" on="0"/>
        <pt x="315" y="-149" on="1"/>
        <pt x="291" y="-182" on="0"/>
        <pt x="238" y="-182" on="1"/>
        <pt x="224" y="-182" on="0"/>
        <pt x="210" y="-180" on="1"/>
        <pt x="210" y="-130" on="1"/>
        <pt x="218" y="-131" on="0"/>
        <pt x="227" y="-131" on="1"/>
        <pt x="258" y="-131" on="0"/>
        <pt x="280" y="-99" on="0"/>
      </contour>
    </TTGlyph>
    <TTGlyph name="f_k" xMin="30" yMin="0" xMax="600" yMax="605">
      <contour>
        <pt x="350" y="602" on="1"/>
        <pt x="350" y="50" on="1"/>
        <pt x="390" y="50" on="1"/>
        <pt x="390" y="0" on="1"/>
        <pt x="250" y="0" on="1"/>
        <pt x="250" y="50" on="1"/>
        <pt x="290" y="50" on="1"/>
        <pt x="290" y="549" on="1"/>
        <pt x="265" y="557" on="0"/>
        <pt x="234" y="557" on="1"/>
        <pt x="184" y="557" on="0"/>
        <pt x="140" y="516" on="0"/>
        <pt x="140" y="472" on="1"/>
        <pt x="140" y="390" on="1"/>
        <pt x="230" y="390" on="1"/>
        <pt x="230" y="340" on="1"/>
        <pt x="140" y="340" on="1"/>
        <pt x="140" y="50" on="1"/>
        <pt x="180" y="50" on="1"/>
        <pt x="180" y="0" on="1"/>
        <pt x="30" y="0" on="1"/>
        <pt x="30" y="50" on="1"/>
        <pt x="80" y="50" on="1"/>
        <pt x="80" y="340" on="1"/>
        <pt x="30" y="340" on="1"/>
        <pt x="30" y="390" on="1"/>
        <pt x="80" y="390" on="1"/>
        <pt x="80" y="463" on="1"/>
        <pt x="80" y="535" on="0"/>
        <pt x="162" y="605" on="0"/>
        <pt x="233" y="605" on="1"/>
        <pt x="267" y="605" on="0"/>
        <pt x="302" y="596" on="1"/>
        <pt x="346" y="602" on="1"/>
      </contour>
      <contour>
        <pt x="440" y="390" on="1"/>
        <pt x="590" y="390" on="1"/>
        <pt x="590" y="340" on="1"/>
        <pt x="537" y="340" on="1"/>
        <pt x="423" y="219" on="1"/>
        <pt x="554" y="50" on="1"/>
        <pt x="600" y="50" on="1"/>
        <pt x="600" y="0" on="1"/>
        <pt x="445" y="0" on="1"/>
        <pt x="445" y="50" on="1"/>
        <pt x="482" y="50" on="1"/>
        <pt x="483" y="52" on="1"/>
        <pt x="360" y="213" on="1"/>
        <pt x="477" y="340" on="1"/>
        <pt x="440" y="340" on="1"/>
      </contour>
    </TTGlyph>
    <TTGlyph name="f_l" xMin="30" yMin="0" xMax="400" yMax="605">
      <contour>
        <pt x="350" y="602" on="1"/>
        <pt x="350" y="50" on="1"/>
        <pt x="400" y="50" on="1"/>
        <pt x="400" y="0" on="1"/>
        <pt x="250" y="0" on="1"/>
        <pt x="250" y="50" on="1"/>
        <pt x="290" y="50" on="1"/>
        <pt x="290" y="549" on="1"/>
        <pt x="265" y="557" on="0"/>
        <pt x="234" y="557" on="1"/>
        <pt x="184" y="557" on="0"/>
        <pt x="140" y="516" on="0"/>
        <pt x="140" y="472" on="1"/>
        <pt x="140" y="390" on="1"/>
        <pt x="230" y="390" on="1"/>
        <pt x="230" y="340" on="1"/>
        <pt x="140" y="340" on="1"/>
        <pt x="140" y="50" on="1"/>
        <pt x="180" y="50" on="1"/>
        <pt x="180" y="0" on="1"/>
        <pt x="30" y="0" on="1"/>
        <pt x="30" y="50" on="1"/>
        <pt x="80" y="50" on="1"/>
        <pt x="80" y="340" on="1"/>
        <pt x="30" y="340" on="1"/>
        <pt x="30" y="390" on="1"/>
        <pt x="80" y="390" on="1"/>
        <pt x="80" y="463" on="1"/>
        <pt x="80" y="535" on="0"/>
        <pt x="162" y="605" on="0"/>
        <pt x="233" y="605" on="1"/>
        <pt x="267" y="605" on="0"/>
        <pt x="302" y="596" on="1"/>
        <pt x="346" y="602" on="1"/>
      </contour>
    </TTGlyph>
    <TTGlyph name="five" xMin="40" yMin="-100" xMax="350" yMax="450">
      <contour>
        <pt x="40" y="-36" on="1"/>
        <pt x="89" y="-49" on="0"/>
        <pt x="139" y="-49" on="1"/>
        <pt x="209" y="-49" on="0"/>
        <pt x="287" y="14" on="0"/>
        <pt x="287" y="79" on="1"/>
        <pt x="287" y="138" on="0"/>
        <pt x="210" y="200" on="0"/>
        <pt x="129" y="200" on="1"/>
        <pt x="92" y="200" on="0"/>
        <pt x="50" y="196" on="1"/>
        <pt x="50" y="450" on="1"/>
        <pt x="322" y="450" on="1"/>
        <pt x="322" y="340" on="1"/>
        <pt x="270" y="340" on="1"/>
        <pt x="270" y="400" on="1"/>
        <pt x="105" y="400" on="1"/>
        <pt x="105" y="248" on="1"/>
        <pt x="126" y="250" on="0"/>
        <pt x="143" y="250" on="1"/>
        <pt x="236" y="250" on="0"/>
        <pt x="350" y="165" on="0"/>
        <pt x="350" y="83" on="1"/>
        <pt x="350" y="3" on="0"/>
        <pt x="236" y="-100" on="0"/>
        <pt x="137" y="-100" on="1"/>
        <pt x="85" y="-100" on="0"/>
        <pt x="40" y="-89" on="1"/>
      </contour>
    </TTGlyph>
    <TTGlyph name="four" xMin="20" yMin="-60" xMax="390" yMax="450">
      <contour>
        <pt x="270" y="60" on="1"/>
        <pt x="20" y="60" on="1"/>
        <pt x="20" y="104" on="1"/>
        <pt x="281" y="450" on="1"/>
        <pt x="330" y="450" on="1"/>
        <pt x="330" y="110" on="1"/>
        <pt x="390" y="110" on="1"/>
        <pt x="390" y="60" on="1"/>
        <pt x="330" y="60" on="1"/>
        <pt x="330" y="-60" on="1"/>
        <pt x="270" y="-60" on="1"/>
      </contour>
      <contour>
        <pt x="87" y="110" on="1"/>
        <pt x="270" y="110" on="1"/>
        <pt x="270" y="352" on="1"/>
        <pt x="268" y="352" on="1"/>
        <pt x="87" y="112" on="1"/>
      </contour>
    </TTGlyph>
    <TTGlyph name="fraction" xMin="-170" yMin="0" xMax="260" yMax="550">
      <contour>
        <pt x="260" y="550" on="1"/>
        <pt x="-110" y="0" on="1"/>
        <pt x="-170" y="0" on="1"/>
        <pt x="200" y="550" on="1"/>
      </contour>
    </TTGlyph>
    <TTGlyph name="g" xMin="20" yMin="-190" xMax="350" yMax="400">
      <contour>
        <pt x="40" y="259" on="1"/>
        <pt x="40" y="321" on="0"/>
        <pt x="118" y="400" on="0"/>
        <pt x="179" y="400" on="1"/>
        <pt x="201" y="400" on="0"/>
        <pt x="219" y="395" on="1"/>
        <pt x="235" y="390" on="0"/>
        <pt x="255" y="390" on="1"/>
        <pt x="350" y="390" on="1"/>
        <pt x="350" y="342" on="1"/>
        <pt x="293" y="342" on="1"/>
        <pt x="293" y="341" on="1"/>
        <pt x="312" y="308" on="0"/>
        <pt x="312" y="268" on="1"/>
        <pt x="312" y="202" on="0"/>
        <pt x="235" y="120" on="0"/>
        <pt x="174" y="120" on="1"/>
        <pt x="146" y="120" on="0"/>
        <pt x="124" y="128" on="1"/>
        <pt x="105" y="106" on="0"/>
        <pt x="105" y="86" on="1"/>
        <pt x="105" y="74" on="0"/>
        <pt x="121" y="60" on="0"/>
        <pt x="138" y="60" on="1"/>
        <pt x="208" y="60" on="1"/>
        <pt x="274" y="60" on="0"/>
        <pt x="345" y="6" on="0"/>
        <pt x="345" y="-47" on="1"/>
        <pt x="345" y="-112" on="0"/>
        <pt x="241" y="-190" on="0"/>
        <pt x="162" y="-190" on="1"/>
        <pt x="98" y="-190" on="0"/>
        <pt x="20" y="-130" on="0"/>
        <pt x="20" y="-83" on="1"/>
        <pt x="20" y="-29" on="0"/>
        <pt x="74" y="16" on="1"/>
        <pt x="50" y="36" on="0"/>
        <pt x="50" y="68" on="1"/>
        <pt x="50" y="108" on="0"/>
        <pt x="93" y="144" on="1"/>
        <pt x="40" y="185" on="0"/>
      </contour>
      <contour>
        <pt x="111" y="0" on="1"/>
        <pt x="80" y="-30" on="0"/>
        <pt x="80" y="-70" on="1"/>
        <pt x="80" y="-104" on="0"/>
        <pt x="124" y="-143" on="0"/>
        <pt x="170" y="-143" on="1"/>
        <pt x="224" y="-143" on="0"/>
        <pt x="285" y="-98" on="0"/>
        <pt x="285" y="-62" on="1"/>
        <pt x="285" y="-31" on="0"/>
        <pt x="244" y="0" on="0"/>
        <pt x="208" y="0" on="1"/>
      </contour>
      <contour>
        <pt x="102" y="264" on="1"/>
        <pt x="102" y="219" on="0"/>
        <pt x="140" y="168" on="0"/>
        <pt x="178" y="168" on="1"/>
        <pt x="214" y="168" on="0"/>
        <pt x="250" y="214" on="0"/>
        <pt x="250" y="261" on="1"/>
        <pt x="250" y="307" on="0"/>
        <pt x="213" y="350" on="0"/>
        <pt x="175" y="350" on="1"/>
        <pt x="139" y="350" on="0"/>
        <pt x="102" y="308" on="0"/>
      </contour>
    </TTGlyph>
    <TTGlyph name="gbreve" xMin="20" yMin="-190" xMax="350" yMax="550">
      <component glyphName="g" x="0" y="0" flags="0x204"/>
      <component glyphName="uni0306" x="375" y="0" flags="0x4"/>
    </TTGlyph>
    <TTGlyph name="gcircumflex" xMin="20" yMin="-190" xMax="350" yMax="550">
      <component glyphName="g" x="0" y="0" flags="0x204"/>
      <component glyphName="uni0302" x="375" y="0" flags="0x4"/>
    </TTGlyph>
    <TTGlyph name="gcommaaccent" xMin="20" yMin="-190" xMax="350" yMax="550">
      <component glyphName="g" x="0" y="0" flags="0x204"/>
      <component glyphName="uni0312" x="375" y="0" flags="0x4"/>
    </TTGlyph>
    <TTGlyph name="gdotaccent" xMin="20" yMin="-190" xMax="350" yMax="540">
      <component glyphName="g" x="0" y="0" flags="0x204"/>
      <component glyphName="uni0307" x="375" y="0" flags="0x4"/>
    </TTGlyph>
    <TTGlyph name="germandbls" xMin="30" yMin="-10" xMax="420" yMax="605">
      <contour>
        <pt x="140" y="0" on="1"/>
        <pt x="30" y="0" on="1"/>
        <pt x="30" y="50" on="1"/>
        <pt x="80" y="50" on="1"/>
        <pt x="80" y="340" on="1"/>
        <pt x="30" y="340" on="1"/>
        <pt x="30" y="390" on="1"/>
        <pt x="80" y="390" on="1"/>
        <pt x="80" y="455" on="1"/>
        <pt x="80" y="526" on="0"/>
        <pt x="172" y="605" on="0"/>
        <pt x="245" y="605" on="1"/>
        <pt x="311" y="605" on="0"/>
        <pt x="390" y="540" on="0"/>
        <pt x="390" y="485" on="1"/>
        <pt x="390" y="458" on="0"/>
        <pt x="376" y="421" on="0"/>
        <pt x="354" y="394" on="0"/>
        <pt x="327" y="375" on="0"/>
        <pt x="314" y="367" on="1"/>
        <pt x="285" y="350" on="0"/>
        <pt x="260" y="324" on="0"/>
        <pt x="260" y="304" on="1"/>
        <pt x="260" y="281" on="0"/>
        <pt x="300" y="248" on="0"/>
        <pt x="335" y="229" on="1"/>
        <pt x="351" y="220" on="0"/>
        <pt x="380" y="200" on="0"/>
        <pt x="405" y="173" on="0"/>
        <pt x="420" y="136" on="0"/>
        <pt x="420" y="112" on="1"/>
        <pt x="420" y="55" on="0"/>
        <pt x="345" y="-10" on="0"/>
        <pt x="283" y="-10" on="1"/>
        <pt x="246" y="-10" on="0"/>
        <pt x="210" y="0" on="1"/>
        <pt x="210" y="53" on="1"/>
        <pt x="247" y="40" on="0"/>
        <pt x="283" y="40" on="1"/>
        <pt x="323" y="40" on="0"/>
        <pt x="360" y="71" on="0"/>
        <pt x="360" y="102" on="1"/>
        <pt x="360" y="128" on="0"/>
        <pt x="328" y="161" on="0"/>
        <pt x="295" y="179" on="1"/>
        <pt x="277" y="189" on="0"/>
        <pt x="244" y="211" on="0"/>
        <pt x="219" y="237" on="0"/>
        <pt x="203" y="272" on="0"/>
        <pt x="203" y="294" on="1"/>
        <pt x="203" y="317" on="0"/>
        <pt x="215" y="347" on="0"/>
        <pt x="233" y="370" on="0"/>
        <pt x="259" y="391" on="0"/>
        <pt x="273" y="400" on="1"/>
        <pt x="287" y="409" on="0"/>
        <pt x="308" y="424" on="0"/>
        <pt x="323" y="443" on="0"/>
        <pt x="331" y="466" on="0"/>
        <pt x="331" y="482" on="1"/>
        <pt x="331" y="519" on="0"/>
        <pt x="286" y="557" on="0"/>
        <pt x="240" y="557" on="1"/>
        <pt x="193" y="557" on="0"/>
        <pt x="140" y="513" on="0"/>
        <pt x="140" y="464" on="1"/>
      </contour>
    </TTGlyph>
    <TTGlyph name="grave" xMin="24" yMin="430" xMax="150" yMax="550">
      <component glyphName="uni0300" x="314" y="0" flags="0x4"/>
    </TTGlyph>
    <TTGlyph name="greater" xMin="30" yMin="60" xMax="360" yMax="360">
      <contour>
        <pt x="293" y="211" on="1"/>
        <pt x="30" y="305" on="1"/>
        <pt x="30" y="360" on="1"/>
        <pt x="360" y="237" on="1"/>
        <pt x="360" y="183" on="1"/>
        <pt x="30" y="60" on="1"/>
        <pt x="30" y="117" on="1"/>
        <pt x="293" y="209" on="1"/>
      </contour>
    </TTGlyph>
    <TTGlyph name="guillemotleft" xMin="30" yMin="60" xMax="300" yMax="330">
      <component glyphName="guilsinglleft" x="0" y="0" flags="0x4"/>
      <component glyphName="guilsinglleft" x="120" y="0" flags="0x4"/>
    </TTGlyph>
    <TTGlyph name="guillemotleft.case" xMin="30" yMin="120" xMax="300" yMax="390">
      <component glyphName="guilsinglleft" x="0" y="60" flags="0x4"/>
      <component glyphName="guilsinglleft" x="120" y="60" flags="0x4"/>
    </TTGlyph>
    <TTGlyph name="guillemotright" xMin="30" yMin="60" xMax="300" yMax="330">
      <component glyphName="guilsinglright" x="0" y="0" flags="0x4"/>
      <component glyphName="guilsinglright" x="120" y="0" flags="0x4"/>
    </TTGlyph>
    <TTGlyph name="guillemotright.case" xMin="30" yMin="120" xMax="300" yMax="390">
      <component glyphName="guilsinglright" x="0" y="60" flags="0x4"/>
      <component glyphName="guilsinglright" x="120" y="60" flags="0x4"/>
    </TTGlyph>
    <TTGlyph name="guilsinglleft" xMin="30" yMin="60" xMax="180" yMax="330">
      <contour>
        <pt x="30" y="195" on="1"/>
        <pt x="115" y="330" on="1"/>
        <pt x="180" y="330" on="1"/>
        <pt x="95" y="195" on="1"/>
        <pt x="180" y="60" on="1"/>
        <pt x="115" y="60" on="1"/>
      </contour>
    </TTGlyph>
    <TTGlyph name="guilsinglleft.case" xMin="30" yMin="120" xMax="180" yMax="390">
      <component glyphName="guilsinglleft" x="0" y="60" flags="0x204"/>
    </TTGlyph>
    <TTGlyph name="guilsinglright" xMin="30" yMin="60" xMax="180" yMax="330">
      <contour>
        <pt x="180" y="195" on="1"/>
        <pt x="95" y="60" on="1"/>
        <pt x="30" y="60" on="1"/>
        <pt x="115" y="195" on="1"/>
        <pt x="30" y="330" on="1"/>
        <pt x="95" y="330" on="1"/>
      </contour>
    </TTGlyph>
    <TTGlyph name="guilsinglright.case" xMin="30" yMin="120" xMax="180" yMax="390">
      <component glyphName="guilsinglright" x="0" y="60" flags="0x204"/>
    </TTGlyph>
    <TTGlyph name="h" xMin="20" yMin="0" xMax="400" yMax="600">
      <contour>
        <pt x="70" y="550" on="1"/>
        <pt x="20" y="550" on="1"/>
        <pt x="20" y="600" on="1"/>
        <pt x="130" y="600" on="1"/>
        <pt x="130" y="344" on="1"/>
        <pt x="131" y="344" on="1"/>
        <pt x="185" y="400" on="0"/>
        <pt x="254" y="400" on="1"/>
        <pt x="304" y="400" on="0"/>
        <pt x="350" y="343" on="0"/>
        <pt x="350" y="291" on="1"/>
        <pt x="350" y="50" on="1"/>
        <pt x="400" y="50" on="1"/>
        <pt x="400" y="0" on="1"/>
        <pt x="250" y="0" on="1"/>
        <pt x="250" y="50" on="1"/>
        <pt x="290" y="50" on="1"/>
        <pt x="290" y="283" on="1"/>
        <pt x="290" y="323" on="0"/>
        <pt x="262" y="350" on="0"/>
        <pt x="237" y="350" on="1"/>
        <pt x="179" y="350" on="0"/>
        <pt x="130" y="293" on="1"/>
        <pt x="130" y="50" on="1"/>
        <pt x="170" y="50" on="1"/>
        <pt x="170" y="0" on="1"/>
        <pt x="20" y="0" on="1"/>
        <pt x="20" y="50" on="1"/>
        <pt x="70" y="50" on="1"/>
      </contour>
    </TTGlyph>
    <TTGlyph name="hbar" xMin="20" yMin="0" xMax="400" yMax="600">
      <contour>
        <pt x="70" y="450" on="1"/>
        <pt x="20" y="450" on="1"/>
        <pt x="20" y="496" on="1"/>
        <pt x="70" y="496" on="1"/>
        <pt x="70" y="550" on="1"/>
        <pt x="20" y="550" on="1"/>
        <pt x="20" y="600" on="1"/>
        <pt x="130" y="600" on="1"/>
        <pt x="130" y="496" on="1"/>
        <pt x="240" y="496" on="1"/>
        <pt x="240" y="450" on="1"/>
        <pt x="130" y="450" on="1"/>
        <pt x="130" y="344" on="1"/>
        <pt x="131" y="344" on="1"/>
        <pt x="185" y="400" on="0"/>
        <pt x="254" y="400" on="1"/>
        <pt x="304" y="400" on="0"/>
        <pt x="350" y="343" on="0"/>
        <pt x="350" y="291" on="1"/>
        <pt x="350" y="50" on="1"/>
        <pt x="400" y="50" on="1"/>
        <pt x="400" y="0" on="1"/>
        <pt x="250" y="0" on="1"/>
        <pt x="250" y="50" on="1"/>
        <pt x="290" y="50" on="1"/>
        <pt x="290" y="283" on="1"/>
        <pt x="290" y="323" on="0"/>
        <pt x="262" y="350" on="0"/>
        <pt x="237" y="350" on="1"/>
        <pt x="179" y="350" on="0"/>
        <pt x="130" y="293" on="1"/>
        <pt x="130" y="50" on="1"/>
        <pt x="170" y="50" on="1"/>
        <pt x="170" y="0" on="1"/>
        <pt x="20" y="0" on="1"/>
        <pt x="20" y="50" on="1"/>
        <pt x="70" y="50" on="1"/>
      </contour>
    </TTGlyph>
    <TTGlyph name="hcircumflex" xMin="20" yMin="0" xMax="400" yMax="740">
      <component glyphName="h" x="0" y="0" flags="0x204"/>
      <component glyphName="uni0302.cap" x="405" y="50" flags="0x4"/>
    </TTGlyph>
    <TTGlyph name="hungarumlaut" xMin="30" yMin="430" xMax="255" yMax="550">
      <component glyphName="uni030B" x="306" y="0" flags="0x4"/>
    </TTGlyph>
    <TTGlyph name="hyphen" xMin="30" yMin="180" xMax="180" yMax="230">
      <contour>
        <pt x="30" y="230" on="1"/>
        <pt x="180" y="230" on="1"/>
        <pt x="180" y="180" on="1"/>
        <pt x="30" y="180" on="1"/>
      </contour>
    </TTGlyph>
    <TTGlyph name="hyphen.case" xMin="30" yMin="250" xMax="180" yMax="300">
      <component glyphName="hyphen" x="0" y="70" flags="0x204"/>
    </TTGlyph>
    <TTGlyph name="i" xMin="30" yMin="0" xMax="190" yMax="540">
      <contour>
        <pt x="30" y="50" on="1"/>
        <pt x="80" y="50" on="1"/>
        <pt x="80" y="340" on="1"/>
        <pt x="30" y="340" on="1"/>
        <pt x="30" y="390" on="1"/>
        <pt x="140" y="390" on="1"/>
        <pt x="140" y="50" on="1"/>
        <pt x="190" y="50" on="1"/>
        <pt x="190" y="0" on="1"/>
        <pt x="30" y="0" on="1"/>
      </contour>
      <contour>
        <pt x="63" y="496" on="1"/>
        <pt x="63" y="517" on="0"/>
        <pt x="86" y="540" on="0"/>
        <pt x="106" y="540" on="1"/>
        <pt x="125" y="540" on="0"/>
        <pt x="149" y="517" on="0"/>
        <pt x="149" y="498" on="1"/>
        <pt x="149" y="478" on="0"/>
        <pt x="125" y="455" on="0"/>
        <pt x="105" y="455" on="1"/>
        <pt x="86" y="455" on="0"/>
        <pt x="63" y="478" on="0"/>
      </contour>
    </TTGlyph>
    <TTGlyph name="i.TRK" xMin="30" yMin="0" xMax="190" yMax="540">
      <component glyphName="i" x="0" y="0" flags="0x204"/>
    </TTGlyph>
    <TTGlyph name="iacute" xMin="30" yMin="0" xMax="200" yMax="550">
      <component glyphName="dotlessi" x="0" y="0" flags="0x204"/>
      <component glyphName="uni0301" x="300" y="0" flags="0x4"/>
    </TTGlyph>
    <TTGlyph name="ibreve" xMin="-3" yMin="0" xMax="213" yMax="550">
      <component glyphName="dotlessi" x="0" y="0" flags="0x204"/>
      <component glyphName="uni0306" x="300" y="0" flags="0x4"/>
    </TTGlyph>
    <TTGlyph name="icircumflex" xMin="-13" yMin="0" xMax="223" yMax="550">
      <component glyphName="dotlessi" x="0" y="0" flags="0x204"/>
      <component glyphName="uni0302" x="300" y="0" flags="0x4"/>
    </TTGlyph>
    <TTGlyph name="idieresis" xMin="-10" yMin="0" xMax="220" yMax="540">
      <component glyphName="dotlessi" x="0" y="0" flags="0x204"/>
      <component glyphName="uni0308" x="300" y="0" flags="0x4"/>
    </TTGlyph>
    <TTGlyph name="igrave" xMin="10" yMin="0" xMax="190" yMax="550">
      <component glyphName="dotlessi" x="0" y="0" flags="0x204"/>
      <component glyphName="uni0300" x="300" y="0" flags="0x4"/>
    </TTGlyph>
    <TTGlyph name="ij" xMin="30" yMin="-182" xMax="349" yMax="540">
      <component glyphName="i" x="0" y="0" flags="0x4"/>
      <component glyphName="j" x="210" y="0" flags="0x4"/>
    </TTGlyph>
    <TTGlyph name="imacron" xMin="0" yMin="0" xMax="210" yMax="510">
      <component glyphName="dotlessi" x="0" y="0" flags="0x204"/>
      <component glyphName="uni0304" x="300" y="0" flags="0x4"/>
    </TTGlyph>
    <TTGlyph name="iogonek" xMin="30" yMin="-185" xMax="190" yMax="540">
      <component glyphName="i" x="0" y="0" flags="0x204"/>
      <component glyphName="uni0328" x="220" y="0" flags="0x4"/>
    </TTGlyph>
    <TTGlyph name="itilde" xMin="-10" yMin="0" xMax="220" yMax="536">
      <component glyphName="dotlessi" x="0" y="0" flags="0x204"/>
      <component glyphName="uni0303" x="300" y="0" flags="0x4"/>
    </TTGlyph>
    <TTGlyph name="j" xMin="0" yMin="-182" xMax="139" yMax="540">
      <contour>
        <pt x="105" y="-149" on="1"/>
        <pt x="81" y="-182" on="0"/>
        <pt x="28" y="-182" on="1"/>
        <pt x="14" y="-182" on="0"/>
        <pt x="0" y="-180" on="1"/>
        <pt x="0" y="-130" on="1"/>
        <pt x="8" y="-131" on="0"/>
        <pt x="17" y="-131" on="1"/>
        <pt x="48" y="-131" on="0"/>
        <pt x="70" y="-99" on="0"/>
        <pt x="70" y="-58" on="1"/>
        <pt x="70" y="340" on="1"/>
        <pt x="20" y="340" on="1"/>
        <pt x="20" y="390" on="1"/>
        <pt x="130" y="390" on="1"/>
        <pt x="130" y="-49" on="1"/>
        <pt x="130" y="-117" on="0"/>
      </contour>
      <contour>
        <pt x="53" y="496" on="1"/>
        <pt x="53" y="517" on="0"/>
        <pt x="76" y="540" on="0"/>
        <pt x="96" y="540" on="1"/>
        <pt x="115" y="540" on="0"/>
        <pt x="139" y="517" on="0"/>
        <pt x="139" y="498" on="1"/>
        <pt x="139" y="478" on="0"/>
        <pt x="115" y="455" on="0"/>
        <pt x="95" y="455" on="1"/>
        <pt x="76" y="455" on="0"/>
        <pt x="53" y="478" on="0"/>
      </contour>
    </TTGlyph>
    <TTGlyph name="jcircumflex" xMin="-28" yMin="-182" xMax="208" yMax="550">
      <component glyphName="uni0237" x="0" y="0" flags="0x204"/>
      <component glyphName="uni0302" x="285" y="0" flags="0x4"/>
    </TTGlyph>
    <TTGlyph name="k" xMin="30" yMin="0" xMax="390" yMax="600">
      <contour>
        <pt x="30" y="50" on="1"/>
        <pt x="80" y="50" on="1"/>
        <pt x="80" y="550" on="1"/>
        <pt x="30" y="550" on="1"/>
        <pt x="30" y="600" on="1"/>
        <pt x="140" y="600" on="1"/>
        <pt x="140" y="50" on="1"/>
        <pt x="180" y="50" on="1"/>
        <pt x="180" y="0" on="1"/>
        <pt x="30" y="0" on="1"/>
      </contour>
      <contour>
        <pt x="230" y="390" on="1"/>
        <pt x="380" y="390" on="1"/>
        <pt x="380" y="340" on="1"/>
        <pt x="327" y="340" on="1"/>
        <pt x="213" y="219" on="1"/>
        <pt x="344" y="50" on="1"/>
        <pt x="390" y="50" on="1"/>
        <pt x="390" y="0" on="1"/>
        <pt x="235" y="0" on="1"/>
        <pt x="235" y="50" on="1"/>
        <pt x="272" y="50" on="1"/>
        <pt x="273" y="52" on="1"/>
        <pt x="150" y="213" on="1"/>
        <pt x="267" y="340" on="1"/>
        <pt x="230" y="340" on="1"/>
      </contour>
    </TTGlyph>
    <TTGlyph name="kcommaaccent" xMin="30" yMin="-160" xMax="390" yMax="600">
      <component glyphName="k" x="0" y="0" flags="0x204"/>
      <component glyphName="uni0326" x="405" y="0" flags="0x4"/>
    </TTGlyph>
    <TTGlyph name="l" xMin="30" yMin="0" xMax="190" yMax="600">
      <contour>
        <pt x="30" y="50" on="1"/>
        <pt x="80" y="50" on="1"/>
        <pt x="80" y="550" on="1"/>
        <pt x="30" y="550" on="1"/>
        <pt x="30" y="600" on="1"/>
        <pt x="140" y="600" on="1"/>
        <pt x="140" y="50" on="1"/>
        <pt x="190" y="50" on="1"/>
        <pt x="190" y="0" on="1"/>
        <pt x="30" y="0" on="1"/>
      </contour>
    </TTGlyph>
    <TTGlyph name="lacute" xMin="30" yMin="0" xMax="210" yMax="740">
      <component glyphName="l" x="0" y="0" flags="0x204"/>
      <component glyphName="uni0301.cap" x="300" y="50" flags="0x4"/>
    </TTGlyph>
    <TTGlyph name="lcaron" xMin="30" yMin="0" xMax="270" yMax="600">
      <component glyphName="l" x="0" y="0" flags="0x4"/>
      <component glyphName="uni0315" x="210" y="0" flags="0x4"/>
    </TTGlyph>
    <TTGlyph name="lcommaaccent" xMin="30" yMin="-160" xMax="190" yMax="600">
      <component glyphName="l" x="0" y="0" flags="0x204"/>
      <component glyphName="uni0326" x="305" y="0" flags="0x4"/>
    </TTGlyph>
    <TTGlyph name="ldot" xMin="30" yMin="0" xMax="270" yMax="600">
      <contour>
        <pt x="190" y="299" on="1"/>
        <pt x="190" y="319" on="0"/>
        <pt x="211" y="341" on="0"/>
        <pt x="230" y="341" on="1"/>
        <pt x="248" y="341" on="0"/>
        <pt x="270" y="319" on="0"/>
        <pt x="270" y="301" on="1"/>
        <pt x="270" y="282" on="0"/>
        <pt x="248" y="260" on="0"/>
        <pt x="229" y="260" on="1"/>
        <pt x="211" y="260" on="0"/>
        <pt x="190" y="282" on="0"/>
      </contour>
      <contour>
        <pt x="30" y="50" on="1"/>
        <pt x="80" y="50" on="1"/>
        <pt x="80" y="550" on="1"/>
        <pt x="30" y="550" on="1"/>
        <pt x="30" y="600" on="1"/>
        <pt x="140" y="600" on="1"/>
        <pt x="140" y="50" on="1"/>
        <pt x="190" y="50" on="1"/>
        <pt x="190" y="0" on="1"/>
        <pt x="30" y="0" on="1"/>
      </contour>
    </TTGlyph>
    <TTGlyph name="less" xMin="30" yMin="60" xMax="360" yMax="360">
      <contour>
        <pt x="97" y="209" on="1"/>
        <pt x="360" y="117" on="1"/>
        <pt x="360" y="60" on="1"/>
        <pt x="30" y="183" on="1"/>
        <pt x="30" y="237" on="1"/>
        <pt x="360" y="360" on="1"/>
        <pt x="360" y="305" on="1"/>
        <pt x="97" y="211" on="1"/>
      </contour>
    </TTGlyph>
    <TTGlyph name="logicalnot" xMin="30" yMin="50" xMax="354" yMax="237">
      <contour>
        <pt x="354" y="50" on="1"/>
        <pt x="300" y="50" on="1"/>
        <pt x="300" y="183" on="1"/>
        <pt x="30" y="183" on="1"/>
        <pt x="30" y="237" on="1"/>
        <pt x="354" y="237" on="1"/>
      </contour>
    </TTGlyph>
    <TTGlyph name="lslash" xMin="20" yMin="0" xMax="200" yMax="600">
      <contour>
        <pt x="30" y="50" on="1"/>
        <pt x="80" y="50" on="1"/>
        <pt x="80" y="308" on="1"/>
        <pt x="20" y="286" on="1"/>
        <pt x="20" y="338" on="1"/>
        <pt x="80" y="360" on="1"/>
        <pt x="80" y="550" on="1"/>
        <pt x="30" y="550" on="1"/>
        <pt x="30" y="600" on="1"/>
        <pt x="140" y="600" on="1"/>
        <pt x="140" y="378" on="1"/>
        <pt x="200" y="400" on="1"/>
        <pt x="200" y="348" on="1"/>
        <pt x="140" y="326" on="1"/>
        <pt x="140" y="50" on="1"/>
        <pt x="190" y="50" on="1"/>
        <pt x="190" y="0" on="1"/>
        <pt x="30" y="0" on="1"/>
      </contour>
    </TTGlyph>
    <TTGlyph name="m" xMin="30" yMin="0" xMax="620" yMax="400">
      <contour>
        <pt x="30" y="50" on="1"/>
        <pt x="80" y="50" on="1"/>
        <pt x="80" y="340" on="1"/>
        <pt x="30" y="340" on="1"/>
        <pt x="30" y="390" on="1"/>
        <pt x="136" y="390" on="1"/>
        <pt x="139" y="338" on="1"/>
        <pt x="140" y="338" on="1"/>
        <pt x="193" y="400" on="0"/>
        <pt x="261" y="400" on="1"/>
        <pt x="333" y="400" on="0"/>
        <pt x="348" y="337" on="1"/>
        <pt x="350" y="337" on="1"/>
        <pt x="404" y="400" on="0"/>
        <pt x="474" y="400" on="1"/>
        <pt x="524" y="400" on="0"/>
        <pt x="570" y="343" on="0"/>
        <pt x="570" y="291" on="1"/>
        <pt x="570" y="50" on="1"/>
        <pt x="620" y="50" on="1"/>
        <pt x="620" y="0" on="1"/>
        <pt x="470" y="0" on="1"/>
        <pt x="470" y="50" on="1"/>
        <pt x="510" y="50" on="1"/>
        <pt x="510" y="283" on="1"/>
        <pt x="510" y="323" on="0"/>
        <pt x="482" y="350" on="0"/>
        <pt x="457" y="350" on="1"/>
        <pt x="403" y="350" on="0"/>
        <pt x="355" y="294" on="1"/>
        <pt x="355" y="50" on="1"/>
        <pt x="395" y="50" on="1"/>
        <pt x="395" y="0" on="1"/>
        <pt x="255" y="0" on="1"/>
        <pt x="255" y="50" on="1"/>
        <pt x="295" y="50" on="1"/>
        <pt x="295" y="283" on="1"/>
        <pt x="295" y="323" on="0"/>
        <pt x="268" y="350" on="0"/>
        <pt x="244" y="350" on="1"/>
        <pt x="187" y="350" on="0"/>
        <pt x="140" y="288" on="1"/>
        <pt x="140" y="50" on="1"/>
        <pt x="180" y="50" on="1"/>
        <pt x="180" y="0" on="1"/>
        <pt x="30" y="0" on="1"/>
      </contour>
    </TTGlyph>
    <TTGlyph name="macron" xMin="30" yMin="462" xMax="240" yMax="510">
      <component glyphName="uni0304" x="330" y="0" flags="0x4"/>
    </TTGlyph>
    <TTGlyph name="minus" xMin="30" yMin="183" xMax="360" yMax="237">
      <contour>
        <pt x="30" y="183" on="1"/>
        <pt x="30" y="237" on="1"/>
        <pt x="360" y="237" on="1"/>
        <pt x="360" y="183" on="1"/>
      </contour>
    </TTGlyph>
    <TTGlyph name="multiply" xMin="35" yMin="50" xMax="355" yMax="370">
      <contour>
        <pt x="355" y="88" on="1"/>
        <pt x="317" y="50" on="1"/>
        <pt x="195" y="172" on="1"/>
        <pt x="73" y="50" on="1"/>
        <pt x="35" y="88" on="1"/>
        <pt x="157" y="210" on="1"/>
        <pt x="35" y="332" on="1"/>
        <pt x="73" y="370" on="1"/>
        <pt x="195" y="248" on="1"/>
        <pt x="317" y="370" on="1"/>
        <pt x="355" y="332" on="1"/>
        <pt x="233" y="210" on="1"/>
      </contour>
    </TTGlyph>
    <TTGlyph name="n" xMin="30" yMin="0" xMax="410" yMax="400">
      <contour>
        <pt x="30" y="50" on="1"/>
        <pt x="80" y="50" on="1"/>
        <pt x="80" y="340" on="1"/>
        <pt x="30" y="340" on="1"/>
        <pt x="30" y="390" on="1"/>
        <pt x="136" y="390" on="1"/>
        <pt x="139" y="338" on="1"/>
        <pt x="140" y="338" on="1"/>
        <pt x="194" y="400" on="0"/>
        <pt x="264" y="400" on="1"/>
        <pt x="314" y="400" on="0"/>
        <pt x="360" y="343" on="0"/>
        <pt x="360" y="291" on="1"/>
        <pt x="360" y="50" on="1"/>
        <pt x="410" y="50" on="1"/>
        <pt x="410" y="0" on="1"/>
        <pt x="260" y="0" on="1"/>
        <pt x="260" y="50" on="1"/>
        <pt x="300" y="50" on="1"/>
        <pt x="300" y="283" on="1"/>
        <pt x="300" y="323" on="0"/>
        <pt x="272" y="350" on="0"/>
        <pt x="247" y="350" on="1"/>
        <pt x="189" y="350" on="0"/>
        <pt x="140" y="288" on="1"/>
        <pt x="140" y="50" on="1"/>
        <pt x="180" y="50" on="1"/>
        <pt x="180" y="0" on="1"/>
        <pt x="30" y="0" on="1"/>
      </contour>
    </TTGlyph>
    <TTGlyph name="nacute" xMin="30" yMin="0" xMax="410" yMax="550">
      <component glyphName="n" x="0" y="0" flags="0x204"/>
      <component glyphName="uni0301" x="420" y="0" flags="0x4"/>
    </TTGlyph>
    <TTGlyph name="ncaron" xMin="30" yMin="0" xMax="410" yMax="550">
      <component glyphName="n" x="0" y="0" flags="0x204"/>
      <component glyphName="uni030C" x="420" y="0" flags="0x4"/>
    </TTGlyph>
    <TTGlyph name="ncommaaccent" xMin="30" yMin="-160" xMax="410" yMax="400">
      <component glyphName="n" x="0" y="0" flags="0x204"/>
      <component glyphName="uni0326" x="415" y="0" flags="0x4"/>
    </TTGlyph>
    <TTGlyph name="nine" xMin="30" yMin="-100" xMax="380" yMax="460">
      <contour>
        <pt x="70" y="-45" on="1"/>
        <pt x="102" y="-50" on="0"/>
        <pt x="125" y="-50" on="1"/>
        <pt x="218" y="-50" on="0"/>
        <pt x="314" y="71" on="0"/>
        <pt x="317" y="183" on="1"/>
        <pt x="315" y="184" on="1"/>
        <pt x="262" y="130" on="0"/>
        <pt x="186" y="130" on="1"/>
        <pt x="117" y="130" on="0"/>
        <pt x="30" y="218" on="0"/>
        <pt x="30" y="286" on="1"/>
        <pt x="30" y="360" on="0"/>
        <pt x="124" y="460" on="0"/>
        <pt x="200" y="460" on="1"/>
        <pt x="285" y="460" on="0"/>
        <pt x="380" y="329" on="0"/>
        <pt x="380" y="208" on="1"/>
        <pt x="380" y="66" on="0"/>
        <pt x="244" y="-100" on="0"/>
        <pt x="125" y="-100" on="1"/>
        <pt x="101" y="-100" on="0"/>
        <pt x="70" y="-95" on="1"/>
      </contour>
      <contour>
        <pt x="317" y="233" on="1"/>
        <pt x="312" y="311" on="0"/>
        <pt x="253" y="410" on="0"/>
        <pt x="198" y="410" on="1"/>
        <pt x="152" y="410" on="0"/>
        <pt x="93" y="348" on="0"/>
        <pt x="93" y="293" on="1"/>
        <pt x="93" y="242" on="0"/>
        <pt x="148" y="180" on="0"/>
        <pt x="197" y="180" on="1"/>
        <pt x="264" y="180" on="0"/>
      </contour>
    </TTGlyph>
    <TTGlyph name="ntilde" xMin="30" yMin="0" xMax="410" yMax="536">
      <component glyphName="n" x="0" y="0" flags="0x204"/>
      <component glyphName="uni0303" x="420" y="0" flags="0x4"/>
    </TTGlyph>
    <TTGlyph name="numbersign" xMin="30" yMin="0" xMax="390" yMax="480">
      <contour>
        <pt x="390" y="340" on="1"/>
        <pt x="386" y="300" on="1"/>
        <pt x="307" y="300" on="1"/>
        <pt x="296" y="180" on="1"/>
        <pt x="376" y="180" on="1"/>
        <pt x="372" y="140" on="1"/>
        <pt x="292" y="140" on="1"/>
        <pt x="280" y="0" on="1"/>
        <pt x="230" y="0" on="1"/>
        <pt x="243" y="140" on="1"/>
        <pt x="157" y="140" on="1"/>
        <pt x="145" y="0" on="1"/>
        <pt x="96" y="0" on="1"/>
        <pt x="109" y="140" on="1"/>
        <pt x="30" y="140" on="1"/>
        <pt x="34" y="180" on="1"/>
        <pt x="112" y="180" on="1"/>
        <pt x="123" y="300" on="1"/>
        <pt x="44" y="300" on="1"/>
        <pt x="48" y="340" on="1"/>
        <pt x="127" y="340" on="1"/>
        <pt x="140" y="480" on="1"/>
        <pt x="188" y="480" on="1"/>
        <pt x="175" y="340" on="1"/>
        <pt x="262" y="340" on="1"/>
        <pt x="275" y="480" on="1"/>
        <pt x="323" y="480" on="1"/>
        <pt x="310" y="340" on="1"/>
      </contour>
      <contour>
        <pt x="161" y="180" on="1"/>
        <pt x="247" y="180" on="1"/>
        <pt x="258" y="300" on="1"/>
        <pt x="172" y="300" on="1"/>
      </contour>
    </TTGlyph>
    <TTGlyph name="o" xMin="35" yMin="-10" xMax="355" yMax="400">
      <contour>
        <pt x="35" y="193" on="1"/>
        <pt x="35" y="288" on="0"/>
        <pt x="128" y="400" on="0"/>
        <pt x="199" y="400" on="1"/>
        <pt x="270" y="400" on="0"/>
        <pt x="355" y="296" on="0"/>
        <pt x="355" y="202" on="1"/>
        <pt x="355" y="106" on="0"/>
        <pt x="265" y="-10" on="0"/>
        <pt x="192" y="-10" on="1"/>
        <pt x="120" y="-10" on="0"/>
        <pt x="35" y="101" on="0"/>
      </contour>
      <contour>
        <pt x="98" y="202" on="1"/>
        <pt x="98" y="123" on="0"/>
        <pt x="149" y="40" on="0"/>
        <pt x="197" y="40" on="1"/>
        <pt x="242" y="40" on="0"/>
        <pt x="292" y="117" on="0"/>
        <pt x="292" y="196" on="1"/>
        <pt x="292" y="350" on="0"/>
        <pt x="194" y="350" on="1"/>
        <pt x="147" y="350" on="0"/>
        <pt x="98" y="279" on="0"/>
      </contour>
    </TTGlyph>
    <TTGlyph name="oacute" xMin="35" yMin="-10" xMax="355" yMax="550">
      <component glyphName="o" x="0" y="0" flags="0x204"/>
      <component glyphName="uni0301" x="390" y="0" flags="0x4"/>
    </TTGlyph>
    <TTGlyph name="obreve" xMin="35" yMin="-10" xMax="355" yMax="550">
      <component glyphName="o" x="0" y="0" flags="0x204"/>
      <component glyphName="uni0306" x="390" y="0" flags="0x4"/>
    </TTGlyph>
    <TTGlyph name="ocircumflex" xMin="35" yMin="-10" xMax="355" yMax="550">
      <component glyphName="o" x="0" y="0" flags="0x204"/>
      <component glyphName="uni0302" x="390" y="0" flags="0x4"/>
    </TTGlyph>
    <TTGlyph name="odieresis" xMin="35" yMin="-10" xMax="355" yMax="540">
      <component glyphName="o" x="0" y="0" flags="0x204"/>
      <component glyphName="uni0308" x="390" y="0" flags="0x4"/>
    </TTGlyph>
    <TTGlyph name="oe" xMin="35" yMin="-10" xMax="570" yMax="400">
      <contour>
        <pt x="570" y="192" on="1"/>
        <pt x="341" y="192" on="1"/>
        <pt x="343" y="122" on="0"/>
        <pt x="393" y="44" on="0"/>
        <pt x="449" y="42" on="1"/>
        <pt x="510" y="42" on="0"/>
        <pt x="560" y="75" on="1"/>
        <pt x="560" y="21" on="1"/>
        <pt x="512" y="-10" on="0"/>
        <pt x="445" y="-10" on="1"/>
        <pt x="352" y="-10" on="0"/>
        <pt x="311" y="65" on="1"/>
        <pt x="309" y="65" on="1"/>
        <pt x="265" y="-10" on="0"/>
        <pt x="186" y="-10" on="1"/>
        <pt x="118" y="-10" on="0"/>
        <pt x="35" y="102" on="0"/>
        <pt x="35" y="193" on="1"/>
        <pt x="35" y="285" on="0"/>
        <pt x="124" y="400" on="0"/>
        <pt x="193" y="400" on="1"/>
        <pt x="273" y="400" on="0"/>
        <pt x="313" y="328" on="1"/>
        <pt x="315" y="328" on="1"/>
        <pt x="362" y="400" on="0"/>
        <pt x="442" y="400" on="1"/>
        <pt x="500" y="400" on="0"/>
        <pt x="570" y="308" on="0"/>
        <pt x="570" y="223" on="1"/>
      </contour>
      <contour>
        <pt x="98" y="202" on="1"/>
        <pt x="98" y="125" on="0"/>
        <pt x="146" y="40" on="0"/>
        <pt x="191" y="40" on="1"/>
        <pt x="233" y="40" on="0"/>
        <pt x="280" y="119" on="0"/>
        <pt x="280" y="196" on="1"/>
        <pt x="280" y="271" on="0"/>
        <pt x="234" y="350" on="0"/>
        <pt x="188" y="350" on="1"/>
        <pt x="146" y="350" on="0"/>
        <pt x="98" y="280" on="0"/>
      </contour>
      <contour>
        <pt x="510" y="240" on="1"/>
        <pt x="510" y="297" on="0"/>
        <pt x="470" y="350" on="0"/>
        <pt x="432" y="350" on="1"/>
        <pt x="396" y="350" on="0"/>
        <pt x="347" y="295" on="0"/>
        <pt x="342" y="240" on="1"/>
      </contour>
    </TTGlyph>
    <TTGlyph name="ogonek" xMin="22" yMin="-185" xMax="157" yMax="8">
      <component glyphName="uni0328" x="187" y="0" flags="0x4"/>
    </TTGlyph>
    <TTGlyph name="ograve" xMin="35" yMin="-10" xMax="355" yMax="550">
      <component glyphName="o" x="0" y="0" flags="0x204"/>
      <component glyphName="uni0300" x="390" y="0" flags="0x4"/>
    </TTGlyph>
    <TTGlyph name="ohungarumlaut" xMin="35" yMin="-10" xMax="355" yMax="550">
      <component glyphName="o" x="0" y="0" flags="0x204"/>
      <component glyphName="uni030B" x="390" y="0" flags="0x4"/>
    </TTGlyph>
    <TTGlyph name="omacron" xMin="35" yMin="-10" xMax="355" yMax="510">
      <component glyphName="o" x="0" y="0" flags="0x204"/>
      <component glyphName="uni0304" x="390" y="0" flags="0x4"/>
    </TTGlyph>
    <TTGlyph name="one" xMin="40" yMin="0" xMax="170" yMax="450">
      <contour>
        <pt x="110" y="0" on="1"/>
        <pt x="110" y="400" on="1"/>
        <pt x="40" y="400" on="1"/>
        <pt x="40" y="450" on="1"/>
        <pt x="170" y="450" on="1"/>
        <pt x="170" y="0" on="1"/>
      </contour>
    </TTGlyph>
    <TTGlyph name="onehalf" xMin="60" yMin="0" xMax="680" yMax="550">
      <component glyphName="onesuperior" x="0" y="0" flags="0x4"/>
      <component glyphName="fraction" x="285" y="0" flags="0x4"/>
      <component glyphName="twosuperior" x="390" y="-209" flags="0x4"/>
    </TTGlyph>
    <TTGlyph name="onequarter" xMin="60" yMin="0" xMax="660" yMax="550">
      <component glyphName="onesuperior" x="0" y="0" flags="0x4"/>
      <component glyphName="fraction" x="285" y="0" flags="0x4"/>
      <component glyphName="uni2074" x="360" y="-209" flags="0x4"/>
    </TTGlyph>
    <TTGlyph name="onesuperior" xMin="60" yMin="220" xMax="175" yMax="540">
      <contour>
        <pt x="120" y="220" on="1"/>
        <pt x="120" y="493" on="1"/>
        <pt x="60" y="493" on="1"/>
        <pt x="60" y="540" on="1"/>
        <pt x="175" y="540" on="1"/>
        <pt x="175" y="220" on="1"/>
      </contour>
    </TTGlyph>
    <TTGlyph name="ordfeminine" xMin="30" yMin="210" xMax="310" yMax="510">
      <contour>
        <pt x="50" y="487" on="1"/>
        <pt x="101" y="510" on="0"/>
        <pt x="158" y="510" on="1"/>
        <pt x="211" y="510" on="0"/>
        <pt x="265" y="460" on="0"/>
        <pt x="265" y="411" on="1"/>
        <pt x="265" y="267" on="1"/>
        <pt x="310" y="267" on="1"/>
        <pt x="310" y="220" on="1"/>
        <pt x="216" y="220" on="1"/>
        <pt x="213" y="255" on="1"/>
        <pt x="211" y="255" on="1"/>
        <pt x="172" y="210" on="0"/>
        <pt x="119" y="210" on="1"/>
        <pt x="79" y="210" on="0"/>
        <pt x="30" y="255" on="0"/>
        <pt x="30" y="292" on="1"/>
        <pt x="30" y="385" on="0"/>
        <pt x="195" y="385" on="1"/>
        <pt x="210" y="385" on="1"/>
        <pt x="210" y="400" on="1"/>
        <pt x="210" y="463" on="0"/>
        <pt x="151" y="463" on="1"/>
        <pt x="99" y="463" on="0"/>
        <pt x="50" y="439" on="1"/>
      </contour>
      <contour>
        <pt x="194" y="345" on="1"/>
        <pt x="142" y="345" on="0"/>
        <pt x="86" y="323" on="0"/>
        <pt x="86" y="295" on="1"/>
        <pt x="86" y="277" on="0"/>
        <pt x="111" y="257" on="0"/>
        <pt x="133" y="257" on="1"/>
        <pt x="180" y="257" on="0"/>
        <pt x="210" y="297" on="1"/>
        <pt x="210" y="345" on="1"/>
      </contour>
    </TTGlyph>
    <TTGlyph name="ordmasculine" xMin="30" yMin="210" xMax="300" yMax="510">
      <contour>
        <pt x="30" y="359" on="1"/>
        <pt x="30" y="426" on="0"/>
        <pt x="105" y="510" on="0"/>
        <pt x="170" y="510" on="1"/>
        <pt x="231" y="510" on="0"/>
        <pt x="300" y="430" on="0"/>
        <pt x="300" y="365" on="1"/>
        <pt x="300" y="296" on="0"/>
        <pt x="225" y="210" on="0"/>
        <pt x="164" y="210" on="1"/>
        <pt x="102" y="210" on="0"/>
        <pt x="30" y="292" on="0"/>
      </contour>
      <contour>
        <pt x="87" y="366" on="1"/>
        <pt x="87" y="313" on="0"/>
        <pt x="128" y="257" on="0"/>
        <pt x="167" y="257" on="1"/>
        <pt x="206" y="257" on="0"/>
        <pt x="243" y="310" on="0"/>
        <pt x="243" y="361" on="1"/>
        <pt x="243" y="410" on="0"/>
        <pt x="206" y="463" on="0"/>
        <pt x="164" y="463" on="1"/>
        <pt x="127" y="463" on="0"/>
        <pt x="87" y="416" on="0"/>
      </contour>
    </TTGlyph>
    <TTGlyph name="oslash" xMin="35" yMin="-35" xMax="355" yMax="425">
      <contour>
        <pt x="35" y="193" on="1"/>
        <pt x="35" y="285" on="0"/>
        <pt x="127" y="400" on="0"/>
        <pt x="199" y="400" on="1"/>
        <pt x="248" y="400" on="0"/>
        <pt x="284" y="374" on="1"/>
        <pt x="316" y="425" on="1"/>
        <pt x="350" y="405" on="1"/>
        <pt x="313" y="346" on="1"/>
        <pt x="355" y="293" on="0"/>
        <pt x="355" y="202" on="1"/>
        <pt x="355" y="108" on="0"/>
        <pt x="265" y="-10" on="0"/>
        <pt x="192" y="-10" on="1"/>
        <pt x="143" y="-10" on="0"/>
        <pt x="107" y="17" on="1"/>
        <pt x="75" y="-35" on="1"/>
        <pt x="40" y="-15" on="1"/>
        <pt x="78" y="46" on="1"/>
        <pt x="35" y="102" on="0"/>
      </contour>
      <contour>
        <pt x="98" y="202" on="1"/>
        <pt x="98" y="142" on="0"/>
        <pt x="114" y="102" on="1"/>
        <pt x="255" y="327" on="1"/>
        <pt x="231" y="350" on="0"/>
        <pt x="194" y="350" on="1"/>
        <pt x="149" y="350" on="0"/>
        <pt x="98" y="280" on="0"/>
      </contour>
      <contour>
        <pt x="197" y="40" on="1"/>
        <pt x="242" y="40" on="0"/>
        <pt x="292" y="119" on="0"/>
        <pt x="292" y="196" on="1"/>
        <pt x="292" y="253" on="0"/>
        <pt x="278" y="289" on="1"/>
        <pt x="137" y="65" on="1"/>
        <pt x="160" y="40" on="0"/>
      </contour>
    </TTGlyph>
    <TTGlyph name="otilde" xMin="35" yMin="-10" xMax="355" yMax="536">
      <component glyphName="o" x="0" y="0" flags="0x204"/>
      <component glyphName="uni0303" x="390" y="0" flags="0x4"/>
    </TTGlyph>
    <TTGlyph name="p" xMin="25" yMin="-180" xMax="380" yMax="400">
      <contour>
        <pt x="132" y="390" on="1"/>
        <pt x="135" y="358" on="1"/>
        <pt x="137" y="358" on="1"/>
        <pt x="182" y="400" on="0"/>
        <pt x="238" y="400" on="1"/>
        <pt x="302" y="400" on="0"/>
        <pt x="380" y="295" on="0"/>
        <pt x="380" y="209" on="1"/>
        <pt x="380" y="111" on="0"/>
        <pt x="285" y="-10" on="0"/>
        <pt x="212" y="-10" on="1"/>
        <pt x="174" y="-10" on="0"/>
        <pt x="137" y="8" on="1"/>
        <pt x="135" y="7" on="1"/>
        <pt x="135" y="-130" on="1"/>
        <pt x="195" y="-130" on="1"/>
        <pt x="195" y="-180" on="1"/>
        <pt x="25" y="-180" on="1"/>
        <pt x="25" y="-130" on="1"/>
        <pt x="75" y="-130" on="1"/>
        <pt x="75" y="340" on="1"/>
        <pt x="25" y="340" on="1"/>
        <pt x="25" y="390" on="1"/>
      </contour>
      <contour>
        <pt x="135" y="55" on="1"/>
        <pt x="165" y="40" on="0"/>
        <pt x="205" y="40" on="1"/>
        <pt x="258" y="40" on="0"/>
        <pt x="317" y="118" on="0"/>
        <pt x="317" y="199" on="1"/>
        <pt x="317" y="277" on="0"/>
        <pt x="265" y="350" on="0"/>
        <pt x="221" y="350" on="1"/>
        <pt x="173" y="350" on="0"/>
        <pt x="135" y="307" on="1"/>
      </contour>
    </TTGlyph>
    <TTGlyph name="paragraph" xMin="10" yMin="-150" xMax="410" yMax="540">
      <contour>
        <pt x="180" y="-150" on="1"/>
        <pt x="180" y="240" on="1"/>
        <pt x="99" y="242" on="0"/>
        <pt x="10" y="322" on="0"/>
        <pt x="10" y="396" on="1"/>
        <pt x="10" y="465" on="0"/>
        <pt x="95" y="540" on="0"/>
        <pt x="184" y="540" on="1"/>
        <pt x="410" y="540" on="1"/>
        <pt x="410" y="490" on="1"/>
        <pt x="360" y="490" on="1"/>
        <pt x="360" y="-150" on="1"/>
        <pt x="300" y="-150" on="1"/>
        <pt x="300" y="490" on="1"/>
        <pt x="240" y="490" on="1"/>
        <pt x="240" y="-150" on="1"/>
      </contour>
    </TTGlyph>
    <TTGlyph name="parenleft" xMin="46" yMin="-120" xMax="250" yMax="600">
      <contour>
        <pt x="110" y="243" on="1"/>
        <pt x="110" y="32" on="0"/>
        <pt x="250" y="-120" on="1"/>
        <pt x="192" y="-120" on="1"/>
        <pt x="46" y="42" on="0"/>
        <pt x="47" y="239" on="1"/>
        <pt x="46" y="435" on="0"/>
        <pt x="192" y="600" on="1"/>
        <pt x="250" y="600" on="1"/>
        <pt x="110" y="449" on="0"/>
      </contour>
    </TTGlyph>
    <TTGlyph name="parenleft.case" xMin="46" yMin="-90" xMax="250" yMax="630">
      <component glyphName="parenleft" x="0" y="30" flags="0x204"/>
    </TTGlyph>
    <TTGlyph name="parenright" xMin="20" yMin="-120" xMax="224" yMax="600">
      <contour>
        <pt x="160" y="239" on="1"/>
        <pt x="160" y="449" on="0"/>
        <pt x="20" y="600" on="1"/>
        <pt x="78" y="600" on="1"/>
        <pt x="224" y="435" on="0"/>
        <pt x="223" y="243" on="1"/>
        <pt x="224" y="42" on="0"/>
        <pt x="78" y="-120" on="1"/>
        <pt x="20" y="-120" on="1"/>
        <pt x="160" y="32" on="0"/>
      </contour>
    </TTGlyph>
    <TTGlyph name="parenright.case" xMin="20" yMin="-90" xMax="224" yMax="630">
      <component glyphName="parenright" x="0" y="30" flags="0x204"/>
    </TTGlyph>
    <TTGlyph name="percent" xMin="50" yMin="0" xMax="730" yMax="550">
      <component glyphName="uni2070" x="0" y="0" flags="0x4"/>
      <component glyphName="fraction" x="345" y="0" flags="0x4"/>
      <component glyphName="uni2070" x="420" y="-209" flags="0x4"/>
    </TTGlyph>
    <TTGlyph name="period" xMin="50" yMin="-10" xMax="150" yMax="92">
      <contour>
        <pt x="50" y="39" on="1"/>
        <pt x="50" y="63" on="0"/>
        <pt x="77" y="92" on="0"/>
        <pt x="100" y="92" on="1"/>
        <pt x="123" y="92" on="0"/>
        <pt x="150" y="63" on="0"/>
        <pt x="150" y="43" on="1"/>
        <pt x="150" y="18" on="0"/>
        <pt x="122" y="-10" on="0"/>
        <pt x="98" y="-10" on="1"/>
        <pt x="76" y="-10" on="0"/>
        <pt x="50" y="18" on="0"/>
      </contour>
    </TTGlyph>
    <TTGlyph name="periodcentered" xMin="40" yMin="144" xMax="140" yMax="246">
      <contour>
        <pt x="40" y="193" on="1"/>
        <pt x="40" y="217" on="0"/>
        <pt x="67" y="246" on="0"/>
        <pt x="90" y="246" on="1"/>
        <pt x="113" y="246" on="0"/>
        <pt x="140" y="217" on="0"/>
        <pt x="140" y="197" on="1"/>
        <pt x="140" y="172" on="0"/>
        <pt x="112" y="144" on="0"/>
        <pt x="88" y="144" on="1"/>
        <pt x="66" y="144" on="0"/>
        <pt x="40" y="172" on="0"/>
      </contour>
    </TTGlyph>
    <TTGlyph name="perthousand" xMin="50" yMin="0" xMax="1030" yMax="550">
      <component glyphName="uni2070" x="0" y="0" flags="0x4"/>
      <component glyphName="fraction" x="345" y="0" flags="0x4"/>
      <component glyphName="uni2070" x="420" y="-209" flags="0x4"/>
      <component glyphName="uni2070" x="720" y="-209" flags="0x4"/>
    </TTGlyph>
    <TTGlyph name="plus" xMin="30" yMin="50" xMax="360" yMax="370">
      <contour>
        <pt x="222" y="50" on="1"/>
        <pt x="168" y="50" on="1"/>
        <pt x="168" y="183" on="1"/>
        <pt x="30" y="183" on="1"/>
        <pt x="30" y="237" on="1"/>
        <pt x="168" y="237" on="1"/>
        <pt x="168" y="370" on="1"/>
        <pt x="222" y="370" on="1"/>
        <pt x="222" y="237" on="1"/>
        <pt x="360" y="237" on="1"/>
        <pt x="360" y="183" on="1"/>
        <pt x="222" y="183" on="1"/>
      </contour>
    </TTGlyph>
    <TTGlyph name="plusminus" xMin="30" yMin="3" xMax="360" yMax="340">
      <contour>
        <pt x="222" y="80" on="1"/>
        <pt x="168" y="80" on="1"/>
        <pt x="168" y="183" on="1"/>
        <pt x="30" y="183" on="1"/>
        <pt x="30" y="237" on="1"/>
        <pt x="168" y="237" on="1"/>
        <pt x="168" y="340" on="1"/>
        <pt x="222" y="340" on="1"/>
        <pt x="222" y="237" on="1"/>
        <pt x="360" y="237" on="1"/>
        <pt x="360" y="183" on="1"/>
        <pt x="222" y="183" on="1"/>
      </contour>
      <contour>
        <pt x="30" y="3" on="1"/>
        <pt x="30" y="57" on="1"/>
        <pt x="360" y="57" on="1"/>
        <pt x="360" y="3" on="1"/>
      </contour>
    </TTGlyph>
    <TTGlyph name="q" xMin="40" yMin="-180" xMax="400" yMax="400">
      <contour>
        <pt x="400" y="-130" on="1"/>
        <pt x="400" y="-180" on="1"/>
        <pt x="230" y="-180" on="1"/>
        <pt x="230" y="-130" on="1"/>
        <pt x="290" y="-130" on="1"/>
        <pt x="290" y="32" on="1"/>
        <pt x="288" y="33" on="1"/>
        <pt x="247" y="-10" on="0"/>
        <pt x="187" y="-10" on="1"/>
        <pt x="121" y="-10" on="0"/>
        <pt x="40" y="100" on="0"/>
        <pt x="40" y="187" on="1"/>
        <pt x="40" y="282" on="0"/>
        <pt x="136" y="400" on="0"/>
        <pt x="225" y="400" on="1"/>
        <pt x="279" y="400" on="0"/>
        <pt x="350" y="379" on="1"/>
        <pt x="350" y="-130" on="1"/>
      </contour>
      <contour>
        <pt x="290" y="341" on="1"/>
        <pt x="252" y="350" on="0"/>
        <pt x="219" y="350" on="1"/>
        <pt x="161" y="350" on="0"/>
        <pt x="103" y="276" on="0"/>
        <pt x="103" y="195" on="1"/>
        <pt x="103" y="114" on="0"/>
        <pt x="158" y="40" on="0"/>
        <pt x="203" y="40" on="1"/>
        <pt x="253" y="40" on="0"/>
        <pt x="290" y="78" on="1"/>
      </contour>
    </TTGlyph>
    <TTGlyph name="question" xMin="60" yMin="-10" xMax="282" yMax="550">
      <contour>
        <pt x="60" y="537" on="1"/>
        <pt x="99" y="550" on="0"/>
        <pt x="141" y="550" on="1"/>
        <pt x="202" y="550" on="0"/>
        <pt x="282" y="480" on="0"/>
        <pt x="282" y="420" on="1"/>
        <pt x="282" y="376" on="0"/>
        <pt x="246" y="316" on="0"/>
        <pt x="213" y="290" on="1"/>
        <pt x="180" y="263" on="0"/>
        <pt x="147" y="220" on="0"/>
        <pt x="147" y="190" on="1"/>
        <pt x="147" y="172" on="0"/>
        <pt x="153" y="150" on="1"/>
        <pt x="109" y="150" on="1"/>
        <pt x="98" y="180" on="0"/>
        <pt x="98" y="210" on="1"/>
        <pt x="98" y="244" on="0"/>
        <pt x="129" y="295" on="0"/>
        <pt x="157" y="317" on="1"/>
        <pt x="184" y="339" on="0"/>
        <pt x="220" y="381" on="0"/>
        <pt x="220" y="418" on="1"/>
        <pt x="220" y="457" on="0"/>
        <pt x="171" y="497" on="0"/>
        <pt x="131" y="497" on="1"/>
        <pt x="99" y="497" on="0"/>
        <pt x="60" y="485" on="1"/>
      </contour>
      <contour>
        <pt x="80" y="39" on="1"/>
        <pt x="80" y="63" on="0"/>
        <pt x="107" y="92" on="0"/>
        <pt x="130" y="92" on="1"/>
        <pt x="153" y="92" on="0"/>
        <pt x="180" y="63" on="0"/>
        <pt x="180" y="43" on="1"/>
        <pt x="180" y="18" on="0"/>
        <pt x="152" y="-10" on="0"/>
        <pt x="128" y="-10" on="1"/>
        <pt x="106" y="-10" on="0"/>
        <pt x="80" y="18" on="0"/>
      </contour>
    </TTGlyph>
    <TTGlyph name="questiondown" xMin="18" yMin="-160" xMax="240" yMax="400">
      <contour>
        <pt x="240" y="-147" on="1"/>
        <pt x="201" y="-160" on="0"/>
        <pt x="159" y="-160" on="1"/>
        <pt x="98" y="-160" on="0"/>
        <pt x="18" y="-90" on="0"/>
        <pt x="18" y="-30" on="1"/>
        <pt x="18" y="14" on="0"/>
        <pt x="54" y="74" on="0"/>
        <pt x="87" y="100" on="1"/>
        <pt x="120" y="127" on="0"/>
        <pt x="153" y="170" on="0"/>
        <pt x="153" y="200" on="1"/>
        <pt x="153" y="218" on="0"/>
        <pt x="147" y="240" on="1"/>
        <pt x="191" y="240" on="1"/>
        <pt x="202" y="210" on="0"/>
        <pt x="202" y="180" on="1"/>
        <pt x="202" y="146" on="0"/>
        <pt x="171" y="95" on="0"/>
        <pt x="143" y="73" on="1"/>
        <pt x="116" y="51" on="0"/>
        <pt x="80" y="9" on="0"/>
        <pt x="80" y="-28" on="1"/>
        <pt x="80" y="-67" on="0"/>
        <pt x="129" y="-107" on="0"/>
        <pt x="169" y="-107" on="1"/>
        <pt x="201" y="-107" on="0"/>
        <pt x="240" y="-95" on="1"/>
      </contour>
      <contour>
        <pt x="220" y="351" on="1"/>
        <pt x="220" y="327" on="0"/>
        <pt x="193" y="298" on="0"/>
        <pt x="170" y="298" on="1"/>
        <pt x="147" y="298" on="0"/>
        <pt x="120" y="327" on="0"/>
        <pt x="120" y="347" on="1"/>
        <pt x="120" y="372" on="0"/>
        <pt x="148" y="400" on="0"/>
        <pt x="172" y="400" on="1"/>
        <pt x="194" y="400" on="0"/>
        <pt x="220" y="372" on="0"/>
      </contour>
    </TTGlyph>
    <TTGlyph name="questiondown.case" xMin="18" yMin="-10" xMax="240" yMax="550">
      <component glyphName="questiondown" x="0" y="150" flags="0x204"/>
    </TTGlyph>
    <TTGlyph name="quotedbl" xMin="42" yMin="360" xMax="228" yMax="540">
      <component glyphName="quotesingle" x="0" y="0" flags="0x4"/>
      <component glyphName="quotesingle" x="120" y="0" flags="0x4"/>
    </TTGlyph>
    <TTGlyph name="quotedblbase" xMin="20" yMin="-92" xMax="240" yMax="118">
      <component glyphName="quotesinglbase" x="0" y="0" flags="0x4"/>
      <component glyphName="quotesinglbase" x="120" y="0" flags="0x4"/>
    </TTGlyph>
    <TTGlyph name="quotedblleft" xMin="30" yMin="340" xMax="250" yMax="550">
      <component glyphName="quoteleft" x="0" y="0" flags="0x4"/>
      <component glyphName="quoteleft" x="120" y="0" flags="0x4"/>
    </TTGlyph>
    <TTGlyph name="quotedblright" xMin="20" yMin="340" xMax="240" yMax="550">
      <component glyphName="quoteright" x="0" y="0" flags="0x4"/>
      <component glyphName="quoteright" x="120" y="0" flags="0x4"/>
    </TTGlyph>
    <TTGlyph name="quoteleft" xMin="30" yMin="340" xMax="130" yMax="550">
      <contour>
        <pt x="73" y="340" on="1"/>
        <pt x="30" y="381" on="0"/>
        <pt x="30" y="425" on="1"/>
        <pt x="30" y="487" on="0"/>
        <pt x="101" y="550" on="1"/>
        <pt x="130" y="523" on="1"/>
        <pt x="90" y="484" on="0"/>
        <pt x="90" y="448" on="1"/>
        <pt x="90" y="419" on="0"/>
        <pt x="126" y="385" on="1"/>
      </contour>
    </TTGlyph>
</ttFont>
